<svg xmlns="http://www.w3.org/2000/svg" width="170" height="100" fill="none" viewBox="0 0 170 100">
    <rect width="169" height="99" x=".5" y=".5" fill="#fff" fill-opacity=".1" rx="49.5"/>
    <path fill="#F7E74D" d="M86.184 23.44c1.942.037 3.715.355 5.32.952 1.606.597 2.968 1.4 4.088 2.408 1.158 1.008 2.035 2.184 2.632 3.528.598 1.344.878 2.8.84 4.368 0 2.39-.616 4.33-1.848 5.824-1.194 1.456-2.669 2.613-4.424 3.472 2.464.933 4.238 2.221 5.32 3.864 1.12 1.605 1.68 3.64 1.68 6.104-.037 2.128-.466 4.013-1.288 5.656-.821 1.643-1.904 3.024-3.248 4.144-1.344 1.083-2.912 1.904-4.704 2.464-1.792.56-3.658.84-5.6.84-2.128 0-4.013-.261-5.656-.784-1.605-.523-3.005-1.27-4.2-2.24-1.157-1.008-2.165-2.221-3.024-3.64-.821-1.456-1.512-3.099-2.072-4.928l6.832-2.688c.15.56.411 1.232.784 2.016.374.784.766 1.493 1.176 2.128.448.597.952 1.157 1.512 1.68.598.485 1.251.896 1.96 1.232.747.336 1.606.504 2.576.504 1.232 0 2.296-.168 3.192-.504.934-.373 1.699-.84 2.296-1.4.635-.597 1.102-1.27 1.4-2.016.299-.747.448-1.512.448-2.296 0-.97-.112-1.867-.336-2.688-.186-.821-.616-1.512-1.288-2.072-.672-.597-1.661-1.045-2.968-1.344-1.306-.336-3.042-.504-5.208-.504v-5.6c1.83-.037 3.342-.205 4.536-.504 1.195-.299 2.128-.71 2.8-1.232.672-.56 1.139-1.195 1.4-1.904.262-.747.392-1.568.392-2.464.038-1.941-.466-3.379-1.512-4.312-1.008-.97-2.426-1.456-4.256-1.456-1.68 0-3.061.43-4.144 1.288-1.082.821-1.866 1.904-2.352 3.248-.261.821-.466 1.699-.616 2.632-1.194-.187-2.408-.392-3.64-.616-1.194-.261-2.408-.485-3.64-.672.822-4.219 2.502-7.355 5.04-9.408 2.576-2.053 5.843-3.08 9.8-3.08z"/>
    <rect width="169" height="99" x=".5" y=".5" stroke="#4D4D4D" rx="49.5"/>
    <rect width="169" height="99" x=".5" y=".5" stroke="url(#paint0_linear)" rx="49.5"/>
    <defs>
        <linearGradient id="paint0_linear" x1="85" x2="85" y1="0" y2="100" gradientUnits="userSpaceOnUse">
            <stop stop-color="#fff" stop-opacity=".5"/>
            <stop offset=".484" stop-color="#fff" stop-opacity="0"/>
        </linearGradient>
    </defs>
</svg>
