<svg xmlns="http://www.w3.org/2000/svg" width="170" height="100" fill="none" viewBox="0 0 170 100">
    <rect width="169" height="99" x=".5" y=".5" fill="#fff" fill-opacity=".1" rx="49.5"/>
    <path fill="#F7E74D" d="M85.904 23.44c1.942 0 3.715.299 5.32.896 1.643.597 3.043 1.437 4.2 2.52 1.158 1.045 2.054 2.315 2.688 3.808.672 1.493 1.008 3.136 1.008 4.928-.037 1.456-.317 2.875-.84 4.256-.485 1.344-1.12 2.632-1.904 3.864-.784 1.232-1.68 2.427-2.688 3.584-.97 1.157-1.978 2.277-3.024 3.36l-8.68 8.736c.747-.187 1.456-.299 2.128-.336.71-.075 1.382-.112 2.016-.112h13.44V66H70.392v-4.48l14.056-13.832c2.128-2.128 3.808-4.107 5.04-5.936 1.232-1.83 1.848-3.827 1.848-5.992 0-1.941-.541-3.397-1.624-4.368-1.045-1.008-2.482-1.512-4.312-1.512-1.568 0-2.893.467-3.976 1.4-1.082.896-1.848 1.96-2.296 3.192-.149.41-.261.84-.336 1.288-.037.448-.074.952-.112 1.512l-7.336-1.232c.635-4.293 2.259-7.467 4.872-9.52 2.614-2.053 5.843-3.08 9.688-3.08z"/>
    <rect width="169" height="99" x=".5" y=".5" stroke="#4D4D4D" rx="49.5"/>
    <rect width="169" height="99" x=".5" y=".5" stroke="url(#paint0_linear)" rx="49.5"/>
    <defs>
        <linearGradient id="paint0_linear" x1="85" x2="85" y1="0" y2="100" gradientUnits="userSpaceOnUse">
            <stop stop-color="#fff" stop-opacity=".5"/>
            <stop offset=".484" stop-color="#fff" stop-opacity="0"/>
        </linearGradient>
    </defs>
</svg>
