<svg width="920" height="91" viewBox="0 0 920 91" fill="none" xmlns="http://www.w3.org/2000/svg">
<rect x="0.5" y="0.5" width="919" height="90" rx="45" fill="white" fill-opacity="0.05"/>
<path d="M371.486 35.448V38.136H381.374C381.246 39.736 380.99 41.24 380.606 42.648L370.014 43.32L370.462 46.168L379.614 45.272C377.918 48.824 374.878 51.832 369.822 54.36L371.614 56.92C382.11 51.64 384.638 44.088 384.638 35.448H371.486ZM396.478 43.96H392.094V32.536H388.798V61.432H392.094V46.712H396.478V43.96ZM422.395 46.2H405.659V37.784H422.171V35.096H402.363V48.856H422.395V46.2ZM399.163 55.032V57.752H425.371V55.032H399.163ZM456.428 39.064V42.04H449.356V44.6H456.428V47.224H459.724V32.568H456.428V36.504H450.444C450.604 35.672 450.668 34.776 450.668 33.848H437.74V36.504H447.02C446.572 40.536 443.02 43.704 436.172 45.176L437.324 47.864C443.692 46.424 447.948 43.48 449.74 39.064H456.428ZM444.268 58.552V55.896H459.724V48.408H440.908V51.032H456.428V53.432H440.972V61.208H460.524V58.552H444.268ZM473.994 38.424H478.762V35.704H465.706V38.424H470.794V40.504C470.794 45.656 468.874 50.872 464.778 53.432L466.762 55.864C469.546 54.104 471.402 51 472.426 47.352C473.45 50.712 475.242 53.56 477.962 55.16L479.882 52.76C475.85 50.424 473.994 45.432 473.994 40.504V38.424ZM480.906 42.712H476.65V45.4H480.906V60.056H484.01V33.112H480.906V42.712ZM486.73 32.536V61.432H489.866V32.536H486.73ZM503.079 52.536C500.743 52.536 499.047 50.936 499.047 48.504C499.047 46.072 500.743 44.472 503.079 44.472C505.415 44.472 507.111 46.072 507.111 48.504C507.111 50.936 505.415 52.536 503.079 52.536ZM503.079 41.752C498.919 41.752 495.911 44.568 495.911 48.504C495.911 52.472 498.919 55.256 503.079 55.256C507.207 55.256 510.247 52.472 510.247 48.504C510.247 44.568 507.207 41.752 503.079 41.752ZM504.679 33.016H501.383V37.016H494.503V39.704H511.431V37.016H504.679V33.016ZM521.543 44.184H517.095V32.568H513.767V61.496H517.095V46.936H521.543V44.184ZM525.733 35.608V38.296H536.037C535.461 44.952 531.877 50.04 524.293 53.688L526.053 56.312C535.973 51.512 539.429 44.216 539.429 35.608H525.733ZM544.645 32.568V61.464H547.941V32.568H544.645Z" fill="#EADA22"/>
<rect x="0.5" y="0.5" width="919" height="90" rx="45" stroke="#4D4D4D"/>
<rect x="0.5" y="0.5" width="919" height="90" rx="45" stroke="url(#paint0_linear)"/>
<defs>
<linearGradient id="paint0_linear" x1="460" y1="0" x2="460" y2="91" gradientUnits="userSpaceOnUse">
<stop stop-color="white" stop-opacity="0.5"/>
<stop offset="0.484375" stop-color="white" stop-opacity="0"/>
</linearGradient>
</defs>
</svg>
