<svg width="420" height="91" viewBox="0 0 420 91" fill="none" xmlns="http://www.w3.org/2000/svg">
<rect x="0.5" y="0.5" width="419" height="90" rx="45" fill="white" fill-opacity="0.1"/>
<path d="M75.4958 42.176C75.4958 39.648 77.3518 37.984 79.9118 37.984C82.4078 37.984 84.2638 39.648 84.2638 42.176C84.2638 44.672 82.4078 46.336 79.9118 46.336C77.3518 46.336 75.4958 44.672 75.4958 42.176ZM92.6158 40.224V44.128H87.1118C87.3038 43.52 87.3998 42.88 87.3998 42.176C87.3998 41.472 87.3038 40.832 87.1438 40.224H92.6158ZM92.6158 46.784V50.592H95.9118V33.536H92.6158V37.536H85.6398C84.2958 36.096 82.2798 35.2 79.9118 35.2C75.5918 35.2 72.3598 38.08 72.3598 42.176C72.3598 46.24 75.5918 49.12 79.9118 49.12C82.2478 49.12 84.2958 48.256 85.6398 46.784H92.6158ZM86.2798 59.872C82.1838 59.872 79.7838 58.816 79.7838 56.832C79.7838 54.912 82.1838 53.824 86.2798 53.824C90.4078 53.824 92.7758 54.912 92.7758 56.832C92.7758 58.816 90.4078 59.872 86.2798 59.872ZM86.2798 51.232C80.2638 51.232 76.5518 53.312 76.5518 56.832C76.5518 60.384 80.2638 62.464 86.2798 62.464C92.2958 62.464 96.0398 60.384 96.0398 56.832C96.0398 53.312 92.2958 51.232 86.2798 51.232ZM126.405 44.224C120.581 43.392 116.229 39.776 116.229 36.032V34.496H112.741V36.032C112.741 39.84 108.453 43.392 102.565 44.224L103.845 46.88C108.645 46.112 112.645 43.712 114.501 40.352C116.389 43.68 120.325 46.112 125.125 46.88L126.405 44.224ZM127.525 49.6H101.413V52.288H112.741V62.496H116.037V52.288H127.525V49.6ZM133.315 45.664C138.371 45.12 142.339 43.04 143.907 40.064C145.443 43.04 149.379 45.12 154.499 45.664L155.651 43.104C150.275 42.56 146.531 40.256 146.115 37.632H154.595V34.976H133.251V37.632H141.667C141.251 40.256 137.507 42.56 132.131 43.104L133.315 45.664ZM143.843 59.872C139.619 59.872 137.251 58.944 137.251 57.184C137.251 55.392 139.619 54.464 143.843 54.464C148.067 54.464 150.467 55.392 150.467 57.184C150.467 58.944 148.067 59.872 143.843 59.872ZM143.843 51.872C137.667 51.872 133.891 53.824 133.891 57.184C133.891 60.544 137.667 62.464 143.843 62.464C150.051 62.464 153.795 60.544 153.795 57.184C153.795 53.824 150.051 51.872 143.843 51.872ZM130.819 47.136V49.792H156.963V47.136H130.819ZM178.836 46.176H171.764V41.856H178.836V46.176ZM182.1 35.168H178.836V39.264H171.764V35.168H168.468V48.8H182.1V35.168ZM174.932 54.528H190.228V51.904H171.636V62.08H190.772V59.456H174.932V54.528ZM190.036 40.352V33.568H186.74V50.464H190.036V43.072H194.132V40.352H190.036ZM207.569 39.168H214.001V36.448H197.809V39.168H204.241V41.92C204.241 46.88 201.265 52.256 196.785 54.336L198.673 56.96C202.065 55.328 204.657 51.904 205.937 47.872C207.281 51.616 209.873 54.752 213.233 56.224L215.057 53.632C210.545 51.712 207.569 46.72 207.569 41.92V39.168ZM217.361 33.568V62.464H220.689V33.568H217.361ZM237.09 41.824C237.09 39.424 238.978 37.792 241.474 37.792C243.97 37.792 245.858 39.424 245.858 41.824C245.858 44.192 243.97 45.824 241.474 45.824C238.978 45.824 237.09 44.192 237.09 41.824ZM249.058 41.824C249.058 37.888 245.826 35.104 241.474 35.104C237.122 35.104 233.89 37.888 233.89 41.824C233.89 45.728 237.122 48.544 241.474 48.544C245.826 48.544 249.058 45.728 249.058 41.824ZM239.522 50.848H236.322V61.728H237.826C240.162 61.728 242.658 61.6 245.282 60.704L244.738 58.08C243.01 58.656 241.186 58.912 239.522 59.008V50.848ZM251.49 60.192C250.018 60.192 248.93 59.52 248.93 58.4C248.93 57.248 250.018 56.608 251.49 56.608C252.93 56.608 254.018 57.248 254.018 58.4C254.018 59.52 252.93 60.192 251.49 60.192ZM251.49 54.304C248.29 54.304 246.018 55.904 246.018 58.4C246.018 60.896 248.29 62.496 251.49 62.496C254.658 62.496 256.93 60.896 256.93 58.4C256.93 55.904 254.658 54.304 251.49 54.304ZM253.09 48.64H249.89V51.008H244.226V53.408H258.722V51.008H253.09V48.64ZM256.098 39.84V33.568H252.802V47.872H256.098V42.56H260.194V39.84H256.098ZM276.032 36.48C280.512 36.48 282.912 37.344 282.912 39.008C282.912 40.64 280.512 41.504 276.032 41.504C271.552 41.504 269.152 40.64 269.152 39.008C269.152 37.344 271.552 36.48 276.032 36.48ZM276.032 43.968C282.496 43.968 286.336 42.208 286.336 39.008C286.336 35.776 282.496 34.016 276.032 34.016C269.536 34.016 265.728 35.776 265.728 39.008C265.728 42.208 269.536 43.968 276.032 43.968ZM269.376 57.28H285.824V50.368H266.048V52.864H282.592V54.944H266.112V62.208H286.656V59.68H269.376V57.28ZM262.944 45.664V48.288H289.12V45.664H262.944ZM296.477 47.168H304.093V36.544H293.245V39.232H300.925V44.512H293.309V55.776H295.261C298.813 55.776 302.013 55.68 305.885 55.008L305.597 52.32C302.301 52.864 299.485 53.024 296.477 53.056V47.168ZM313.917 33.568V44.736H310.493V34.144H307.389V61.024H310.493V47.424H313.917V62.432H317.053V33.568H313.917ZM331.259 49.952C332.379 50.208 333.627 50.336 334.907 50.336C336.187 50.336 337.435 50.208 338.555 49.92V56.224H331.259V49.952ZM334.907 37.824C339.259 37.824 342.299 39.744 342.299 42.784C342.299 45.856 339.259 47.776 334.907 47.776C330.523 47.776 327.483 45.856 327.483 42.784C327.483 39.744 330.523 37.824 334.907 37.824ZM341.851 56.224V48.704C344.155 47.392 345.531 45.344 345.531 42.784C345.531 38.176 341.051 35.232 334.907 35.232C328.731 35.232 324.283 38.176 324.283 42.784C324.283 45.344 325.659 47.424 327.963 48.704V56.224H321.851V58.912H348.027V56.224H341.851Z" fill="white"/>
<rect x="0.5" y="0.5" width="419" height="90" rx="45" stroke="#4D4D4D"/>
<rect x="0.5" y="0.5" width="419" height="90" rx="45" stroke="url(#paint0_linear)"/>
<defs>
<linearGradient id="paint0_linear" x1="210" y1="0" x2="210" y2="91" gradientUnits="userSpaceOnUse">
<stop stop-color="white" stop-opacity="0.5"/>
<stop offset="0.484375" stop-color="white" stop-opacity="0"/>
</linearGradient>
</defs>
</svg>
