<svg xmlns="http://www.w3.org/2000/svg" width="254" height="91" fill="none" viewBox="0 0 254 91">
    <rect width="253" height="90" x=".5" y=".5" fill="#fff" fill-opacity=".1" rx="45"/>
    <path fill="#fff" d="M74.39 52.568c-2.783 0-4.735-3.008-4.735-7.68 0-4.64 1.952-7.648 4.736-7.648 2.752 0 4.704 3.008 4.704 7.648 0 4.672-1.952 7.68-4.704 7.68zm0-17.696c-4.223 0-7.231 3.904-7.231 10.016s3.008 10.016 7.232 10.016 7.2-3.904 7.2-10.016-2.976-10.016-7.2-10.016zM93.56 44.12h-4.736V32.696h-2.624v28.672h2.624v-15.04h4.736V44.12zm23.485-11.456v28.768h2.624V32.664h-2.624zm-12.512 2.208c-4.256 0-7.296 3.904-7.296 10.016s3.04 10.016 7.296 10.016 7.296-3.904 7.296-10.016-3.04-10.016-7.296-10.016zm0 2.368c2.784 0 4.768 3.008 4.768 7.648 0 4.672-1.984 7.68-4.768 7.68-2.816 0-4.8-3.008-4.8-7.68 0-4.64 1.984-7.648 4.8-7.648zm30.834 10.592c4.448-.672 8.576-2.88 10.4-5.984 1.824 3.104 5.92 5.312 10.368 5.984l.928-2.112c-5.12-.704-9.984-3.872-9.984-7.392h9.152v-2.112h-9.152v-3.552h-2.624v3.552h-9.152v2.112h9.12c0 3.552-4.832 6.688-10.016 7.392l.96 2.112zm23.392 2.176h-25.952v2.144h11.648V61.4h2.624v-9.248h11.68v-2.144zm4.99-14.272v2.176h10.528c-.608 6.784-4.544 12.288-11.872 15.968l1.44 2.048c9.28-4.64 13.024-12.032 13.024-20.192h-13.12zm25.152 8.576h-4.608V32.664h-2.624v28.704h2.624v-14.88h4.608v-2.176z"/>
    <rect width="253" height="90" x=".5" y=".5" stroke="#4D4D4D" rx="45"/>
    <rect width="253" height="90" x=".5" y=".5" stroke="url(#paint0_linear)" rx="45"/>
    <defs>
        <linearGradient id="paint0_linear" x1="127" x2="127" y1="0" y2="91" gradientUnits="userSpaceOnUse">
            <stop stop-color="#fff" stop-opacity=".5"/>
            <stop offset=".484" stop-color="#fff" stop-opacity="0"/>
        </linearGradient>
    </defs>
</svg>
