<svg xmlns="http://www.w3.org/2000/svg" width="534" height="91" fill="none" viewBox="0 0 534 91">
    <rect width="533" height="90" x=".5" y=".5" fill="#fff" fill-opacity=".05" rx="45"/>
    <path fill="#fff" d="M244.271 39.576c0-1.984 1.696-3.264 4.096-3.264 2.432 0 4.064 1.28 4.064 3.264 0 2.016-1.632 3.296-4.064 3.296-2.4 0-4.096-1.28-4.096-3.296zm13.056 7.456c-2.304.352-4.8.544-7.264.704V45.24c3.264-.544 5.44-2.72 5.44-5.664 0-3.424-2.944-5.76-7.136-5.76s-7.168 2.336-7.168 5.76c0 2.976 2.24 5.152 5.568 5.664v2.624c-2.592.096-5.056.096-7.136.096l.416 2.688c4.832 0 11.552-.096 17.504-1.216l-.224-2.4zm-10.4 5.76h-3.296v8.096h19.68v-2.656h-16.384v-5.44zm15.392-10.752V32.6h-3.296v22.08h3.296v-9.92h3.968v-2.72h-3.968zm17.085 8.32h5.92v4.992h-5.92V50.36zm9.184 4.992V50.36h4.256v-2.656h-17.312v-4h16.672v-9.12h-19.968v2.656h16.704v3.84H272.3v9.28h3.84v4.992h-7.008v2.72h26.176v-2.72h-6.72z"/>
    <rect width="533" height="90" x=".5" y=".5" stroke="#4D4D4D" rx="45"/>
    <rect width="533" height="90" x=".5" y=".5" stroke="url(#paint0_linear)" rx="45"/>
    <defs>
        <linearGradient id="paint0_linear" x1="267" x2="267" y1="0" y2="91" gradientUnits="userSpaceOnUse">
            <stop stop-color="#fff" stop-opacity=".5"/>
            <stop offset=".484" stop-color="#fff" stop-opacity="0"/>
        </linearGradient>
    </defs>
</svg>
