<svg xmlns="http://www.w3.org/2000/svg" width="300" height="270" fill="none" viewBox="0 0 300 270">
    <rect width="69" height="69" x="115.5" y="67.5" fill="#fff" fill-opacity=".15" rx="34.5"/>
    <path fill="#EADA22" d="M146.952 105.968H135.64v-5.824h11.312V88.216h6.104v11.928h11.312v5.824h-11.312v11.928h-6.104v-11.928z"/>
    <rect width="69" height="69" x="115.5" y="67.5" stroke="#4D4D4D" rx="34.5"/>
    <rect width="69" height="69" x="115.5" y="67.5" stroke="url(#paint0_linear)" rx="34.5"/>
    <path fill="#fff" d="M64.12 191.48h14.755v-6.244h-17.64v2.24H76.02v1.904H61.291v6.468h18.452v-2.24H64.12v-2.128zm14.027-10.528c.532-2.772.532-4.984.532-6.972v-2.044H61.515v2.268h14.336c0 .644 0 1.288-.028 1.988l-14.98.448.336 2.212 14.504-.616c-.084.84-.196 1.736-.42 2.716H58.66v2.296h22.792v-2.296h-3.304zm9.798 1.82h6.664v-9.296h-9.492v2.352h6.72v4.62h-6.664v9.856h1.708c3.108 0 5.908-.084 9.296-.672l-.252-2.352c-2.884.476-5.348.616-7.98.644v-5.152zm15.26-11.9v9.772h-2.996v-9.268h-2.716v23.52h2.716v-11.9h2.996v13.132h2.744v-25.256h-2.744zm28.866 12.348c-4.984-.896-9.044-4.788-9.044-8.82v-1.904h-3.052v1.904c0 4.004-4.06 7.896-9.044 8.82l1.232 2.38c4.116-.84 7.672-3.472 9.324-6.944 1.652 3.472 5.208 6.104 9.324 6.944l1.26-2.38zm-21.924 7.308v2.38h22.904v-2.38h-22.904zm50.107-.84h2.884v-18.816h-2.884v5.684h-5.124v2.38h5.124v10.752zm-3.136-6.216c-3.78-1.372-5.908-4.648-5.908-8.064v-2.996h-2.94v2.94c0 3.752-2.184 7.308-6.132 8.708l1.54 2.24c2.912-1.12 5.012-3.36 6.132-6.188 1.064 2.548 3.052 4.592 5.768 5.6l1.54-2.24zm-7.532 9.856V187.7h-2.912v7.98h17.052v-2.352h-14.14zm29.957-11.228c-2.492.476-4.648.588-7.84.616v-2.828h6.776v-2.24h-6.776v-2.66h7.056v-2.324h-9.856v12.404h1.708c3.92 0 6.328-.084 9.24-.616l-.308-2.352zm-7.364 7.7h14.28v6.384h2.884v-8.708h-17.164v2.324zm14.42-18.928v6.412h-2.8v-5.936h-2.688v14.728h2.688v-6.44h2.8v6.608h2.744v-15.372h-2.744zm14.474 17.472c-2.044 0-3.528-1.4-3.528-3.528s1.484-3.528 3.528-3.528 3.528 1.4 3.528 3.528-1.484 3.528-3.528 3.528zm0-9.436c-3.64 0-6.272 2.464-6.272 5.908 0 3.472 2.632 5.908 6.272 5.908 3.612 0 6.272-2.436 6.272-5.908 0-3.444-2.66-5.908-6.272-5.908zm1.4-7.644h-2.884v3.5h-6.02v2.352h14.812v-2.352h-5.908v-3.5zm14.756 9.772h-3.892v-10.164h-2.912v25.312h2.912v-12.74h3.892v-2.408zm3.666-7.504v2.352h9.016c-.504 5.824-3.64 10.276-10.276 13.468l1.54 2.296c8.68-4.2 11.704-10.584 11.704-18.116h-11.984zm16.548-2.66v25.284h2.884v-25.284h-2.884z"/>
    <rect width="298" height="268" x="1" y="1" stroke="#fff" stroke-dasharray="5 15" stroke-linecap="square" stroke-linejoin="round" stroke-opacity=".5" stroke-width="2" rx="9"/>
    <defs>
        <linearGradient id="paint0_linear" x1="150" x2="150" y1="67" y2="137" gradientUnits="userSpaceOnUse">
            <stop stop-color="#fff" stop-opacity=".5"/>
            <stop offset=".484" stop-color="#fff" stop-opacity="0"/>
        </linearGradient>
    </defs>
</svg>
