<svg xmlns="http://www.w3.org/2000/svg" width="534" height="91" fill="none" viewBox="0 0 534 91">
    <rect width="533" height="90" x=".5" y=".5" fill="#fff" fill-opacity=".1" rx="45"/>
    <path fill="#EADA22" d="M246.674 38.004c0-1.736 1.484-2.856 3.584-2.856 2.128 0 3.556 1.12 3.556 2.856 0 1.764-1.428 2.884-3.556 2.884-2.1 0-3.584-1.12-3.584-2.884zm11.424 6.524c-2.016.308-4.2.476-6.356.616V42.96c2.856-.476 4.76-2.38 4.76-4.956 0-2.996-2.576-5.04-6.244-5.04-3.668 0-6.272 2.044-6.272 5.04 0 2.604 1.96 4.508 4.872 4.956v2.296c-2.268.084-4.424.084-6.244.084l.364 2.352c4.228 0 10.108-.084 15.316-1.064l-.196-2.1zm-9.1 5.04h-2.884v7.084h17.22v-2.324h-14.336v-4.76zm13.468-9.408V31.9h-2.884v19.32h2.884v-8.68h3.472v-2.38h-3.472zm14.95 7.28h5.18v4.368h-5.18V47.44zm8.036 4.368V47.44h3.724v-2.324h-15.148v-3.5h14.588v-7.98h-17.472v2.324h14.616v3.36H271.2v8.12h3.36v4.368h-6.132v2.38h22.904v-2.38h-5.88z"/>
    <rect width="533" height="90" x=".5" y=".5" stroke="#4D4D4D" rx="45"/>
    <rect width="533" height="90" x=".5" y=".5" stroke="url(#paint0_linear)" rx="45"/>
    <defs>
        <linearGradient id="paint0_linear" x1="267" x2="267" y1="0" y2="91" gradientUnits="userSpaceOnUse">
            <stop stop-color="#fff" stop-opacity=".5"/>
            <stop offset=".484" stop-color="#fff" stop-opacity="0"/>
        </linearGradient>
    </defs>
</svg>
