<svg xmlns="http://www.w3.org/2000/svg" width="170" height="100" fill="none" viewBox="0 0 170 100">
    <rect width="169" height="99" x=".5" y=".5" fill="#fff" fill-opacity=".1" rx="49.5"/>
    <path fill="#F7E74D" d="M100.52 45.554c0 3.696-.392 6.907-1.176 9.632-.784 2.688-1.885 4.928-3.304 6.72-1.381 1.755-3.024 3.061-4.928 3.92s-3.976 1.288-6.216 1.288c-2.202 0-4.237-.43-6.104-1.288-1.866-.859-3.509-2.165-4.928-3.92-1.381-1.792-2.464-4.032-3.248-6.72-.784-2.725-1.176-5.936-1.176-9.632 0-3.733.392-6.944 1.176-9.632.784-2.725 1.867-4.965 3.248-6.72 1.419-1.792 3.062-3.117 4.928-3.976 1.867-.859 3.902-1.288 6.104-1.288 2.24 0 4.312.43 6.216 1.288 1.904.859 3.547 2.184 4.928 3.976 1.419 1.755 2.52 3.995 3.304 6.72.784 2.688 1.176 5.899 1.176 9.632zm-7.84 0c0-2.987-.224-5.45-.672-7.392-.41-1.979-.97-3.528-1.68-4.648-.709-1.157-1.549-1.96-2.52-2.408-.933-.485-1.904-.728-2.912-.728-.97 0-1.922.243-2.856.728-.896.448-1.698 1.25-2.408 2.408-.709 1.12-1.288 2.67-1.736 4.648-.41 1.941-.616 4.405-.616 7.392s.206 5.45.616 7.392c.448 1.904 1.027 3.435 1.736 4.592.71 1.157 1.512 1.96 2.408 2.408.934.448 1.886.672 2.856.672 1.008 0 1.979-.224 2.912-.672.971-.448 1.811-1.25 2.52-2.408.71-1.157 1.27-2.688 1.68-4.592.448-1.941.672-4.405.672-7.392z"/>
    <rect width="169" height="99" x=".5" y=".5" stroke="#4D4D4D" rx="49.5"/>
    <rect width="169" height="99" x=".5" y=".5" stroke="url(#paint0_linear)" rx="49.5"/>
    <defs>
        <linearGradient id="paint0_linear" x1="85" x2="85" y1="0" y2="100" gradientUnits="userSpaceOnUse">
            <stop stop-color="#fff" stop-opacity=".5"/>
            <stop offset=".484" stop-color="#fff" stop-opacity="0"/>
        </linearGradient>
    </defs>
</svg>
