<svg xmlns="http://www.w3.org/2000/svg" width="170" height="100" fill="none" viewBox="0 0 170 100">
    <rect width="169" height="99" x=".5" y=".5" fill="#fff" fill-opacity=".05" rx="49.5"/>
    <path fill="#fff" d="M31.205 41.976h10.144v-2.688h-13.44v19.104h2.368c5.216 0 9.12-.16 13.504-.96l-.352-2.72c-4.032.704-7.552.896-12.224.928V41.976zm22.432 5.696h-4.512V36.536h-3.296v28.96h3.296V50.392h4.512v-2.72zm13.213-8.704h-3.295v4.736c0 5.568-3.008 11.104-7.617 13.184l1.953 2.752c3.488-1.696 6.047-5.12 7.36-9.312 1.311 3.904 3.84 7.104 7.167 8.672l1.92-2.624c-4.543-2.048-7.487-7.36-7.487-12.672v-4.736zm9.793-2.432v28.992h3.328V36.536h-3.329zm29.501.032v15.52h3.296v-15.52h-3.296zM90.56 53.432v11.68h18.88v-11.68h-3.264v3.2H93.824v-3.2H90.56zm3.264 5.76h12.352v3.264H93.824v-3.264zm.032-21.312c-4.416 0-7.68 2.752-7.68 6.72s3.264 6.72 7.68 6.72 7.648-2.752 7.648-6.72-3.232-6.72-7.648-6.72zm0 2.72c2.592 0 4.448 1.6 4.448 4 0 2.432-1.856 4-4.448 4-2.624 0-4.448-1.568-4.448-4 0-2.4 1.824-4 4.448-4zm36.222 9.344c-3.136.544-5.792.672-10.624.672v-3.744h9.248v-8.64h-12.544v2.656h9.28v3.456h-9.216v8.96h2.112c5.664 0 8.608-.096 12.096-.704l-.352-2.656zm-10.624 8.544h16.256v7.04h3.296V55.8h-19.552v2.688zm16.256-21.92v4.16h-5.184v2.656h5.184v3.392h-5.184v2.656h5.184v4.928h3.296V36.568h-3.296z"/>
    <rect width="169" height="99" x=".5" y=".5" stroke="#4D4D4D" rx="49.5"/>
    <rect width="169" height="99" x=".5" y=".5" stroke="url(#paint0_linear)" rx="49.5"/>
    <defs>
        <linearGradient id="paint0_linear" x1="85" x2="85" y1="0" y2="100" gradientUnits="userSpaceOnUse">
            <stop stop-color="#fff" stop-opacity=".5"/>
            <stop offset=".484" stop-color="#fff" stop-opacity="0"/>
        </linearGradient>
    </defs>
</svg>
