<svg width="170" height="100" viewBox="0 0 170 100" fill="none" xmlns="http://www.w3.org/2000/svg">
<rect x="0.5" y="0.5" width="169" height="99" rx="49.5" fill="white" fill-opacity="0.05"/>
<path d="M61.8145 43.448C61.8145 41.656 63.1905 40.632 65.2065 40.632C67.2225 40.632 68.6625 41.656 68.6625 43.448C68.6625 45.24 67.2225 46.264 65.2065 46.264C63.1905 46.264 61.8145 45.24 61.8145 43.448ZM74.0385 50.744C71.9265 51.064 69.6225 51.224 67.3505 51.352V49.24C70.4865 48.536 72.5665 46.328 72.5665 43.448C72.5665 39.928 69.4945 37.464 65.2065 37.464C60.9505 37.464 57.8785 39.928 57.8785 43.448C57.8785 46.36 59.9905 48.568 63.1265 49.24V51.512C60.6945 51.576 58.3585 51.576 56.3425 51.576L56.8545 54.936C61.7185 54.936 68.3425 54.84 74.2945 53.72L74.0385 50.744ZM64.4065 56.856H60.1825V65.24H80.7905V61.88H64.4065V56.856ZM79.7985 45.528V36.28H75.5745V58.776H79.7985V49.016H83.5105V45.528H79.7985ZM96.788 54.552H101.94V59.064H96.788V54.552ZM106.1 59.064V54.552H110.228V51.192H93.14V47.96H109.556V38.168H88.916V41.528H105.396V44.664H88.948V54.552H92.628V59.064H85.844V62.52H112.564V59.064H106.1Z" fill="#F7E74D"/>
<rect x="0.5" y="0.5" width="169" height="99" rx="49.5" stroke="#4D4D4D"/>
<rect x="0.5" y="0.5" width="169" height="99" rx="49.5" stroke="url(#paint0_linear)"/>
<defs>
<linearGradient id="paint0_linear" x1="85" y1="0" x2="85" y2="100" gradientUnits="userSpaceOnUse">
<stop stop-color="white" stop-opacity="0.5"/>
<stop offset="0.484375" stop-color="white" stop-opacity="0"/>
</linearGradient>
</defs>
</svg>
