<svg width="455" height="91" viewBox="0 0 455 91" fill="none" xmlns="http://www.w3.org/2000/svg">
<rect x="1.5" y="1.5" width="452" height="88" rx="44" fill="#EADA22"/>
<rect x="1.5" y="1.5" width="452" height="88" rx="44" fill="url(#paint0_linear)" fill-opacity="0.6"/>
<path d="M111.481 37.336H108.597V53.856H110.697C114.505 53.856 118.425 53.576 122.709 52.736L122.373 50.356C118.537 51.14 114.897 51.42 111.481 51.448V37.336ZM131.137 44.728H127.301V34.872H124.417V60.156H127.301V47.108H131.137V44.728ZM135.643 45.26C140.067 44.784 143.539 42.964 144.911 40.36C146.255 42.964 149.727 44.784 154.179 45.26L155.187 42.992C150.511 42.516 147.263 40.556 146.871 38.288H154.263V35.964H135.587V38.288H142.923C142.531 40.556 139.283 42.516 134.607 42.992L135.643 45.26ZM150.651 55.676C150.651 57.132 148.551 57.944 144.855 57.944C141.159 57.944 139.087 57.132 139.087 55.676C139.087 54.164 141.159 53.38 144.855 53.38C148.551 53.38 150.651 54.164 150.651 55.676ZM156.335 48.844V46.548H133.459V48.844H143.455V51.168C138.863 51.448 136.147 53.044 136.147 55.676C136.147 58.532 139.423 60.156 144.855 60.156C150.315 60.156 153.563 58.532 153.563 55.676C153.563 53.044 150.903 51.476 146.339 51.196V48.844H156.335ZM164.928 52.064C163.192 52.064 162.128 49.796 162.128 45.792C162.128 41.788 163.192 39.548 164.928 39.548C166.664 39.548 167.728 41.788 167.728 45.792C167.728 49.796 166.664 52.064 164.928 52.064ZM173.02 44.448H170.304C169.996 39.716 167.952 36.832 164.928 36.832C161.652 36.832 159.496 40.248 159.496 45.792C159.496 51.336 161.652 54.78 164.928 54.78C168.008 54.78 170.08 51.756 170.332 46.828H173.02V58.952H175.708V35.348H173.02V44.448ZM178.088 34.872V60.128H180.832V34.872H178.088ZM198.991 40.024H203.219V37.644H191.627V40.024H196.191V41.424C196.191 46.436 194.595 50.832 190.927 52.96L192.691 55.116C195.183 53.632 196.807 51.056 197.675 47.836C198.599 50.636 200.167 52.932 202.575 54.248L204.255 52.036C200.587 50.132 198.991 45.988 198.991 41.424V40.024ZM210.247 34.844V44.84H207.475V35.32H204.759V58.98H207.475V47.22H210.247V60.156H212.991V34.844H210.247ZM234.997 34.872V48.452H237.881V34.872H234.997ZM221.361 49.628V59.848H237.881V49.628H235.025V52.428H224.217V49.628H221.361ZM224.217 54.668H235.025V57.524H224.217V54.668ZM224.245 36.02C220.381 36.02 217.525 38.428 217.525 41.9C217.525 45.372 220.381 47.78 224.245 47.78C228.109 47.78 230.937 45.372 230.937 41.9C230.937 38.428 228.109 36.02 224.245 36.02ZM224.245 38.4C226.513 38.4 228.137 39.8 228.137 41.9C228.137 44.028 226.513 45.4 224.245 45.4C221.949 45.4 220.353 44.028 220.353 41.9C220.353 39.8 221.949 38.4 224.245 38.4ZM257.647 46.772C253.783 45.54 251.683 42.6 251.683 39.464V38.988H256.975V36.664H243.395V38.988H248.771V39.492C248.771 42.936 246.559 46.184 242.583 47.556L244.039 49.824C247.063 48.788 249.191 46.632 250.311 43.944C251.403 46.296 253.419 48.116 256.247 49.012L257.647 46.772ZM254.399 57.888C250.871 57.888 248.827 56.992 248.827 55.368C248.827 53.716 250.871 52.848 254.399 52.848C257.927 52.848 259.971 53.716 259.971 55.368C259.971 56.992 257.927 57.888 254.399 57.888ZM254.399 50.58C249.191 50.58 245.971 52.344 245.971 55.368C245.971 58.364 249.191 60.156 254.399 60.156C259.607 60.156 262.827 58.364 262.827 55.368C262.827 52.344 259.607 50.58 254.399 50.58ZM262.547 41.032V34.872H259.663V49.992H262.547V43.412H266.131V41.032H262.547ZM289.806 37H283.786V34.62H280.902V37H274.882V39.184H289.806V37ZM278.97 44.224C278.97 42.908 280.286 42.152 282.33 42.152C284.402 42.152 285.718 42.908 285.718 44.224C285.718 45.512 284.402 46.268 282.33 46.268C280.286 46.268 278.97 45.512 278.97 44.224ZM288.462 44.224C288.462 41.648 286.054 40.052 282.33 40.052C278.634 40.052 276.198 41.648 276.198 44.224C276.198 46.772 278.634 48.34 282.33 48.34C286.054 48.34 288.462 46.772 288.462 44.224ZM281.154 55.788H294.594V49.824H278.27V51.952H291.738V53.772H278.326V59.932H295.434V57.776H281.154V55.788ZM294.594 40.584V34.816H291.71V48.676H294.594V42.964H298.178V40.584H294.594ZM304.168 46.772H310.832V37.476H301.34V39.828H308.06V44.448H301.396V54.304H303.104C306.212 54.304 309.012 54.22 312.4 53.632L312.148 51.28C309.264 51.756 306.8 51.896 304.168 51.924V46.772ZM319.428 34.872V44.644H316.432V35.376H313.716V58.896H316.432V46.996H319.428V60.128H322.172V34.872H319.428ZM334.601 49.208C335.581 49.432 336.673 49.544 337.793 49.544C338.913 49.544 340.005 49.432 340.985 49.18V54.696H334.601V49.208ZM337.793 38.596C341.601 38.596 344.261 40.276 344.261 42.936C344.261 45.624 341.601 47.304 337.793 47.304C333.957 47.304 331.297 45.624 331.297 42.936C331.297 40.276 333.957 38.596 337.793 38.596ZM343.869 54.696V48.116C345.885 46.968 347.089 45.176 347.089 42.936C347.089 38.904 343.169 36.328 337.793 36.328C332.389 36.328 328.497 38.904 328.497 42.936C328.497 45.176 329.701 46.996 331.717 48.116V54.696H326.369V57.048H349.273V54.696H343.869Z" fill="black"/>
<rect x="1.5" y="1.5" width="452" height="88" rx="44" stroke="url(#paint1_linear)" stroke-width="3"/>
<defs>
<linearGradient id="paint0_linear" x1="99.2181" y1="28.5409" x2="106.733" y2="107.068" gradientUnits="userSpaceOnUse">
<stop stop-color="#AC9F0C"/>
<stop offset="0.707988" stop-color="#EADA22" stop-opacity="0"/>
</linearGradient>
<linearGradient id="paint1_linear" x1="227.5" y1="0" x2="227.5" y2="91" gradientUnits="userSpaceOnUse">
<stop stop-color="white" stop-opacity="0.7"/>
<stop offset="1" stop-color="#CEC01D"/>
</linearGradient>
</defs>
</svg>
