<svg xmlns="http://www.w3.org/2000/svg" width="534" height="91" fill="none" viewBox="0 0 534 91">
    <rect width="533" height="90" x=".5" y=".5" fill="#fff" fill-opacity=".1" rx="45"/>
    <path fill="#fff" d="M181.119 52.48h14.756v-6.244h-17.64v2.24h14.784v1.904h-14.728v6.468h18.452v-2.24h-15.624V52.48zm14.028-10.528c.532-2.772.532-4.984.532-6.972v-2.044h-17.164v2.268h14.336c0 .644 0 1.288-.028 1.988l-14.98.448.336 2.212 14.504-.616c-.084.84-.196 1.736-.42 2.716h-16.604v2.296h22.792v-2.296h-3.304zm9.798 1.82h6.664v-9.296h-9.492v2.352h6.72v4.62h-6.664v9.856h1.708c3.108 0 5.908-.084 9.296-.672l-.252-2.352c-2.884.476-5.348.616-7.98.644v-5.152zm15.26-11.9v9.772h-2.996v-9.268h-2.716v23.52h2.716v-11.9h2.996v13.132h2.744V31.872h-2.744zm28.866 12.348c-4.984-.896-9.044-4.788-9.044-8.82v-1.904h-3.052V35.4c0 4.004-4.06 7.896-9.044 8.82l1.232 2.38c4.116-.84 7.672-3.472 9.324-6.944 1.652 3.472 5.208 6.104 9.324 6.944l1.26-2.38zm-21.924 7.308v2.38h22.904v-2.38h-22.904zm42.967-6.02c.14-.84.196-1.708.196-2.688 0-.98-.056-1.876-.196-2.716h2.912v5.404h-2.912zm-5.236 3.556c-1.736 0-2.828-2.24-2.828-6.244s1.092-6.272 2.828-6.272c1.736 0 2.828 2.268 2.828 6.272 0 4.004-1.092 6.244-2.828 6.244zm8.148-11.34h-3.5c-.868-2.492-2.548-3.892-4.648-3.892-3.276 0-5.432 3.416-5.432 8.988 0 5.544 2.156 8.96 5.432 8.96 2.128 0 3.78-1.456 4.676-3.92h3.472v8.092h2.688V32.348h-2.688v5.376zm5.012-5.852v25.256h2.744V31.872h-2.744zm10.049 7.532c0-2.212 1.652-3.64 3.892-3.64 2.268 0 3.92 1.428 3.92 3.64s-1.652 3.64-3.92 3.64c-2.24 0-3.892-1.428-3.892-3.64zm10.64 0c0-3.584-2.884-6.076-6.748-6.076-3.836 0-6.72 2.492-6.72 6.076 0 3.584 2.884 6.076 6.72 6.076 3.864 0 6.748-2.492 6.748-6.076zm-10.668 10.892h13.748v6.888h2.884v-9.212h-16.632v2.324zm20.132-12.432v-2.38h-3.5v-3.612h-2.884v14.98h2.884v-3.556h3.5v-2.38h-3.5v-3.052h3.5zm9.882 11.48c-2.044 0-3.528-1.4-3.528-3.528s1.484-3.528 3.528-3.528 3.528 1.4 3.528 3.528-1.484 3.528-3.528 3.528zm0-9.436c-3.64 0-6.272 2.464-6.272 5.908 0 3.472 2.632 5.908 6.272 5.908 3.612 0 6.272-2.436 6.272-5.908 0-3.444-2.66-5.908-6.272-5.908zm1.4-7.644h-2.884v3.5h-6.02v2.352h14.812v-2.352h-5.908v-3.5zm14.756 9.772h-3.892V31.872h-2.912v25.312h2.912v-12.74h3.892v-2.408zm3.666-7.504v2.352h9.016c-.504 5.824-3.64 10.276-10.276 13.468l1.54 2.296c8.68-4.2 11.704-10.584 11.704-18.116h-11.984zm16.548-2.66v25.284h2.884V31.872h-2.884z"/>
    <rect width="533" height="90" x=".5" y=".5" stroke="#4D4D4D" rx="45"/>
    <rect width="533" height="90" x=".5" y=".5" stroke="url(#paint0_linear)" rx="45"/>
    <defs>
        <linearGradient id="paint0_linear" x1="267" x2="267" y1="0" y2="91" gradientUnits="userSpaceOnUse">
            <stop stop-color="#fff" stop-opacity=".5"/>
            <stop offset=".484" stop-color="#fff" stop-opacity="0"/>
        </linearGradient>
    </defs>
</svg>
