<svg width="100" height="52" viewBox="0 0 100 52" fill="none" xmlns="http://www.w3.org/2000/svg">
<rect x="0.5" y="0.5" width="99" height="51" rx="25.5" fill="white" fill-opacity="0.1"/>
<path d="M48.5657 25.154C44.5617 24.582 41.5697 22.096 41.5697 19.522V18.466H39.1717V19.522C39.1717 22.14 36.2237 24.582 32.1757 25.154L33.0557 26.98C36.3557 26.452 39.1057 24.802 40.3817 22.492C41.6797 24.78 44.3857 26.452 47.6857 26.98L48.5657 25.154ZM49.3357 28.85H31.3837V30.698H39.1717V37.716H41.4377V30.698H49.3357V28.85ZM62.292 22.822V24.67H65.812V29.664H68.078V17.828H65.812V22.822H62.292ZM63.436 27.244C60.466 26.21 58.772 23.746 58.772 21.26V20.996H62.908V19.17H52.282V20.996H56.484V21.282C56.484 24.01 54.702 26.65 51.622 27.75L52.788 29.554C55.142 28.718 56.814 26.958 57.694 24.78C58.53 26.694 60.114 28.256 62.314 29.026L63.436 27.244ZM61.478 35.956C58.64 35.956 57.034 35.252 57.034 33.954C57.034 32.656 58.64 31.952 61.478 31.952C64.272 31.952 65.9 32.656 65.9 33.954C65.9 35.252 64.272 35.956 61.478 35.956ZM61.478 30.192C57.32 30.192 54.768 31.6 54.768 33.954C54.768 36.33 57.32 37.716 61.478 37.716C65.614 37.716 68.166 36.33 68.166 33.954C68.166 31.6 65.614 30.192 61.478 30.192Z" fill="white"/>
<rect x="0.5" y="0.5" width="99" height="51" rx="25.5" stroke="#4D4D4D"/>
<rect x="0.5" y="0.5" width="99" height="51" rx="25.5" stroke="url(#paint0_linear)"/>
<defs>
<linearGradient id="paint0_linear" x1="50" y1="0" x2="50" y2="52" gradientUnits="userSpaceOnUse">
<stop stop-color="white" stop-opacity="0.5"/>
<stop offset="0.484375" stop-color="white" stop-opacity="0"/>
</linearGradient>
</defs>
</svg>
