<svg width="920" height="91" viewBox="0 0 920 91" fill="none" xmlns="http://www.w3.org/2000/svg">
<rect x="0.5" y="0.5" width="919" height="90" rx="45" fill="white" fill-opacity="0.05"/>
<path d="M404.457 32.568V48.088H407.753V32.568H404.457ZM388.873 49.432V61.112H407.753V49.432H404.489V52.632H392.137V49.432H388.873ZM392.137 55.192H404.489V58.456H392.137V55.192ZM392.169 33.88C387.753 33.88 384.489 36.632 384.489 40.6C384.489 44.568 387.753 47.32 392.169 47.32C396.585 47.32 399.817 44.568 399.817 40.6C399.817 36.632 396.585 33.88 392.169 33.88ZM392.169 36.6C394.761 36.6 396.617 38.2 396.617 40.6C396.617 43.032 394.761 44.6 392.169 44.6C389.545 44.6 387.721 43.032 387.721 40.6C387.721 38.2 389.545 36.6 392.169 36.6ZM430.342 46.168C425.926 44.76 423.526 41.4 423.526 37.816V37.272H429.574V34.616H414.054V37.272H420.198V37.848C420.198 41.784 417.67 45.496 413.126 47.064L414.79 49.656C418.246 48.472 420.678 46.008 421.958 42.936C423.206 45.624 425.51 47.704 428.742 48.728L430.342 46.168ZM426.63 58.872C422.598 58.872 420.262 57.848 420.262 55.992C420.262 54.104 422.598 53.112 426.63 53.112C430.662 53.112 432.998 54.104 432.998 55.992C432.998 57.848 430.662 58.872 426.63 58.872ZM426.63 50.52C420.678 50.52 416.998 52.536 416.998 55.992C416.998 59.416 420.678 61.464 426.63 61.464C432.582 61.464 436.262 59.416 436.262 55.992C436.262 52.536 432.582 50.52 426.63 50.52ZM435.942 39.608V32.568H432.646V49.848H435.942V42.328H440.038V39.608H435.942ZM457.604 48.184V50.776H463.62V54.392H466.916V32.568H463.62V48.184H457.604ZM450.5 52.536H453.796V46.104C456.356 45.912 458.98 45.624 461.508 45.176L461.252 42.84C460.26 42.968 459.236 43.096 458.244 43.192C458.819 39.512 458.819 36.824 458.819 35.256V34.168H445.252V36.856H455.556C455.492 38.456 455.364 40.632 454.884 43.448C450.564 43.736 446.18 43.768 442.596 43.8L443.044 46.424C445.284 46.424 447.844 46.392 450.5 46.264V52.536ZM450.02 58.232V52.088H446.724V60.92H467.588V58.232H450.02ZM490.805 45.176H483.733V40.856H490.805V45.176ZM494.069 34.168H490.805V38.264H483.733V34.168H480.437V47.8H494.069V34.168ZM486.901 53.528H502.197V50.904H483.605V61.08H502.741V58.456H486.901V53.528ZM502.005 39.352V32.568H498.709V49.464H502.005V42.072H506.101V39.352H502.005ZM510.514 35.608V38.296H520.818C520.242 44.952 516.658 50.04 509.074 53.688L510.834 56.312C520.754 51.512 524.21 44.216 524.21 35.608H510.514ZM529.426 32.568V61.464H532.722V32.568H529.426Z" fill="#EADA22"/>
<rect x="0.5" y="0.5" width="919" height="90" rx="45" stroke="#4D4D4D"/>
<rect x="0.5" y="0.5" width="919" height="90" rx="45" stroke="url(#paint0_linear)"/>
<defs>
<linearGradient id="paint0_linear" x1="460" y1="0" x2="460" y2="91" gradientUnits="userSpaceOnUse">
<stop stop-color="white" stop-opacity="0.5"/>
<stop offset="0.484375" stop-color="white" stop-opacity="0"/>
</linearGradient>
</defs>
</svg>
