<svg xmlns="http://www.w3.org/2000/svg" width="560" height="100" fill="none" viewBox="0 0 560 100">
    <rect width="559" height="99" x=".5" y=".5" fill="#fff" fill-opacity=".1" rx="49.5"/>
    <path fill="#EADA22" d="M259.916 36.784H248.72v-2.916h-3.744v2.916H233.6v2.844h26.316v-2.844zm-20.592 23.04h15.012v3.78h-15.012v-3.78zm-3.672 6.552h22.32v-9.36h-22.32v9.36zm4.464-21.06c0-1.44 2.304-2.088 6.732-2.088 4.392 0 6.732.648 6.732 2.088 0 1.404-2.34 2.088-6.732 2.088-4.428 0-6.732-.684-6.732-2.088zm8.604 6.66v-2.052c5.652-.288 8.784-1.872 8.784-4.608 0-3.06-3.816-4.644-10.656-4.644-6.876 0-10.692 1.584-10.692 4.644 0 2.736 3.132 4.32 8.82 4.608v2.052h-12.852v2.916h29.412v-2.916H248.72zM279.965 36.1c-6.804 0-11.952 3.672-11.952 9.18 0 5.544 5.148 9.18 11.952 9.18 6.768 0 11.952-3.636 11.952-9.18 0-5.508-5.184-9.18-11.952-9.18zm0 3.06c4.788 0 8.352 2.376 8.352 6.12s-3.564 6.12-8.352 6.12c-4.824 0-8.352-2.376-8.352-6.12s3.528-6.12 8.352-6.12zm-14.688 20.448v3.06h29.448v-3.06h-29.448zm49.642.288v-5.544h10.152v-2.988h-19.476v-4.536h18.756V36.532h-22.464v2.988h18.792v4.356h-18.72v10.476h9.252v5.544h-12.816v3.06h29.448v-3.06h-12.924z"/>
    <rect width="559" height="99" x=".5" y=".5" stroke="#4D4D4D" rx="49.5"/>
    <rect width="559" height="99" x=".5" y=".5" stroke="url(#paint0_linear)" rx="49.5"/>
    <defs>
        <linearGradient id="paint0_linear" x1="280" x2="280" y1="0" y2="100" gradientUnits="userSpaceOnUse">
            <stop stop-color="#fff" stop-opacity=".5"/>
            <stop offset=".484" stop-color="#fff" stop-opacity="0"/>
        </linearGradient>
    </defs>
</svg>
