<svg width="190" height="90" viewBox="0 0 190 90" fill="none" xmlns="http://www.w3.org/2000/svg">
<rect x="0.5" y="0.5" width="189" height="89" rx="44.5" fill="white" fill-opacity="0.1"/>
<path d="M74.6742 40.004C74.6742 38.268 76.1582 37.148 78.2582 37.148C80.3862 37.148 81.8142 38.268 81.8142 40.004C81.8142 41.768 80.3862 42.888 78.2582 42.888C76.1582 42.888 74.6742 41.768 74.6742 40.004ZM86.0982 46.528C84.0822 46.836 81.8982 47.004 79.7422 47.144V44.96C82.5982 44.484 84.5022 42.58 84.5022 40.004C84.5022 37.008 81.9262 34.964 78.2582 34.964C74.5902 34.964 71.9862 37.008 71.9862 40.004C71.9862 42.608 73.9462 44.512 76.8582 44.96V47.256C74.5902 47.34 72.4342 47.34 70.6142 47.34L70.9782 49.692C75.2062 49.692 81.0862 49.608 86.2942 48.628L86.0982 46.528ZM76.9982 51.568H74.1142V58.652H91.3342V56.328H76.9982V51.568ZM90.4662 42.16V33.9H87.5822V53.22H90.4662V44.54H93.9382V42.16H90.4662ZM105.416 49.44H110.596V53.808H105.416V49.44ZM113.452 53.808V49.44H117.176V47.116H102.028V43.616H116.616V35.636H99.144V37.96H113.76V41.32H99.2V49.44H102.56V53.808H96.428V56.188H119.332V53.808H113.452Z" fill="white"/>
<rect x="0.5" y="0.5" width="189" height="89" rx="44.5" stroke="#4D4D4D"/>
<rect x="0.5" y="0.5" width="189" height="89" rx="44.5" stroke="url(#paint0_linear)"/>
<defs>
<linearGradient id="paint0_linear" x1="95" y1="0" x2="95" y2="90" gradientUnits="userSpaceOnUse">
<stop stop-color="white" stop-opacity="0.5"/>
<stop offset="0.484375" stop-color="white" stop-opacity="0"/>
</linearGradient>
</defs>
</svg>
