<svg xmlns="http://www.w3.org/2000/svg" width="254" height="145" fill="none" viewBox="0 0 254 145">
    <rect width="251" height="142" x="1.5" y="1.5" fill="#EADA22" rx="71"/>
    <rect width="251" height="142" x="1.5" y="1.5" fill="url(#paint0_linear)" fill-opacity=".6" rx="71"/>
    <path fill="#000" d="M77.142 76.796c.18-1.08.252-2.196.252-3.456 0-1.26-.072-2.412-.252-3.492h3.744v6.948h-3.744zm-6.732 4.572c-2.232 0-3.636-2.88-3.636-8.028 0-5.148 1.404-8.064 3.636-8.064s3.636 2.916 3.636 8.064-1.404 8.028-3.636 8.028zm10.476-14.58h-4.5c-1.116-3.204-3.276-5.004-5.976-5.004-4.212 0-6.984 4.392-6.984 11.556 0 7.128 2.772 11.52 6.984 11.52 2.736 0 4.86-1.872 6.012-5.04h4.464v10.404h3.456V59.876h-3.456v6.912zm6.444-7.524v32.472h3.528V59.264H87.33zm12.921 9.684c0-2.844 2.124-4.68 5.004-4.68 2.916 0 5.04 1.836 5.04 4.68 0 2.844-2.124 4.68-5.04 4.68-2.88 0-5.004-1.836-5.004-4.68zm13.68 0c0-4.608-3.708-7.812-8.676-7.812-4.932 0-8.64 3.204-8.64 7.812 0 4.608 3.708 7.812 8.64 7.812 4.968 0 8.676-3.204 8.676-7.812zm-13.716 14.004h17.676v8.856h3.708V79.964h-21.384v2.988zm25.884-15.984v-3.06h-4.5v-4.644h-3.708v19.26h3.708v-4.572h4.5v-3.06h-4.5v-3.924h4.5zm12.705 14.76c-2.628 0-4.536-1.8-4.536-4.536 0-2.736 1.908-4.536 4.536-4.536 2.628 0 4.536 1.8 4.536 4.536 0 2.736-1.908 4.536-4.536 4.536zm0-12.132c-4.68 0-8.064 3.168-8.064 7.596 0 4.464 3.384 7.596 8.064 7.596 4.644 0 8.064-3.132 8.064-7.596 0-4.428-3.42-7.596-8.064-7.596zm1.8-9.828h-3.708v4.5h-7.74v3.024H148.2v-3.024h-7.596v-4.5zm18.972 12.564h-5.004V59.264h-3.744v32.544h3.744v-16.38h5.004v-3.096zm4.713-9.648v3.024h11.592c-.648 7.488-4.68 13.212-13.212 17.316l1.98 2.952c11.16-5.4 15.048-13.608 15.048-23.292h-15.408zm21.276-3.42v32.508h3.708V59.264h-3.708z"/>
    <rect width="251" height="142" x="1.5" y="1.5" stroke="url(#paint1_linear)" stroke-width="3" rx="71"/>
    <defs>
        <linearGradient id="paint0_linear" x1="55.388" x2="87.483" y1="45.477" y2="162.983" gradientUnits="userSpaceOnUse">
            <stop stop-color="#AC9F0C"/>
            <stop offset=".708" stop-color="#EADA22" stop-opacity="0"/>
        </linearGradient>
        <linearGradient id="paint1_linear" x1="127" x2="127" y1="0" y2="145" gradientUnits="userSpaceOnUse">
            <stop stop-color="#fff" stop-opacity=".8"/>
            <stop offset="1" stop-color="#CEC01D"/>
        </linearGradient>
    </defs>
</svg>
