<svg width="420" height="91" viewBox="0 0 420 91" fill="none" xmlns="http://www.w3.org/2000/svg">
<rect x="0.5" y="0.5" width="419" height="90" rx="45" fill="white" fill-opacity="0.1"/>
<path d="M138.465 41.176C138.465 38.648 140.321 36.984 142.881 36.984C145.377 36.984 147.233 38.648 147.233 41.176C147.233 43.672 145.377 45.336 142.881 45.336C140.321 45.336 138.465 43.672 138.465 41.176ZM155.585 39.224V43.128H150.081C150.273 42.52 150.369 41.88 150.369 41.176C150.369 40.472 150.273 39.832 150.113 39.224H155.585ZM155.585 45.784V49.592H158.881V32.536H155.585V36.536H148.609C147.265 35.096 145.249 34.2 142.881 34.2C138.561 34.2 135.329 37.08 135.329 41.176C135.329 45.24 138.561 48.12 142.881 48.12C145.217 48.12 147.265 47.256 148.609 45.784H155.585ZM149.249 58.872C145.153 58.872 142.753 57.816 142.753 55.832C142.753 53.912 145.153 52.824 149.249 52.824C153.377 52.824 155.745 53.912 155.745 55.832C155.745 57.816 153.377 58.872 149.249 58.872ZM149.249 50.232C143.233 50.232 139.521 52.312 139.521 55.832C139.521 59.384 143.233 61.464 149.249 61.464C155.265 61.464 159.009 59.384 159.009 55.832C159.009 52.312 155.265 50.232 149.249 50.232ZM189.374 43.224C183.55 42.392 179.198 38.776 179.198 35.032V33.496H175.71V35.032C175.71 38.84 171.422 42.392 165.534 43.224L166.814 45.88C171.614 45.112 175.614 42.712 177.47 39.352C179.358 42.68 183.294 45.112 188.094 45.88L189.374 43.224ZM190.494 48.6H164.382V51.288H175.71V61.496H179.006V51.288H190.494V48.6ZM196.284 44.664C201.34 44.12 205.308 42.04 206.876 39.064C208.412 42.04 212.348 44.12 217.468 44.664L218.62 42.104C213.244 41.56 209.5 39.256 209.083 36.632H217.564V33.976H196.22V36.632H204.636C204.22 39.256 200.476 41.56 195.1 42.104L196.284 44.664ZM206.812 58.872C202.588 58.872 200.22 57.944 200.22 56.184C200.22 54.392 202.588 53.464 206.812 53.464C211.036 53.464 213.436 54.392 213.436 56.184C213.436 57.944 211.036 58.872 206.812 58.872ZM206.812 50.872C200.635 50.872 196.86 52.824 196.86 56.184C196.86 59.544 200.635 61.464 206.812 61.464C213.02 61.464 216.764 59.544 216.764 56.184C216.764 52.824 213.02 50.872 206.812 50.872ZM193.788 46.136V48.792H219.932V46.136H193.788ZM241.805 45.176H234.733V40.856H241.805V45.176ZM245.069 34.168H241.805V38.264H234.733V34.168H231.437V47.8H245.069V34.168ZM237.901 53.528H253.197V50.904H234.605V61.08H253.741V58.456H237.901V53.528ZM253.005 39.352V32.568H249.709V49.464H253.005V42.072H257.101V39.352H253.005ZM261.514 35.608V38.296H271.818C271.242 44.952 267.658 50.04 260.074 53.688L261.834 56.312C271.754 51.512 275.21 44.216 275.21 35.608H261.514ZM280.426 32.568V61.464H283.722V32.568H280.426Z" fill="#EADA22"/>
<rect x="0.5" y="0.5" width="419" height="90" rx="45" stroke="#4D4D4D"/>
<rect x="0.5" y="0.5" width="419" height="90" rx="45" stroke="url(#paint0_linear)"/>
<defs>
<linearGradient id="paint0_linear" x1="210" y1="0" x2="210" y2="91" gradientUnits="userSpaceOnUse">
<stop stop-color="white" stop-opacity="0.5"/>
<stop offset="0.484375" stop-color="white" stop-opacity="0"/>
</linearGradient>
</defs>
</svg>
