<svg width="232" height="52" viewBox="0 0 232 52" fill="none" xmlns="http://www.w3.org/2000/svg">
<rect x="0.5" y="0.5" width="231" height="51" rx="25.5" fill="white" fill-opacity="0.1"/>
<path d="M43.4815 27.266C40.4235 26.276 38.6195 23.834 38.6195 21.304V20.93H42.8655V19.104H31.9975V20.93H36.3095V21.304C36.3095 23.988 34.5275 26.562 31.3815 27.618L32.5695 29.4C34.9455 28.564 36.6175 26.914 37.4975 24.802C38.3775 26.76 40.0495 28.3 42.3375 29.026L43.4815 27.266ZM34.1975 32.634H45.3295V37.694H47.5955V30.808H34.1975V32.634ZM45.3295 17.806V29.818H47.5955V17.806H45.3295ZM61.7618 29.488V31.072H65.6558V32.92H67.9218V17.806H65.6558V29.488H61.7618ZM57.8018 20.248C59.4298 20.248 60.5518 20.952 60.5518 22.074C60.5518 23.196 59.4298 23.9 57.8018 23.9C56.1517 23.9 55.0298 23.196 55.0298 22.074C55.0298 20.952 56.1517 20.248 57.8018 20.248ZM57.8018 25.572C60.7058 25.572 62.7078 24.186 62.7078 22.074C62.7078 19.962 60.7058 18.576 57.8018 18.576C54.8758 18.576 52.8738 19.962 52.8738 22.074C52.8738 24.186 54.8758 25.572 57.8018 25.572ZM56.8998 32.282H59.1658V28.454C60.8598 28.344 62.5978 28.168 64.2698 27.882L64.0938 26.254C59.8918 26.782 55.0078 26.826 51.3558 26.848L51.6418 28.696C53.2258 28.696 55.0078 28.674 56.8998 28.586V32.282ZM56.3058 35.472V31.446H54.0398V37.32H68.3838V35.472H56.3058ZM93.7174 20.534H86.7434V18.092H84.4774V20.534H77.4594V22.36H93.7174V20.534ZM81.2874 27.31C81.2874 26.012 82.8714 25.264 85.5774 25.264C88.3054 25.264 89.8894 26.012 89.8894 27.31C89.8894 28.63 88.3054 29.378 85.5774 29.378C82.8714 29.378 81.2874 28.63 81.2874 27.31ZM86.7434 33.668V31.116C90.1534 30.852 92.1994 29.51 92.1994 27.31C92.1994 24.912 89.6474 23.504 85.5774 23.504C81.5294 23.504 78.9774 24.912 78.9774 27.31C78.9774 29.51 81.0674 30.874 84.4774 31.116V33.668H76.6234V35.538H94.6414V33.668H86.7434ZM98.3797 25.748C101.9 25.506 104.584 24.538 105.838 22.866C107.092 24.538 109.82 25.506 113.34 25.748L113.956 24.054C110.084 23.834 107.62 22.734 107.18 21.172H113.054V19.478H106.982V17.74H104.716V19.478H98.6657V21.172H104.518C104.078 22.734 101.636 23.834 97.7197 24.054L98.3797 25.748ZM114.836 28.168V26.474H96.9057V28.168H104.716V29.708H98.9957V31.38H110.37V32.766H99.0397V37.518H113.164V35.824H101.284V34.328H112.592V29.708H106.982V28.168H114.836ZM123.801 27.75C126.155 27.222 127.805 26.034 128.663 24.45C129.543 25.88 131.149 26.98 133.415 27.464L134.317 25.704C131.457 25.11 129.785 23.548 129.763 21.744H133.921V19.962H129.763V17.872H127.475V19.962H123.339V21.744H127.497C127.475 23.658 125.781 25.374 122.877 26.012L123.801 27.75ZM134.955 28.278C130.687 28.872 125.759 28.916 122.063 28.916L122.349 30.786C123.911 30.786 125.649 30.764 127.497 30.698V37.122H129.763V30.566C131.523 30.478 133.349 30.258 135.087 29.95L134.955 28.278ZM136.231 17.828V37.716H138.497V17.828H136.231ZM159.528 27.222C155.612 26.562 152.422 23.614 152.422 20.534V19.038H150.024V20.534C150.024 23.592 146.834 26.562 142.896 27.222L143.864 29.114C147.098 28.476 149.914 26.496 151.234 23.856C152.51 26.496 155.326 28.476 158.582 29.114L159.528 27.222ZM152.334 33.36V28.718H150.068V33.36H142.302V35.23H160.298V33.36H152.334ZM168.326 31.556C166.72 31.556 165.554 30.456 165.554 28.784C165.554 27.112 166.72 26.012 168.326 26.012C169.932 26.012 171.098 27.112 171.098 28.784C171.098 30.456 169.932 31.556 168.326 31.556ZM168.326 24.142C165.466 24.142 163.398 26.078 163.398 28.784C163.398 31.512 165.466 33.426 168.326 33.426C171.164 33.426 173.254 31.512 173.254 28.784C173.254 26.078 171.164 24.142 168.326 24.142ZM169.426 18.136H167.16V20.886H162.43V22.734H174.068V20.886H169.426V18.136ZM181.02 25.814H177.962V17.828H175.674V37.716H177.962V27.706H181.02V25.814ZM183.9 19.918V21.766H190.984C190.588 26.342 188.124 29.84 182.91 32.348L184.12 34.152C190.94 30.852 193.316 25.836 193.316 19.918H183.9ZM196.902 17.828V37.694H199.168V17.828H196.902Z" fill="white"/>
<rect x="0.5" y="0.5" width="231" height="51" rx="25.5" stroke="#4D4D4D"/>
<rect x="0.5" y="0.5" width="231" height="51" rx="25.5" stroke="url(#paint0_linear)"/>
<defs>
<linearGradient id="paint0_linear" x1="116" y1="0" x2="116" y2="52" gradientUnits="userSpaceOnUse">
<stop stop-color="white" stop-opacity="0.5"/>
<stop offset="0.484375" stop-color="white" stop-opacity="0"/>
</linearGradient>
</defs>
</svg>
