<svg xmlns="http://www.w3.org/2000/svg" width="600" height="91" fill="none" viewBox="0 0 600 91">
    <rect width="599" height="90" x=".5" y=".5" fill="#4A4A4A" rx="45"/>
    <path fill="#fff" d="M248.22 30.266c-3.058-.99-4.862-3.432-4.862-5.962v-.374h4.246v-1.826h-10.868v1.826h4.312v.374c0 2.684-1.782 5.258-4.928 6.314l1.188 1.782c2.376-.836 4.048-2.486 4.928-4.598.88 1.958 2.552 3.498 4.84 4.224l1.144-1.76zm-9.284 5.368h11.132v5.06h2.266v-6.886h-13.398v1.826zm11.132-14.828v12.012h2.266V20.806h-2.266zM266.5 32.488v1.584h3.894v1.848h2.266V20.806h-2.266v11.682H266.5zm-3.96-9.24c1.628 0 2.75.704 2.75 1.826s-1.122 1.826-2.75 1.826c-1.65 0-2.772-.704-2.772-1.826s1.122-1.826 2.772-1.826zm0 5.324c2.904 0 4.906-1.386 4.906-3.498s-2.002-3.498-4.906-3.498c-2.926 0-4.928 1.386-4.928 3.498s2.002 3.498 4.928 3.498zm-.902 6.71h2.266v-3.828c1.694-.11 3.432-.286 5.104-.572l-.176-1.628c-4.202.528-9.086.572-12.738.594l.286 1.848c1.584 0 3.366-.022 5.258-.11v3.696zm-.594 3.19v-4.026h-2.266v5.874h14.344v-1.848h-12.078zm37.412-14.938h-6.974v-2.442h-2.266v2.442h-7.018v1.826h16.258v-1.826zm-12.43 6.776c0-1.298 1.584-2.046 4.29-2.046 2.728 0 4.312.748 4.312 2.046 0 1.32-1.584 2.068-4.312 2.068-2.706 0-4.29-.748-4.29-2.068zm5.456 6.358v-2.552c3.41-.264 5.456-1.606 5.456-3.806 0-2.398-2.552-3.806-6.622-3.806-4.048 0-6.6 1.408-6.6 3.806 0 2.2 2.09 3.564 5.5 3.806v2.552h-7.854v1.87h18.018v-1.87h-7.898zm11.636-7.92c3.52-.242 6.204-1.21 7.458-2.882 1.254 1.672 3.982 2.64 7.502 2.882l.616-1.694c-3.872-.22-6.336-1.32-6.776-2.882h5.874v-1.694h-6.072V20.74h-2.266v1.738h-6.05v1.694h5.852c-.44 1.562-2.882 2.662-6.798 2.882l.66 1.694zm16.456 2.42v-1.694h-17.93v1.694h7.81v1.54h-5.72v1.672h11.374v1.386h-11.33v4.752h14.124v-1.694h-11.88v-1.496h11.308v-4.62h-5.61v-1.54h7.854zm10.374-5.522c0-1.364 1.166-2.244 2.816-2.244 1.672 0 2.794.88 2.794 2.244 0 1.386-1.122 2.266-2.794 2.266-1.65 0-2.816-.88-2.816-2.266zm8.976 5.126c-1.584.242-3.3.374-4.994.484V29.54c2.244-.374 3.74-1.87 3.74-3.894 0-2.354-2.024-3.96-4.906-3.96-2.882 0-4.928 1.606-4.928 3.96 0 2.046 1.54 3.542 3.828 3.894v1.804c-1.782.066-3.476.066-4.906.066l.286 1.848c3.322 0 7.942-.066 12.034-.836l-.154-1.65zm-7.15 3.96h-2.266v5.566h13.53v-1.826h-11.264v-3.74zm10.582-7.392v-6.49h-2.266v15.18h2.266v-6.82h2.728v-1.87h-2.728zm11.746 5.72h4.07v3.432h-4.07V33.06zm6.314 3.432V33.06h2.926v-1.826H351.44v-2.75h11.462v-6.27h-13.728v1.826h11.484v2.64h-11.44v6.38h2.64v3.432h-4.818v1.87h17.996v-1.87h-4.62z"/>
    <path fill="#D3D3D3" d="M98.787 60.638l1.738-2.09 1.738 2.09.968-.704-1.408-2.288 2.398-.99-.374-1.122-2.508.594-.22-2.64h-1.188l-.22 2.662-2.508-.616-.374 1.122 2.376.99-1.386 2.288.968.704zm20.104 1.892c-2.904-.968-4.95-3.366-4.95-6.006v-.792h4.466V54.28h-10.824v1.452h4.51v.792c0 2.772-2.002 5.346-4.994 6.402l.946 1.408c2.332-.858 4.158-2.618 4.994-4.862.902 2.068 2.706 3.696 4.972 4.488l.88-1.43zm-9.064 4.796h11.396v5.302h1.804v-6.754h-13.2v1.452zm11.396-14.432V64.84h1.804V52.894h-1.804zm16.19 11.66v1.342h4.004v2.024h1.804V52.894h-1.804v11.66h-4.004zm-4.026-9.526c1.87 0 3.146.836 3.146 2.09 0 1.276-1.276 2.112-3.146 2.112-1.87 0-3.146-.836-3.146-2.112 0-1.254 1.276-2.09 3.146-2.09zm0 5.544c2.882 0 4.862-1.342 4.862-3.454 0-2.068-1.98-3.432-4.862-3.432s-4.862 1.364-4.862 3.432c0 2.112 1.98 3.454 4.862 3.454zm-.704 6.644h1.804v-3.894c1.782-.11 3.608-.308 5.346-.572l-.154-1.298c-4.18.528-9.064.572-12.716.572l.242 1.496c1.628 0 3.52-.022 5.478-.11v3.806zm-1.1 3.498v-4.268h-1.804v5.742h13.948v-1.474h-12.144zm37.544-14.938h-7.062v-2.574h-1.804v2.574h-7.15v1.474h16.016v-1.474zm-12.628 6.556c0-1.452 1.782-2.332 4.664-2.332 2.838 0 4.598.88 4.598 2.332 0 1.474-1.76 2.354-4.598 2.354-2.882 0-4.664-.88-4.664-2.354zm5.566 6.512v-2.772c3.432-.22 5.522-1.54 5.522-3.74 0-2.376-2.486-3.74-6.424-3.74-4.004 0-6.49 1.364-6.49 3.74 0 2.2 2.112 3.542 5.588 3.74v2.772h-8.03v1.474h17.886v-1.474h-8.052zm11.879-8.074c3.322-.264 6.248-1.276 7.458-3.102 1.21 1.826 4.114 2.838 7.414 3.102l.55-1.364c-3.674-.242-6.644-1.452-6.952-3.41h6.072v-1.364h-6.182v-1.87H180.5v1.87h-6.204v1.364h6.094c-.308 1.958-3.322 3.168-6.974 3.41l.528 1.364zm16.346 2.266V61.65h-17.798v1.386h7.986v1.826h-5.874v1.342h11.638v1.672H174.67v4.532h13.948v-1.364H176.43v-1.87h11.594v-4.312h-5.72v-1.826h7.986zm10.132-5.346c0-1.496 1.298-2.508 3.19-2.508 1.848 0 3.168 1.012 3.168 2.508 0 1.518-1.32 2.508-3.168 2.508-1.892 0-3.19-.99-3.19-2.508zm9.482 5.258c-1.716.264-3.542.396-5.368.506v-1.936c2.354-.286 3.938-1.738 3.938-3.828 0-2.31-2.002-3.872-4.862-3.872-2.882 0-4.862 1.562-4.862 3.872 0 2.112 1.584 3.564 3.982 3.85v1.98c-1.848.066-3.608.088-5.126.088l.242 1.474c3.366 0 8.052-.066 12.166-.814l-.11-1.32zm-7.656 3.784h-1.804v5.434h13.178v-1.474h-11.374v-3.96zm10.67-7.15v-6.666h-1.804v15.092h1.804v-6.93h2.882v-1.496h-2.882zm11.724 5.39h4.51v3.74h-4.51v-3.74zm6.292 3.74v-3.74h3.08v-1.474H221.87V60.33h11.682v-5.984h-13.508v1.474h11.748v3.058h-11.704v6.094h2.772v3.74h-5.016v1.474h17.93v-1.474h-4.84zm20.164-2.508h-5.5v-5.192h5.5v5.192zm6.38-13.31v7.326h-4.62v-5.764h-1.76v5.126h-5.5v-5.126h-1.782v13.222h9.042v-6.006h4.62v11h1.804V52.894h-1.804zm21.515 7.678h-11.594V58.46h10.956v-1.364h-10.956v-2.068h11.484V53.62h-13.288v8.36h13.398v-1.408zm-11.638 6.138h-1.804v5.478h13.684v-1.474h-11.88V66.71zm-4.114-2.882v1.452h17.842v-1.452h-17.842zm29.17-8.8c3.102 0 5.082.924 5.082 2.486 0 1.562-1.98 2.464-5.082 2.464s-5.082-.902-5.082-2.464c0-1.562 1.98-2.486 5.082-2.486zm0 6.402c4.224 0 6.93-1.452 6.93-3.916s-2.706-3.938-6.93-3.938-6.93 1.474-6.93 3.938c0 2.464 2.706 3.916 6.93 3.916zm-4.818 5.038h-1.804v5.72h13.574v-1.474h-11.77v-4.246zm-4.114-3.19v1.452h17.842v-1.452h-17.842zm37.236-.748c-2.904-.968-4.95-3.366-4.95-6.006v-.792h4.466V54.28h-10.824v1.452h4.51v.792c0 2.772-2.002 5.346-4.994 6.402l.946 1.408c2.332-.858 4.158-2.618 4.994-4.862.902 2.068 2.706 3.696 4.972 4.488l.88-1.43zm-9.064 4.796h11.396v5.302h1.804v-6.754h-13.2v1.452zm11.396-14.432V64.84h1.804V52.894h-1.804zm16.19 11.66v1.342h4.004v2.024h1.804V52.894h-1.804v11.66h-4.004zm-4.026-9.526c1.87 0 3.146.836 3.146 2.09 0 1.276-1.276 2.112-3.146 2.112-1.87 0-3.146-.836-3.146-2.112 0-1.254 1.276-2.09 3.146-2.09zm0 5.544c2.882 0 4.862-1.342 4.862-3.454 0-2.068-1.98-3.432-4.862-3.432s-4.862 1.364-4.862 3.432c0 2.112 1.98 3.454 4.862 3.454zm-.704 6.644h1.804v-3.894c1.782-.11 3.608-.308 5.346-.572l-.154-1.298c-4.18.528-9.064.572-12.716.572l.242 1.496c1.628 0 3.52-.022 5.478-.11v3.806zm-1.1 3.498v-4.268h-1.804v5.742h13.948v-1.474h-12.144zm31.121-12.364v1.474h3.96v7.546h1.826V52.916h-1.826v5.434h-3.96zm1.166 4.642c-2.86-1.012-4.796-3.476-4.796-6.05v-.968h4.334V54.5h-10.538v1.474h4.4v.99c0 2.794-2.046 5.412-4.972 6.468l.946 1.408c2.31-.836 4.114-2.662 4.972-4.906.858 2.024 2.552 3.674 4.752 4.466l.902-1.408zm-6.182 7.722v-4.62h-1.826v6.094h13.178v-1.474h-11.352zm23.692.506c-3.102 0-4.928-.77-4.928-2.112s1.826-2.112 4.928-2.112c3.08 0 4.928.77 4.928 2.112s-1.848 2.112-4.928 2.112zm0-5.632c-4.224 0-6.754 1.254-6.754 3.52s2.53 3.498 6.754 3.498c4.246 0 6.754-1.232 6.754-3.498s-2.508-3.52-6.754-3.52zm-2.728-5.236c.814.132 1.738.22 2.728.22 1.012 0 1.936-.088 2.75-.22v2.31h-5.478v-2.31zm-2.354-3.432c0-1.43 1.936-2.266 5.082-2.266s5.082.836 5.082 2.266c0 1.408-1.936 2.266-5.082 2.266s-5.082-.858-5.082-2.266zm9.614 5.742v-2.794c1.518-.616 2.398-1.628 2.398-2.948 0-2.31-2.64-3.674-6.93-3.674-4.268 0-6.93 1.364-6.93 3.674 0 1.342.858 2.332 2.42 2.97v2.772h-4.422v1.452h17.864v-1.452h-4.4zm19.79 3.542h-5.5v-5.192h5.5v5.192zm6.38-13.31v7.326h-4.62v-5.764h-1.76v5.126h-5.5v-5.126h-1.782v13.222h9.042v-6.006h4.62v11h1.804V52.894h-1.804zm21.514 7.678h-11.594V58.46h10.956v-1.364h-10.956v-2.068h11.484V53.62h-13.288v8.36h13.398v-1.408zm-11.638 6.138h-1.804v5.478h13.684v-1.474h-11.88V66.71zm-4.114-2.882v1.452h17.842v-1.452h-17.842zm34.605-10.934v19.778h1.804V52.894h-1.804zm-8.602 1.518c-2.926 0-5.016 2.684-5.016 6.886s2.09 6.886 5.016 6.886 5.016-2.684 5.016-6.886-2.09-6.886-5.016-6.886zm0 1.628c1.914 0 3.278 2.068 3.278 5.258 0 3.212-1.364 5.28-3.278 5.28-1.936 0-3.3-2.068-3.3-5.28 0-3.19 1.364-5.258 3.3-5.258zm18.962 10.582c-1.584 0-2.574-2.002-2.574-5.236 0-3.168.99-5.17 2.574-5.17 1.54 0 2.552 2.002 2.552 5.17 0 3.234-1.012 5.236-2.552 5.236zm6.666-6.05h-2.486c-.22-3.718-1.804-6.028-4.18-6.028-2.574 0-4.224 2.64-4.224 6.842 0 4.268 1.65 6.908 4.224 6.908 2.42 0 4.026-2.376 4.18-6.248h2.486v9.614h1.716V53.334h-1.716v7.238zm3.916-7.678v19.734h1.716V52.894h-1.716zm11.372 11.066c.814.198 1.76.308 2.728.308.99 0 1.936-.11 2.772-.308v4.642h-5.5V63.96zm2.728-8.404c3.168 0 5.456 1.452 5.456 3.652s-2.288 3.652-5.456 3.652c-3.168 0-5.434-1.452-5.434-3.652s2.266-3.652 5.434-3.652zm4.576 13.046v-5.346c1.628-.858 2.596-2.266 2.596-4.048 0-3.08-2.97-5.06-7.172-5.06-4.18 0-7.172 1.98-7.172 5.06 0 1.782.99 3.212 2.64 4.07v5.324h-4.4v1.496h17.93v-1.496h-4.422zm8.645 2.684c.792 0 1.452-.616 1.452-1.518 0-.924-.66-1.562-1.452-1.562-.792 0-1.452.638-1.452 1.562 0 .902.66 1.518 1.452 1.518z"/>
    <rect width="599" height="90" x=".5" y=".5" stroke="#4D4D4D" rx="45"/>
    <rect width="599" height="90" x=".5" y=".5" stroke="url(#paint0_linear)" rx="45"/>
    <defs>
        <linearGradient id="paint0_linear" x1="300" x2="300" y1="0" y2="91" gradientUnits="userSpaceOnUse">
            <stop stop-color="#fff" stop-opacity=".5"/>
            <stop offset=".484" stop-color="#fff" stop-opacity="0"/>
        </linearGradient>
    </defs>
</svg>
