<svg xmlns="http://www.w3.org/2000/svg" width="232" height="52" fill="none" viewBox="0 0 232 52">
    <rect width="231" height="51" x=".5" y=".5" fill="#fff" fill-opacity=".1" rx="25.5"/>
    <path fill="#fff" d="M59.717 31.27c-1.739 0-2.926-1.87-2.926-4.972 0-3.102 1.188-4.972 2.926-4.972 1.715 0 2.925 1.87 2.925 4.972 0 3.102-1.21 4.972-2.925 4.972zm0-11.99c-2.97 0-5.105 2.728-5.105 7.018 0 4.29 2.134 6.996 5.105 6.996 2.97 0 5.103-2.706 5.103-6.996 0-4.29-2.133-7.018-5.103-7.018zm13.2 6.314h-3.103v-7.766H67.55v19.888h2.265V27.464h3.103v-1.87zm15.816-7.788v19.932h2.288V17.806h-2.288zm-8.294 1.474c-2.948 0-5.104 2.728-5.104 6.996 0 4.312 2.156 7.018 5.104 7.018 2.97 0 5.126-2.706 5.126-7.018 0-4.268-2.156-6.996-5.126-6.996zm0 2.046c1.738 0 2.948 1.87 2.948 4.95 0 3.124-1.21 4.994-2.948 4.994-1.716 0-2.926-1.87-2.926-4.994 0-3.08 1.21-4.95 2.926-4.95zm16.3 7.15c3.256-.44 5.852-1.892 7.128-3.872 1.298 1.98 3.894 3.454 7.128 3.872l.814-1.782c-3.85-.462-6.578-2.574-6.776-4.686h6.138v-1.826h-6.16V17.85h-2.266v2.332h-6.138v1.826h6.116c-.198 2.134-2.926 4.224-6.776 4.686l.792 1.782zm16.126 1.298H94.913v1.87h7.832v6.094h2.266v-6.094h7.854v-1.87zm3.254-9.856v1.848h6.952c-.462 4.576-3.08 8.074-7.942 10.56l1.254 1.738c6.49-3.278 8.954-8.382 8.954-14.146h-9.218zm17.424 5.742h-3.014v-7.854h-2.266v19.866h2.266v-10.12h3.014V25.66zm12.574 5.896c-1.606 0-2.772-1.1-2.772-2.772 0-1.672 1.166-2.772 2.772-2.772 1.606 0 2.772 1.1 2.772 2.772 0 1.672-1.166 2.772-2.772 2.772zm0-7.414c-2.86 0-4.928 1.936-4.928 4.642 0 2.728 2.068 4.642 4.928 4.642 2.838 0 4.928-1.914 4.928-4.642 0-2.706-2.09-4.642-4.928-4.642zm1.1-6.006h-2.266v2.75h-4.73v1.848h11.638v-1.848h-4.642v-2.75zm11.594 7.678h-3.058v-7.986h-2.288v19.888h2.288v-10.01h3.058v-1.892zm2.88-5.896v1.848h7.084c-.396 4.576-2.86 8.074-8.074 10.582l1.21 1.804c6.82-3.3 9.196-8.316 9.196-14.234h-9.416zm13.002-2.09v19.866h2.266V17.828h-2.266z"/>
    <rect width="231" height="51" x=".5" y=".5" stroke="#4D4D4D" rx="25.5"/>
    <rect width="231" height="51" x=".5" y=".5" stroke="url(#paint0_linear)" rx="25.5"/>
    <defs>
        <linearGradient id="paint0_linear" x1="116" x2="116" y1="0" y2="52" gradientUnits="userSpaceOnUse">
            <stop stop-color="#fff" stop-opacity=".5"/>
            <stop offset=".484" stop-color="#fff" stop-opacity="0"/>
        </linearGradient>
    </defs>
</svg>
