<svg width="455" height="91" viewBox="0 0 455 91" fill="none" xmlns="http://www.w3.org/2000/svg">
<rect x="0.5" y="0.5" width="454" height="90" rx="45" fill="white" fill-opacity="0.05"/>
<path d="M133.076 38.648V41.028H137.668V50.38H140.552V31.9H137.668V38.648H133.076ZM134.644 44.556C130.864 43.24 128.708 40.076 128.708 36.968V36.1H133.972V33.776H120.448V36.1H125.796V36.968C125.796 40.384 123.5 43.716 119.58 45.088L121.064 47.356C124.06 46.32 126.188 44.108 127.308 41.364C128.372 43.856 130.416 45.844 133.216 46.796L134.644 44.556ZM127.056 54.328V48.784H124.172V56.68H141.196V54.328H127.056ZM152.954 38.704H157.294V36.324H152.954V32.74H150.21V36.324H145.842V38.704H150.21V39.6C150.21 43.632 148.53 47.944 145.058 49.988L146.71 52.172C149.118 50.772 150.714 48.224 151.61 45.256C152.534 48 154.158 50.324 156.538 51.612L158.134 49.456C154.662 47.58 152.954 43.548 152.954 39.6V38.704ZM159.086 41.672H155.67V44.024H159.086V55.924H161.802V32.376H159.086V41.672ZM164.182 31.872V57.156H166.926V31.872H164.182ZM188.332 45.508C188.472 44.668 188.528 43.8 188.528 42.82C188.528 41.84 188.472 40.944 188.332 40.104H191.244V45.508H188.332ZM183.096 49.064C181.36 49.064 180.268 46.824 180.268 42.82C180.268 38.816 181.36 36.548 183.096 36.548C184.832 36.548 185.924 38.816 185.924 42.82C185.924 46.824 184.832 49.064 183.096 49.064ZM191.244 37.724H187.744C186.876 35.232 185.196 33.832 183.096 33.832C179.82 33.832 177.664 37.248 177.664 42.82C177.664 48.364 179.82 51.78 183.096 51.78C185.224 51.78 186.876 50.324 187.772 47.86H191.244V55.952H193.932V32.348H191.244V37.724ZM196.256 31.872V57.128H199V31.872H196.256ZM206.306 39.404C206.306 37.192 207.958 35.764 210.198 35.764C212.466 35.764 214.118 37.192 214.118 39.404C214.118 41.616 212.466 43.044 210.198 43.044C207.958 43.044 206.306 41.616 206.306 39.404ZM216.946 39.404C216.946 35.82 214.062 33.328 210.198 33.328C206.362 33.328 203.478 35.82 203.478 39.404C203.478 42.988 206.362 45.48 210.198 45.48C214.062 45.48 216.946 42.988 216.946 39.404ZM206.278 50.296H220.026V57.184H222.91V47.972H206.278V50.296ZM226.41 37.864V35.484H222.91V31.872H220.026V46.852H222.91V43.296H226.41V40.916H222.91V37.864H226.41ZM237.429 44.5C240.425 43.828 242.525 42.316 243.617 40.3C244.737 42.12 246.781 43.52 249.665 44.136L250.813 41.896C247.173 41.14 245.045 39.152 245.017 36.856H250.309V34.588H245.017V31.928H242.105V34.588H236.841V36.856H242.133C242.105 39.292 239.949 41.476 236.253 42.288L237.429 44.5ZM251.625 45.172C246.193 45.928 239.921 45.984 235.217 45.984L235.581 48.364C237.569 48.364 239.781 48.336 242.133 48.252V56.428H245.017V48.084C247.257 47.972 249.581 47.692 251.793 47.3L251.625 45.172ZM253.249 31.872V57.184H256.133V31.872H253.249ZM282.899 43.828C277.915 42.988 273.855 39.236 273.855 35.316V33.412H270.803V35.316C270.803 39.208 266.743 42.988 261.731 43.828L262.963 46.236C267.079 45.424 270.663 42.904 272.343 39.544C273.967 42.904 277.551 45.424 281.695 46.236L282.899 43.828ZM273.743 51.64V45.732H270.859V51.64H260.975V54.02H283.879V51.64H273.743ZM294.097 49.344C292.053 49.344 290.569 47.944 290.569 45.816C290.569 43.688 292.053 42.288 294.097 42.288C296.141 42.288 297.625 43.688 297.625 45.816C297.625 47.944 296.141 49.344 294.097 49.344ZM294.097 39.908C290.457 39.908 287.825 42.372 287.825 45.816C287.825 49.288 290.457 51.724 294.097 51.724C297.709 51.724 300.369 49.288 300.369 45.816C300.369 42.372 297.709 39.908 294.097 39.908ZM295.497 32.264H292.613V35.764H286.593V38.116H301.405V35.764H295.497V32.264ZM310.253 42.036H306.361V31.872H303.449V57.184H306.361V44.444H310.253V42.036ZM313.919 34.532V36.884H322.935C322.431 42.708 319.294 47.16 312.659 50.352L314.199 52.648C322.879 48.448 325.903 42.064 325.903 34.532H313.919ZM330.467 31.872V57.156H333.351V31.872H330.467Z" fill="white"/>
<rect x="0.5" y="0.5" width="454" height="90" rx="45" stroke="#4D4D4D"/>
<rect x="0.5" y="0.5" width="454" height="90" rx="45" stroke="url(#paint0_linear)"/>
<defs>
<linearGradient id="paint0_linear" x1="227.5" y1="0" x2="227.5" y2="91" gradientUnits="userSpaceOnUse">
<stop stop-color="white" stop-opacity="0.5"/>
<stop offset="0.484375" stop-color="white" stop-opacity="0"/>
</linearGradient>
</defs>
</svg>
