<svg xmlns="http://www.w3.org/2000/svg" width="250" height="52" fill="none" viewBox="0 0 250 52">
    <rect width="249" height="51" x=".5" y=".5" fill="#fff" fill-opacity=".1" rx="25.5"/>
    <path fill="#fff" d="M30.842 27.864c.12-.72.168-1.464.168-2.304 0-.84-.048-1.608-.168-2.328h2.496v4.632h-2.496zm-4.488 3.048c-1.488 0-2.424-1.92-2.424-5.352 0-3.432.936-5.376 2.424-5.376s2.424 1.944 2.424 5.376c0 3.432-.936 5.352-2.424 5.352zm6.984-9.72h-3c-.744-2.136-2.184-3.336-3.984-3.336-2.808 0-4.656 2.928-4.656 7.704 0 4.752 1.848 7.68 4.656 7.68 1.824 0 3.24-1.248 4.008-3.36h2.976v6.936h2.304V16.584h-2.304v4.608zm4.296-5.016v21.648h2.352V16.176h-2.352zm8.614 6.456c0-1.896 1.416-3.12 3.336-3.12 1.944 0 3.36 1.224 3.36 3.12 0 1.896-1.416 3.12-3.36 3.12-1.92 0-3.336-1.224-3.336-3.12zm9.12 0c0-3.072-2.472-5.208-5.784-5.208-3.288 0-5.76 2.136-5.76 5.208s2.472 5.208 5.76 5.208c3.312 0 5.784-2.136 5.784-5.208zm-9.144 9.336h11.784v5.904h2.472v-7.896H46.224v1.992zM63.48 21.312v-2.04h-3v-3.096h-2.472v12.84h2.472v-3.048h3v-2.04h-3v-2.616h3zM75.733 33.84H88.38v-5.352H73.26v1.92h12.672v1.632H73.309v5.544h15.816v-1.92H75.733V33.84zm12.024-9.024c.456-2.376.456-4.272.456-5.976v-1.752H73.5v1.944h12.288c0 .552 0 1.104-.024 1.704l-12.84.384.288 1.896 12.432-.528c-.072.72-.168 1.488-.36 2.328H71.053v1.968h19.536v-1.968h-2.832zm8.398 1.56h5.712v-7.968h-8.136v2.016h5.76v3.96h-5.712v8.448h1.464c2.664 0 5.064-.072 7.968-.576l-.216-2.016c-2.472.408-4.584.528-6.84.552v-4.416zm13.08-10.2v8.376h-2.568v-7.944h-2.328v20.16h2.328v-10.2h2.568v11.256h2.352V16.176h-2.352zm24.742 10.584c-4.272-.768-7.752-4.104-7.752-7.56v-1.632h-2.616V19.2c0 3.432-3.48 6.768-7.752 7.56l1.056 2.04c3.528-.72 6.576-2.976 7.992-5.952 1.416 2.976 4.464 5.232 7.992 5.952l1.08-2.04zm-18.792 6.264v2.04h19.632v-2.04h-19.632zM155.398 18h-4.92v-2.016h-2.496V18h-4.968v1.8h12.384V18zm-9.024 5.712c0-.984 1.104-1.584 2.832-1.584 1.728 0 2.832.6 2.832 1.584 0 .96-1.104 1.536-2.832 1.536-1.728 0-2.832-.576-2.832-1.536zm9.624 3.984c-1.752.264-3.648.384-5.52.48v-1.344c2.4-.288 3.888-1.416 3.888-3.12 0-2.016-2.04-3.24-5.16-3.24s-5.16 1.224-5.16 3.24c0 1.704 1.488 2.856 3.936 3.12v1.44c-1.992.048-3.888.048-5.52.048l.288 1.968c3.792-.024 8.856-.048 13.44-.864l-.192-1.728zm-10.848 6.072h12v4.104h2.472V31.8H145.15v1.968zm17.448-11.184h-2.976V16.2h-2.472v14.64h2.472v-6.216h2.976v-2.04zm19.99-6.408h-2.472V31.92h2.472V16.176zm-15.024 6.864c0-1.992 1.416-3.288 3.336-3.288 1.896 0 3.336 1.296 3.336 3.288 0 1.968-1.44 3.288-3.336 3.288-1.92 0-3.336-1.32-3.336-3.288zm9.072 0c0-3.168-2.472-5.424-5.736-5.424s-5.76 2.256-5.76 5.424c0 3.144 2.496 5.424 5.76 5.424s5.736-2.28 5.736-5.424zm-5.712 12.384v-5.088h-2.496v7.104h14.784v-2.016h-12.288zm22.198-4.272c-1.752 0-3.024-1.2-3.024-3.024s1.272-3.024 3.024-3.024 3.024 1.2 3.024 3.024-1.272 3.024-3.024 3.024zm0-8.088c-3.12 0-5.376 2.112-5.376 5.064 0 2.976 2.256 5.064 5.376 5.064 3.096 0 5.376-2.088 5.376-5.064 0-2.952-2.28-5.064-5.376-5.064zm1.2-6.552h-2.472v3h-5.16v2.016h12.696v-2.016h-5.064v-3zm12.648 8.376h-3.336v-8.712h-2.496v21.696h2.496v-10.92h3.336v-2.064zm3.142-6.432v2.016h7.728c-.432 4.992-3.12 8.808-8.808 11.544l1.32 1.968c7.44-3.6 10.032-9.072 10.032-15.528h-10.272zm14.184-2.28v21.672h2.472V16.176h-2.472z"/>
    <rect width="249" height="51" x=".5" y=".5" stroke="#4D4D4D" rx="25.5"/>
    <rect width="249" height="51" x=".5" y=".5" stroke="url(#paint0_linear)" rx="25.5"/>
    <defs>
        <linearGradient id="paint0_linear" x1="125" x2="125" y1="0" y2="52" gradientUnits="userSpaceOnUse">
            <stop stop-color="#fff" stop-opacity=".5"/>
            <stop offset=".484" stop-color="#fff" stop-opacity="0"/>
        </linearGradient>
    </defs>
</svg>
