<svg xmlns="http://www.w3.org/2000/svg" width="254" height="52" fill="none" viewBox="0 0 254 52">
    <rect width="253" height="51" x=".5" y=".5" fill="#fff" fill-opacity=".1" rx="25.5"/>
    <path fill="#EADA22" d="M42.407 28.508c.14-.84.196-1.708.196-2.688 0-.98-.056-1.876-.196-2.716h2.912v5.404h-2.912zm-5.236 3.556c-1.736 0-2.828-2.24-2.828-6.244s1.092-6.272 2.828-6.272c1.736 0 2.828 2.268 2.828 6.272 0 4.004-1.092 6.244-2.828 6.244zm8.148-11.34h-3.5c-.868-2.492-2.548-3.892-4.648-3.892-3.276 0-5.432 3.416-5.432 8.988 0 5.544 2.156 8.96 5.432 8.96 2.128 0 3.78-1.456 4.676-3.92h3.472v8.092h2.688V15.348h-2.688v5.376zm5.012-5.852v25.256h2.744V14.872H50.33zm10.05 7.532c0-2.212 1.651-3.64 3.891-3.64 2.268 0 3.92 1.428 3.92 3.64s-1.652 3.64-3.92 3.64c-2.24 0-3.892-1.428-3.892-3.64zm10.64 0c0-3.584-2.885-6.076-6.749-6.076-3.836 0-6.72 2.492-6.72 6.076 0 3.584 2.884 6.076 6.72 6.076 3.864 0 6.748-2.492 6.748-6.076zM60.351 33.296H74.1v6.888h2.884v-9.212H60.352v2.324zm20.132-12.432v-2.38h-3.5v-3.612H74.1v14.98h2.884v-3.556h3.5v-2.38h-3.5v-3.052h3.5zm17.655-1.092h5.348v-2.38H89.739v2.38h5.516v2.436c0 4.2-2.576 8.988-6.44 10.836l1.652 2.296c2.912-1.428 5.152-4.452 6.272-7.98 1.148 3.192 3.304 5.992 6.132 7.336l1.596-2.268c-3.836-1.82-6.328-6.3-6.328-10.22v-2.436zm14.672 5.068h-3.948v-9.968h-2.884v25.284h2.884V27.22h3.948v-2.38zm9.994-7.644h-2.8v4.564c0 4.312-1.736 8.848-5.32 10.976l1.764 2.184c2.436-1.484 4.088-4.144 4.984-7.252.868 2.828 2.38 5.292 4.676 6.692l1.624-2.24c-3.388-2.128-4.928-6.412-4.928-10.5v-4.424zm5.936 6.524h-3.724v2.352h3.724V38.98h2.716V15.348h-2.716v8.372zm5.152-8.848v25.284h2.744V14.872h-2.744zm15.034 17.472c-2.072 0-3.584-1.4-3.584-3.528s1.512-3.528 3.584-3.528 3.584 1.4 3.584 3.528-1.512 3.528-3.584 3.528zm0-9.436c-3.668 0-6.356 2.464-6.356 5.908 0 3.472 2.688 5.908 6.356 5.908 3.668 0 6.356-2.436 6.356-5.908 0-3.444-2.688-5.908-6.356-5.908zm1.428-7.7h-2.912v3.612h-6.104v2.324h15.092V18.82h-6.076v-3.612zm8.344-.336v25.284h2.912V14.872h-2.912zm19.587 8.26h11.984v4.144h-11.984v-4.144zm7.42 11.564V29.6h7.42V16.552h-2.856v4.256h-11.984v-4.256h-2.856V29.6h7.392v5.096h-9.968v2.38h22.904v-2.38h-10.052zm14.334-17.164v2.352h9.016c-.504 5.824-3.64 10.276-10.276 13.468l1.54 2.296c8.68-4.2 11.704-10.584 11.704-18.116H200.04zm16.548-2.66v25.284h2.884V14.872h-2.884z"/>
    <rect width="253" height="51" x=".5" y=".5" stroke="#4D4D4D" rx="25.5"/>
    <rect width="253" height="51" x=".5" y=".5" stroke="url(#paint0_linear)" rx="25.5"/>
    <defs>
        <linearGradient id="paint0_linear" x1="127" x2="127" y1="0" y2="52" gradientUnits="userSpaceOnUse">
            <stop stop-color="#fff" stop-opacity=".5"/>
            <stop offset=".484" stop-color="#fff" stop-opacity="0"/>
        </linearGradient>
    </defs>
</svg>
