<svg width="455" height="91" viewBox="0 0 455 91" fill="none" xmlns="http://www.w3.org/2000/svg">
<rect x="1.5" y="1.5" width="452" height="88" rx="44" fill="#EADA22"/>
<rect x="1.5" y="1.5" width="452" height="88" rx="44" fill="url(#paint0_linear)" fill-opacity="0.6"/>
<path d="M95.5973 39.604H104.473V37.252H92.7133V53.968H94.7853C99.3493 53.968 102.765 53.828 106.601 53.128L106.293 50.748C102.765 51.364 99.6853 51.532 95.5973 51.56V39.604ZM115.225 44.588H111.277V34.844H108.393V60.184H111.277V46.968H115.225V44.588ZM134.627 40.108H120.347V46.744H137.987V44.532H123.175V42.18H137.483V35.6H120.291V37.812H134.627V40.108ZM123.259 52.792H120.375V59.68H138.043V57.328H123.259V52.792ZM117.407 48.732V51.056H140.367V48.732H117.407ZM154.998 55.48H169.754V49.236H152.114V51.476H166.898V53.38H152.17V59.848H170.622V57.608H154.998V55.48ZM169.026 44.952C169.558 42.18 169.558 39.968 169.558 37.98V35.936H152.394V38.204H166.73C166.73 38.848 166.73 39.492 166.702 40.192L151.722 40.64L152.058 42.852L166.562 42.236C166.478 43.076 166.366 43.972 166.142 44.952H149.538V47.248H172.33V44.952H169.026ZM178.824 46.772H185.488V37.476H175.996V39.828H182.716V44.448H176.052V54.304H177.76C180.868 54.304 183.668 54.22 187.056 53.632L186.804 51.28C183.92 51.756 181.456 51.896 178.824 51.924V46.772ZM194.084 34.872V44.644H191.088V35.376H188.372V58.896H191.088V46.996H194.084V60.128H196.828V34.872H194.084ZM222.95 47.22C217.966 46.324 213.906 42.432 213.906 38.4V36.496H210.854V38.4C210.854 42.404 206.794 46.296 201.81 47.22L203.042 49.6C207.158 48.76 210.714 46.128 212.366 42.656C214.018 46.128 217.574 48.76 221.69 49.6L222.95 47.22ZM201.026 54.528V56.908H223.93V54.528H201.026ZM237.189 39.548H245.785V37.196H234.305V54.024H236.293C240.997 54.024 244.077 53.856 247.577 53.184L247.297 50.86C244.077 51.448 241.305 51.588 237.189 51.616V39.548ZM251.189 34.844V43.832H244.413V46.212H251.189V60.212H254.073V34.844H251.189ZM276.039 48.508C276.179 47.668 276.235 46.8 276.235 45.82C276.235 44.84 276.179 43.944 276.039 43.104H278.951V48.508H276.039ZM270.803 52.064C269.067 52.064 267.975 49.824 267.975 45.82C267.975 41.816 269.067 39.548 270.803 39.548C272.539 39.548 273.631 41.816 273.631 45.82C273.631 49.824 272.539 52.064 270.803 52.064ZM278.951 40.724H275.451C274.583 38.232 272.903 36.832 270.803 36.832C267.527 36.832 265.371 40.248 265.371 45.82C265.371 51.364 267.527 54.78 270.803 54.78C272.931 54.78 274.583 53.324 275.479 50.86H278.951V58.952H281.639V35.348H278.951V40.724ZM283.963 34.872V60.128H286.707V34.872H283.963ZM294.013 42.404C294.013 40.192 295.665 38.764 297.905 38.764C300.173 38.764 301.825 40.192 301.825 42.404C301.825 44.616 300.173 46.044 297.905 46.044C295.665 46.044 294.013 44.616 294.013 42.404ZM304.653 42.404C304.653 38.82 301.769 36.328 297.905 36.328C294.069 36.328 291.185 38.82 291.185 42.404C291.185 45.988 294.069 48.48 297.905 48.48C301.769 48.48 304.653 45.988 304.653 42.404ZM293.985 53.296H307.733V60.184H310.617V50.972H293.985V53.296ZM314.117 40.864V38.484H310.617V34.872H307.733V49.852H310.617V46.296H314.117V43.916H310.617V40.864H314.117ZM323.999 52.344C321.955 52.344 320.471 50.944 320.471 48.816C320.471 46.688 321.955 45.288 323.999 45.288C326.043 45.288 327.527 46.688 327.527 48.816C327.527 50.944 326.043 52.344 323.999 52.344ZM323.999 42.908C320.359 42.908 317.727 45.372 317.727 48.816C317.727 52.288 320.359 54.724 323.999 54.724C327.611 54.724 330.271 52.288 330.271 48.816C330.271 45.372 327.611 42.908 323.999 42.908ZM325.399 35.264H322.515V38.764H316.495V41.116H331.307V38.764H325.399V35.264ZM340.155 45.036H336.263V34.872H333.351V60.184H336.263V47.444H340.155V45.036ZM343.821 37.532V39.884H352.837C352.333 45.708 349.197 50.16 342.561 53.352L344.101 55.648C352.781 51.448 355.805 45.064 355.805 37.532H343.821ZM360.369 34.872V60.156H363.253V34.872H360.369Z" fill="black"/>
<rect x="1.5" y="1.5" width="452" height="88" rx="44" stroke="url(#paint1_linear)" stroke-width="3"/>
<defs>
<linearGradient id="paint0_linear" x1="99.2181" y1="28.5409" x2="106.733" y2="107.068" gradientUnits="userSpaceOnUse">
<stop stop-color="#AC9F0C"/>
<stop offset="0.707988" stop-color="#EADA22" stop-opacity="0"/>
</linearGradient>
<linearGradient id="paint1_linear" x1="227.5" y1="0" x2="227.5" y2="91" gradientUnits="userSpaceOnUse">
<stop stop-color="white" stop-opacity="0.7"/>
<stop offset="1" stop-color="#CEC01D"/>
</linearGradient>
</defs>
</svg>
