<svg xmlns="http://www.w3.org/2000/svg" width="170" height="100" fill="none" viewBox="0 0 170 100">
    <rect width="169" height="99" x=".5" y=".5" fill="#fff" fill-opacity=".05" rx="49.5"/>
    <path fill="#F7E74D" d="M47.856 36.28H43.6v17.888h4.256V36.28zm-6.688 12.48c-3.84.64-7.264.8-12.128.832V47h9.376v-8.992H24.848v3.36h9.408v2.496H24.88v9.12h2.592c5.856 0 9.792-.128 14.176-.864l-.48-3.36zm-3.232 13.76c-3.84 0-5.856-.704-5.856-2.272 0-1.536 2.016-2.24 5.856-2.24 3.872 0 5.888.704 5.888 2.24 0 1.568-2.016 2.272-5.888 2.272zm0-7.808c-6.24 0-10.08 2.048-10.08 5.536 0 3.488 3.84 5.536 10.08 5.536 6.272 0 10.112-2.048 10.112-5.536 0-3.488-3.84-5.536-10.112-5.536zm17.053-7.168l.513 3.424 16.831-.864c-.192 1.984-.511 4.128-1.087 6.528l4.16.416c1.375-6.4 1.375-10.464 1.375-14.752v-3.424h-20.96v3.36h16.8v.064c0 1.504 0 3.04-.063 4.672l-17.569.576zm-2.143 11.264v3.456h26.623v-3.456H52.846zm47.471-10.08h-5.792v-3.776h5.792v3.776zm4.16-10.72h-4.16v3.712h-5.792v-3.712h-4.16v14.016h14.112V38.008zm-6.72 20.096h15.136v-3.36H93.565V65.4h19.872v-3.36h-15.68v-3.936zm14.944-15.136V36.28h-4.224v17.184h4.224v-7.008h3.904v-3.488h-3.904zm7.87-3.648v3.36h9.824c-.608 6.528-3.872 11.136-11.392 14.752l2.208 3.328c10.464-5.056 13.504-12.416 13.504-21.44h-14.144zm18.656-3.072V65.72h4.256V36.248h-4.256z"/>
    <rect width="169" height="99" x=".5" y=".5" stroke="#4D4D4D" rx="49.5"/>
    <rect width="169" height="99" x=".5" y=".5" stroke="url(#paint0_linear)" rx="49.5"/>
    <defs>
        <linearGradient id="paint0_linear" x1="85" x2="85" y1="0" y2="100" gradientUnits="userSpaceOnUse">
            <stop stop-color="#fff" stop-opacity=".5"/>
            <stop offset=".484" stop-color="#fff" stop-opacity="0"/>
        </linearGradient>
    </defs>
</svg>
