<svg xmlns="http://www.w3.org/2000/svg" width="232" height="52" fill="none" viewBox="0 0 232 52">
    <rect width="231" height="51" x=".5" y=".5" fill="#fff" fill-opacity=".1" rx="25.5"/>
    <path fill="#fff" d="M66.954 16.138h-4.861v-2.266h-2.267v2.266h-4.883v1.826h12.011v-1.826zm-8.69 6.49c0-1.21 1.1-1.958 2.706-1.958 1.584 0 2.684.748 2.684 1.958 0 1.232-1.1 1.98-2.684 1.98-1.605 0-2.706-.748-2.706-1.98zm3.828 3.63c2.245-.352 3.719-1.694 3.719-3.63 0-2.222-1.98-3.696-4.84-3.696-2.882 0-4.862 1.474-4.862 3.696 0 1.914 1.474 3.278 3.718 3.63v1.936c-1.87.066-3.697.066-5.28.066l.286 1.87c3.608 0 8.316-.066 12.694-.814l-.154-1.65c-1.695.242-3.499.352-5.28.462v-1.87zm6.403-12.452v19.888h2.287V13.806h-2.287zM84.97 25.488v1.584h3.894v1.848h2.266V13.806h-2.266v11.682H84.97zm-3.96-9.24c1.628 0 2.75.704 2.75 1.826S82.639 19.9 81.01 19.9c-1.65 0-2.772-.704-2.772-1.826s1.122-1.826 2.772-1.826zm0 5.324c2.904 0 4.906-1.386 4.906-3.498s-2.002-3.498-4.906-3.498c-2.926 0-4.928 1.386-4.928 3.498s2.002 3.498 4.928 3.498zm-.902 6.71h2.266v-3.828c1.694-.11 3.432-.286 5.104-.572l-.176-1.628c-4.202.528-9.086.572-12.738.594l.286 1.848c1.584 0 3.366-.022 5.258-.11v3.696zm-.594 3.19v-4.026h-2.266v5.874h14.344v-1.848H79.515zM95.88 15.918v1.848h6.952c-.462 4.576-3.08 8.074-7.942 10.56l1.254 1.738c6.49-3.278 8.954-8.382 8.954-14.146h-9.218zm17.424 5.742h-3.014v-7.854h-2.266v19.866h2.266v-10.12h3.014V21.66zm15.948-7.832v10.67h2.266v-10.67h-2.266zm-10.714 11.594v8.03h12.98v-8.03h-2.244v2.2h-8.492v-2.2h-2.244zm2.244 3.96h8.492v2.244h-8.492v-2.244zm.022-14.652c-3.036 0-5.28 1.892-5.28 4.62s2.244 4.62 5.28 4.62 5.258-1.892 5.258-4.62-2.222-4.62-5.258-4.62zm0 1.87c1.782 0 3.058 1.1 3.058 2.75 0 1.672-1.276 2.75-3.058 2.75-1.804 0-3.058-1.078-3.058-2.75 0-1.65 1.254-2.75 3.058-2.75zm25.312 10.956c-1.606 0-2.772-1.1-2.772-2.772 0-1.672 1.166-2.772 2.772-2.772 1.606 0 2.772 1.1 2.772 2.772 0 1.672-1.166 2.772-2.772 2.772zm0-7.414c-2.86 0-4.928 1.936-4.928 4.642 0 2.728 2.068 4.642 4.928 4.642 2.838 0 4.928-1.914 4.928-4.642 0-2.706-2.09-4.642-4.928-4.642zm1.1-6.006h-2.266v2.75h-4.73v1.848h11.638v-1.848h-4.642v-2.75zm11.594 7.678h-3.058v-7.986h-2.288v19.888h2.288v-10.01h3.058v-1.892zm2.88-5.896v1.848h7.084c-.396 4.576-2.86 8.074-8.074 10.582l1.21 1.804c6.82-3.3 9.196-8.316 9.196-14.234h-9.416zm13.002-2.09v19.866h2.266V13.828h-2.266z"/>
    <rect width="231" height="51" x=".5" y=".5" stroke="#4D4D4D" rx="25.5"/>
    <rect width="231" height="51" x=".5" y=".5" stroke="url(#paint0_linear)" rx="25.5"/>
    <defs>
        <linearGradient id="paint0_linear" x1="116" x2="116" y1="0" y2="52" gradientUnits="userSpaceOnUse">
            <stop stop-color="#fff" stop-opacity=".5"/>
            <stop offset=".484" stop-color="#fff" stop-opacity="0"/>
        </linearGradient>
    </defs>
</svg>
