<svg xmlns="http://www.w3.org/2000/svg" width="534" height="91" fill="none" viewBox="0 0 534 91">
    <rect width="533" height="90" x=".5" y=".5" fill="#fff" fill-opacity=".1" rx="45"/>
    <path fill="#EADA22" d="M212.457 32.568v15.52h3.296v-15.52h-3.296zm-15.584 16.864v11.68h18.88v-11.68h-3.264v3.2h-12.352v-3.2h-3.264zm3.264 5.76h12.352v3.264h-12.352v-3.264zm.032-21.312c-4.416 0-7.68 2.752-7.68 6.72s3.264 6.72 7.68 6.72 7.648-2.752 7.648-6.72-3.232-6.72-7.648-6.72zm0 2.72c2.592 0 4.448 1.6 4.448 4 0 2.432-1.856 4-4.448 4-2.624 0-4.448-1.568-4.448-4 0-2.4 1.824-4 4.448-4zm38.173 9.568c-4.416-1.408-6.816-4.768-6.816-8.352v-.544h6.048v-2.656h-15.52v2.656h6.144v.576c0 3.936-2.528 7.648-7.072 9.216l1.664 2.592c3.456-1.184 5.888-3.648 7.168-6.72 1.248 2.688 3.552 4.768 6.784 5.792l1.6-2.56zm-3.712 12.704c-4.032 0-6.368-1.024-6.368-2.88 0-1.888 2.336-2.88 6.368-2.88s6.368.992 6.368 2.88c0 1.856-2.336 2.88-6.368 2.88zm0-8.352c-5.952 0-9.632 2.016-9.632 5.472 0 3.424 3.68 5.472 9.632 5.472s9.632-2.048 9.632-5.472c0-3.456-3.68-5.472-9.632-5.472zm9.312-10.912v-7.04h-3.296v17.28h3.296v-7.52h4.096v-2.72h-4.096zm21.662 8.576v2.592h6.016v3.616h3.296V32.568h-3.296v15.616h-6.016zm-7.104 4.352h3.296v-6.432c2.56-.192 5.184-.48 7.712-.928l-.256-2.336c-.992.128-2.016.256-3.008.352.575-3.68.575-6.368.575-7.936v-1.088h-13.567v2.688h10.304c-.064 1.6-.192 3.776-.672 6.592-4.32.288-8.704.32-12.288.352l.448 2.624c2.24 0 4.8-.032 7.456-.16v6.272zm-.48 5.696v-6.144h-3.296v8.832h20.864v-2.688H258.02zm40.785-13.056h-7.072v-4.32h7.072v4.32zm3.264-11.008h-3.264v4.096h-7.072v-4.096h-3.296V47.8h13.632V34.168zm-7.168 19.36h15.296v-2.624h-18.592V61.08h19.136v-2.624h-15.84v-4.928zm15.104-14.176v-6.784h-3.296v16.896h3.296v-7.392h4.096v-2.72h-4.096zm8.509-3.744v2.688h10.304c-.576 6.656-4.16 11.744-11.744 15.392l1.76 2.624c9.92-4.8 13.376-12.096 13.376-20.704h-13.696zm18.912-3.04v28.896h3.296V32.568h-3.296z"/>
    <rect width="533" height="90" x=".5" y=".5" stroke="#4D4D4D" rx="45"/>
    <rect width="533" height="90" x=".5" y=".5" stroke="url(#paint0_linear)" rx="45"/>
    <defs>
        <linearGradient id="paint0_linear" x1="267" x2="267" y1="0" y2="91" gradientUnits="userSpaceOnUse">
            <stop stop-color="#fff" stop-opacity=".5"/>
            <stop offset=".484" stop-color="#fff" stop-opacity="0"/>
        </linearGradient>
    </defs>
</svg>
