<svg width="90" height="90" viewBox="0 0 90 90" fill="none" xmlns="http://www.w3.org/2000/svg">
<rect x="0.5" y="0.5" width="89" height="89" rx="44.5" fill="white" fill-opacity="0.1"/>
<path d="M45.6077 62.1476C43.2278 62.1476 40.8479 62.1476 38.4665 62.1476C37.2812 62.1476 36.5447 61.4702 36.54 60.3374C36.5322 57.9888 36.5416 55.6388 36.5447 53.2888C36.5447 53.1779 36.5338 53.0655 36.5494 52.9575C36.6041 52.5892 36.4228 52.502 36.0584 52.5049C33.7176 52.5212 31.3769 52.5227 29.0345 52.5183C28.0056 52.5168 27.4364 52.1323 27.0987 51.27C26.8813 50.7154 27.044 50.2274 27.3817 49.7778C28.5701 48.1953 29.771 46.6218 30.964 45.0408C33.4925 41.691 36.0162 38.3368 38.5431 34.987C40.3538 32.5867 42.1786 30.1952 43.9752 27.7861C44.7602 26.7331 45.9876 26.8514 46.6178 27.477C46.8304 27.6885 46.9993 27.9428 47.1807 28.1824C49.0696 30.6803 50.9569 33.1797 52.8443 35.6791C56.3937 40.3777 59.9417 45.0763 63.4912 49.7748C63.8571 50.2599 64.137 50.7657 63.929 51.3839C63.6726 52.147 63.0893 52.5138 62.0917 52.5197C60.1794 52.5301 58.2686 52.5257 56.3562 52.5271C55.9653 52.5271 55.576 52.5242 55.185 52.5242C54.6565 52.5257 54.655 52.5271 54.6534 53.0093C54.6503 55.4451 54.644 57.8794 54.6487 60.3152C54.6503 60.9896 54.4501 61.5752 53.7871 61.8917C53.465 62.0455 53.0725 62.1328 52.7098 62.1358C50.3424 62.1579 47.975 62.1476 45.6077 62.1476Z" fill="#EADA22"/>
<rect x="0.5" y="0.5" width="89" height="89" rx="44.5" stroke="#4D4D4D"/>
<rect x="0.5" y="0.5" width="89" height="89" rx="44.5" stroke="url(#paint0_linear)"/>
<defs>
<linearGradient id="paint0_linear" x1="45" y1="0" x2="45" y2="90" gradientUnits="userSpaceOnUse">
<stop offset="0.484375" stop-color="white" stop-opacity="0"/>
<stop offset="1" stop-color="white" stop-opacity="0.5"/>
</linearGradient>
</defs>
</svg>
