<svg xmlns="http://www.w3.org/2000/svg" width="187" height="195" fill="none" viewBox="0 0 187 195">
    <path fill="#5AA269" d="M123.533 5.843s8.699 2.019 13.431 9.022c4.718 6.996 5.671 26.567 5.671 26.567s11.665 1.746 15.141-19.424c4.227-25.705-2.642-22.565-5.355-20.974-3.785 2.23-17.728 3.484-25.046 1.865-5.426-1.206-5.496 2.832-3.842 2.944z"/>
    <path fill="#EA6061" d="M167.702 25.33c-.211.015-.421.029-.645.036-3.526.119-6.527.07-8.945.028-2.355-.035-4.22-.063-5.811.049-1.732.126-2.951.413-3.954.94-.098.048-.259.097-.364.104-.386.028-.757-.189-.94-.546l-.679-1.34c-.148-.287-.141-.623.013-.904.148-.266.414-.434.708-.455.085-.007.204.007.288.028.196.049.526.105.96.077.778-.056 1.998-.407 3.428-1.753 1.949-1.843 4.669-3.77 10.031-4.164 1.858-.133 3.912-.084 6.288.14.372.036.701.246.904.583.078.133.141.273.169.42.399-.266.855-.533 1.367-.778.336-.161.666-.308.995-.456 1.465-.659 2.727-1.22 3.799-2.705.19-.26.47-.421.771-.442.302-.021.603.091.828.308.245.239.378.575.364.926-.07 2.166-1.023 9.288-9.575 9.905z"/>
    <path fill="#54A260" d="M148.537 20.326s2.496 3.862.421 7.353c-2.075 3.491 3.82-.624 3.82-.624s1.002-4.858-1.276-7.893"/>
    <path fill="#C38FBD" d="M161.792 142.909s6.792-6.674 1.92-12.653c-4.864-5.987-12.435 1.472-12.435 1.472"/>
    <path fill="#8D80BB" d="M151.362 125.426s8.594-2.033 7.599-9.12c-.981-7.08-10.571-4.801-10.571-4.801"/>
    <path fill="#EA6061" d="M145.356 55.902s8.412-1.22 8.09-8.104c-.351-6.884-9.751-5.517-9.751-5.517"/>
    <path fill="#F19963" d="M146.404 71.176s8.475-.813 8.468-7.71c-.014-6.892-9.47-5.973-9.47-5.973"/>
    <path fill="#FCD25B" d="M147.529 86.213s8.433-1.213 8.089-8.104c-.343-6.883-9.743-5.517-9.743-5.517"/>
    <path fill="#A1D6D3" d="M148.221 103.716s8.454-.981 8.314-7.865c-.14-6.89-9.582-5.797-9.582-5.797"/>
    <path fill="#BDB738" d="M57.978 78.13c-.771-1.64-1.998-5.468-4.767-4.704-2.488.687-2.103 4.788-1.43 6.757"/>
    <path fill="#F9EC3A" d="M184.824 143.875c-3.799-3.421-9.007 1.304-20.349-2.075-9.274-2.762-13.508-10.949-14.854-26.343-2.629-30.136-5.342-84.245-7.452-92.608 0-.007-.007-.021-.007-.028-1.886-9.877-10.564-17.342-20.988-17.342-8.145 0-15.225 4.556-18.835 11.257-.147.155-.281.295-.372.428-1.107 1.598-1.332 3.449-4.71 3.449-1.767 0-3.288-2.524-4.052-4.052l-.014.056C89.46 10.364 82.634 6.172 74.825 6.172c-11.805 0-21.38 9.569-21.38 21.38 0 1.017.077 2.02.217 3-27.177-.756-33.36 6.457-33.542 6.156-6.197-10.263-14.742-7.235-14.742-7.235l-.946.393c-3.82 1.858-6.737 11.819-1.9 22.55 5.243 11.63 15.765 15.92 36.598 15.479 12.065-.26 19.187-1.017 26.098-3.127 9.66-2.95 9.197 2.285 3.456 6.085-4.206 2.783-11.566 6.106-20.013 7.43-12.288 1.928-23.834 1.045-23.813 5.069.028 5.481 12.036 6.371 26.147 6.981 15.1.645 24.1-.392 19.887 27.444-3.63 23.981.505 38.085 15.45 49.399 12.59 9.533 50.051 10.592 64.66 5.867 18.162-5.888 41.905-21.885 33.822-29.168z"/>
    <path fill="#F9EC3A" d="M119.935 109.24l-.035-.161c-.399-1.802-2.096-3.155-3.939-3.155-.288 0-.568.035-.841.098-3.365.82-6.828 1.451-10.263 1.879-.07.007-.14.007-.203.007-.701 0-1.353-.267-2.047-.554-.806-.329-1.633-.673-2.65-.673-.07 0-.147 0-.217.007-1.5.077-3.021.112-4.528.112-5.237 0-10.557-.448-15.815-1.346-3.238-.546-6.638-1.36-10.396-2.481-1.71-.512-3.434-1.073-5.117-1.682-.245-.085-.497-.162-.75-.239-1.01-.301-1.633-.519-1.864-1.234-.14-.455-.197-.932-.26-1.437-.084-.729-.168-1.472-.518-2.236-1.024-2.222-3.127-3.49-5.763-3.49-.792 0-1.59.118-2.383.35-1.03.308-1.816.792-2.334 1.45-.54.688-.645 1.424-.73 2.069-.034.245-.07.498-.132.75-.043.161-.085.33-.526.33-.519 0-1.178-.253-1.585-.4-.54-.204-1.093-.309-1.654-.309-2.685 0-5.075 2.419-5.208 5.279-.07 1.528.547 3.154 1.71 4.465 1.143 1.29 2.32 1.654 3.68 2.082l.386.119c.21.07.35.14.42.224.078.099.022.596-.006.814-.035.273-.064.546-.05.813.204 2.565 2.328 4.717 5.055 5.11.28.042.56.063.827.063 3.014 0 4.626-2.46 6.042-4.633l.056-.092c.134-.203.26-.245.414-.245.413 0 1.03.323 1.521.589.252.133.49.259.701.35 1.157.498 2.313 1.038 3.309 1.508.518.245 1.037.511 1.563.771 1.143.581 2.32 1.177 3.547 1.612l.505.182c9.989 3.526 16.585 5.853 23.784 5.853.267 0 .54 0 .813-.007 6.239-.154 12.864-1.913 19.271-3.617 1.885-.497 3.666-.974 5.418-1.402 2.342-.546 1.332-5.061.792-7.493zM93.703 162.641s-1.921 12.632-5.286 13.137c-2.467.371-4.85-1.073-7.27-1.318-3.014-.316-5.586 3.449-2.214 5.103.28.14.224.547-.084.589-1.024.147-2.23.385-2.7 1.423-2.025 4.486 9.794 6.743 12.5 7.339 3.245.715 9.14 1.977 11.804-.834.294-.315.533-.673.687-1.072 2.348-6.183 3.4-13.677 5.3-20.224M136.717 167.667s3.393 12.317.533 14.153c-2.103 1.346-4.865 1.003-7.171 1.76-2.882.946-3.695 5.432.063 5.565.308.014.427.407.161.575-.876.554-1.879 1.262-1.879 2.398-.021 4.928 11.693 2.166 14.406 1.605 3.252-.673 9.147-1.921 10.437-5.573.14-.407.211-.834.19-1.262-.372-6.603-2.475-13.879-3.407-20.623"/>
    <path fill="#fff" d="M60.352 31.5c-2.58-7.956 1.773-16.501 9.736-19.081 7.957-2.58 16.509 1.78 19.082 9.737 2.586 7.956-1.774 16.501-9.737 19.088-7.957 2.58-16.502-1.78-19.081-9.744z"/>
    <path fill="#2E2624" d="M68.501 34.458c-4.198-1.114-6.715-5.426-5.607-9.631 1.114-4.22 5.432-6.73 9.638-5.623 4.206 1.115 6.723 5.426 5.608 9.64-1.107 4.212-5.425 6.722-9.639 5.614z"/>
    <path fill="#fff" d="M66.676 28.556c-1.598-.42-2.565-2.061-2.138-3.68.428-1.606 2.068-2.56 3.68-2.139 1.62.421 2.56 2.068 2.138 3.674-.413 1.619-2.067 2.58-3.68 2.145zM106.762 30.806c-2.58-7.957 1.773-16.502 9.737-19.081 7.956-2.58 16.508 1.78 19.081 9.736 2.586 7.957-1.774 16.502-9.737 19.088-7.956 2.58-16.501-1.78-19.081-9.743z"/>
    <path fill="#F9EC3A" d="M18.898 34.801c.323.52.652.722 1.255.813.603.092 1.22-.014 1.809-.168.4-.105.84-.238 1.22-.063.287.133.483.428.553.736.07.309.028.638-.056.94-.056.21-.133.42-.273.595-.253.316-.673.449-1.066.547-.932.224-1.892.33-2.853.316-.252-.007-.505-.014-.736-.113-.287-.119-.512-.35-.7-.595-.386-.52-.625-1.15-.674-1.795-.028-.308-.007-.63.154-.897.162-.26.498-.435.786-.33"/>
    <path fill="#2E2624" d="M115.193 33.54c-4.199-1.108-6.716-5.419-5.608-9.625 1.108-4.22 5.426-6.736 9.639-5.622 4.206 1.108 6.722 5.426 5.615 9.639-1.115 4.206-5.433 6.715-9.646 5.608z"/>
    <path fill="#fff" d="M113.383 27.645c-1.598-.421-2.565-2.061-2.138-3.68.428-1.606 2.068-2.56 3.673-2.139 1.62.421 2.566 2.068 2.139 3.674-.414 1.619-2.068 2.58-3.674 2.145z"/>
    <path fill="#F9EC3A" d="M175.032 98.886c-.203-.112-.617-.35-.673-.449 0 0 .007-.042.07-.12 1.171-1.625 1.115-3.287.898-4.689-.155-1.016-.021-2.054.084-2.88.133-1.052-1.108 1.233-1.563.721-.155-.175-.246-1.402-.722-1.395-.393.007.273-1.864-.442-1.507-.386.196-1.199.596-1.795.61-.35.007-.462-.12-.553-.358-.092-.259-.162-.525-.225-.813-.168-.694-.357-1.472-1.009-2.145-.631-.652-1.528-1.086-2.678-1.304-.617-.119-1.241-.175-1.858-.16-3.189.041-5.664 1.71-6.603 4.45-.294.856-.308 1.676-.315 2.475-.007.56-.014 1.093-.119 1.612-.176.841-.849 1.157-1.935 1.606-.267.112-.533.217-.792.343-1.767.848-3.582 1.654-5.398 2.404-3.975 1.64-7.599 2.909-11.076 3.87-7.276 2.012-14.699 3.231-22.074 3.617-1.205.063-2.173.582-3.028 1.037-.799.428-1.549.828-2.39.856-3.835-.077-7.697-.386-11.462-.905-.189-.028-.378-.035-.567-.035-2.124.028-3.982 1.718-4.234 3.842l-.021.189c-.316 2.685-.912 7.676 1.633 8.026 1.956.274 3.953.589 6.07.926 6.197.981 12.597 2.004 18.654 1.92.953-.014 1.885-.056 2.762-.119 8.201-.631 15.344-4.009 26.161-9.113l.539-.252c1.29-.61 2.51-1.395 3.688-2.152.539-.344 1.079-.694 1.619-1.017 1.03-.623 2.236-1.345 3.449-2.018.189-.106.385-.225.582-.351.574-.364 1.17-.736 1.738-.743.252-.007.498.07.75.224 1.935 1.185 2.895-.862 4.115-.883.722-.007.813.295 2.103-.028.701-.175 2.544-.301 2.797-.743.238-.421-.484 1.094-.575.806-.119-.392-.238-.799.435-1.612.168-.112.855-.259 1.311-.351 1.205-.252 1.962-.434 2.313-.946.077-.105-2.363-.617-2.124-.715.196-.084.652-.813.68-1.409.035-.624 2.243-.056 1.78-.322z"/>
    <path fill="#E297A6" d="M168.198 86.372l-2.82 14.563 3.483.674 2.82-14.563-3.483-.674z"/>
    <path fill="#F4E9E2" d="M172.603 86.352c-.239 1.22-1.55 1.984-2.937 1.718-1.388-.267-2.321-1.472-2.082-2.692l.147-.764c.238-1.22 1.549-1.984 2.937-1.718 1.388.267 2.32 1.472 2.082 2.692l-.147.764z"/>
    <path fill="#C38FBD" d="M185.274 75.157c-1.325 6.863-7.963 11.342-14.826 10.017-6.863-1.325-11.342-7.963-10.017-14.826 1.325-6.862 7.963-11.342 14.826-10.017 6.856 1.325 11.342 7.964 10.017 14.826z"/>
    <path fill="#AF7EAC" d="M163.164 64.607c-1.346 1.599-2.313 3.547-2.741 5.734-1.325 6.863 3.155 13.502 10.017 14.827 3.351.644 6.639-.092 9.295-1.816-9.204-.617-20.055-9.758-16.571-18.745z"/>
    <path fill="#F4E9E2" d="M185.15 75.67c.042-.169.078-.344.113-.512.343-1.788.294-3.561-.092-5.237-7.591.863-15.919-1.268-22.691-4.43-.988 1.416-1.71 3.05-2.061 4.851-.049.252-.091.512-.119.764 7.41 3.982 16.572 6.337 24.85 4.564z"/>
    <path fill="#C38FBD" d="M172.246 74.827l-1.739-2.383c-.434-.596-.308-1.437.295-1.879.596-.434 1.437-.308 1.878.295l.253.343.336-.217c.624-.4 1.451-.217 1.858.4.399.623.217 1.45-.4 1.857l-2.481 1.584zM181.328 75.571l-2.258-1.9c-.567-.476-.638-1.325-.161-1.892.477-.568 1.325-.638 1.893-.162l.322.274.274-.288c.511-.54 1.36-.56 1.899-.049.54.512.561 1.36.049 1.9l-2.018 2.117zM163.898 72.059l-1.115-2.734c-.28-.687.049-1.472.736-1.752.687-.28 1.472.049 1.753.736l.161.392.378-.126c.701-.238 1.465.14 1.704.841.238.701-.14 1.465-.841 1.704l-2.776.939z"/>
    <path fill="#F4E9E2" d="M182.035 64.979c-.764-.848-1.605-1.69-2.58-2.3-.624-.385-2.089-.89-2.061.421.021.785.449 1.318 1.031 1.809 1.353 1.121 2.685 2.432 3.701 3.918.596.87 1.332 3.526 2.615 3.463.484-1.928-.477-4.185-1.535-5.846-.155-.266-.596-.827-1.171-1.465z" opacity=".7"/>
    <path fill="#8D80BB" d="M170.816 105.924c-.813-1.206-2.046-2.019-3.469-2.293-2.945-.567-5.798 1.36-6.365 4.304-.568 2.945 1.359 5.798 4.304 6.365.35.071.701.099 1.044.099 1.073 0 2.124-.316 3.028-.933 1.206-.813 2.019-2.047 2.293-3.47.273-1.423-.021-2.874-.835-4.072zm-1.724 3.575c-.294 1.528-1.788 2.537-3.316 2.236-.743-.147-1.381-.568-1.808-1.192-.421-.624-.575-1.381-.435-2.124.147-.743.568-1.381 1.192-1.808.469-.323 1.016-.484 1.577-.484.182 0 .365.014.547.049 1.535.308 2.537 1.795 2.243 3.323z"/>
    <path fill="#F9EC3A" d="M176.992 96.474c-.631 4.97-5.209 9.59-9.695 9.022-4.486-.568-7.185-6.112-6.554-11.09.631-4.977 4.781-8.545 9.267-7.97 4.486.575 7.613 5.068 6.982 10.038z"/>
    <path fill="#EA6061" d="M139.221 40.704c.098 2.306-3.274 4.311-7.522 4.486-4.248.176-7.767-1.556-7.858-3.855-.091-2.306 3.274-4.311 7.522-4.486 4.241-.176 7.76 1.549 7.858 3.855z"/>
</svg>
