<svg width="340" height="99" fill="none" xmlns="http://www.w3.org/2000/svg">
    <g clip-path="url(#a)">
        <path d="M292.781 99.001s20.633-1.68 20.868-18.483c.218-16.803-22.84-14.913-22.84-14.913" fill="#F06569"/>
        <path d="M259.075 8.829s13.098 3.051 20.217 13.633c7.101 10.572 8.531 40.154 8.531 40.154s17.558 2.643 22.795-29.355c6.36-38.846-3.98-34.105-8.06-31.698-5.699 3.37-26.685 5.268-37.703 2.815-8.168-1.825-8.268 4.278-5.78 4.45z" fill="#5AA269"/>
        <path d="M325.553 38.292c-.316.027-.633.036-.968.055-5.31.172-9.833.1-13.46.045-3.546-.055-6.35-.1-8.747.073-2.615.19-4.442.626-5.944 1.416a1.664 1.664 0 0 1-.551.155c-.579.045-1.14-.282-1.412-.827l-1.022-2.025a1.453 1.453 0 0 1 .027-1.362c.227-.4.625-.654 1.068-.69.126-.01.307.008.434.036.299.081.796.163 1.447.118 1.167-.082 3.013-.618 5.157-2.652 2.93-2.78 7.019-5.704 15.106-6.295 2.795-.2 5.889-.136 9.462.218.552.055 1.05.373 1.357.881.118.2.208.41.253.636a17.26 17.26 0 0 1 2.063-1.18 43.239 43.239 0 0 1 1.501-.69c2.208-.99 4.107-1.845 5.718-4.088.28-.39.705-.636 1.166-.663.453-.036.905.136 1.24.463.362.354.561.863.542 1.399-.126 3.27-1.564 14.032-14.437 14.977 0-.009 0-.009 0 0z" fill="#EA6061"/>
        <path d="M293.983 99.537c-.941-11.28-1.664-22.58-2.623-33.85-.462-5.432-.887-10.9-1.764-16.286-.561-3.406-1.059-6.485-1.764-9.219-3.031-18.828-19.322-33.215-38.961-33.215-13.641 0-25.663 6.94-32.746 17.475l-.018.018c-1.14 1.908-3.429 4.206-4.948 4.206-2.334 0-3.791-2.335-4.876-4.206-6.35-13.324-19.91-22.524-35.632-22.524-20.335 0-37.07 15.404-39.223 35.194v-.009l-.018.191-.027.327-.887 9.3c-.063.518-.118 2.353-.172 3.052-.588 7.048-4.324 7.902-5.527 7.984-48.839-.5-75.859 3.079-86.008 4.823-4.596.481-7.554-2.698-7.554-2.698l-.009.01c-8.005-8.675-18.2-8.52-24.804-4.006-6.64 4.541-10.14 16.748-.38 35.504 12.466 23.95 40.897 27.338 83.177 28.437 56.646 1.472 77.397-5.649 83.585-8.683.588-.29 1.158.445.724.927-8.585 9.4-41.25 13.278-66.036 14.305-25.51 1.053-48.17-1.59-57.378-2.879-2.225-.309-4.062 1.725-3.537 3.914 3.374 14.087 14.537 25.876 52.168 28.719 18.58 1.399 37.179 4.142 55.768 5.631 47.79 3.842 74.385 7.83 112.794-2.879 12.429-3.487 20.19-13.887 24.369-25.631 3.881-10.899 3.257-22.597 2.307-33.932z" fill="#F7E74D"/>
        <path d="M296.706 30.727s3.763 5.84.633 11.117c-3.121 5.277 5.753-.935 5.753-.935s1.511-7.339-1.927-11.926" fill="#54A260"/>
        <path d="M139.967 49.964c-5.355-16.594 3.709-34.396 20.272-39.782 16.563-5.386 34.338 3.715 39.712 20.3 5.364 16.584-3.709 34.386-20.263 39.772-16.573 5.386-34.348-3.706-39.721-20.29z" fill="#fff"/>
        <path d="M179.8 65.47c-4.858-1.28-7.752-6.276-6.468-11.144 1.276-4.877 6.269-7.784 11.127-6.503 4.857 1.29 7.77 6.285 6.485 11.162-1.293 4.868-6.277 7.775-11.144 6.485z" fill="#302E2F"/>
        <path d="M183.967 62.827a2.731 2.731 0 0 1-1.945-3.352 2.736 2.736 0 0 1 3.347-1.962 2.755 2.755 0 0 1 1.945 3.361 2.749 2.749 0 0 1-3.347 1.953z" fill="#fff"/>
        <path d="M12.212 61.163c2.867-1.254 6.34.39 7.761 3.669 1.42 3.279.244 6.948-2.632 8.202-2.868 1.253-6.342-.391-7.762-3.67-1.41-3.279-.235-6.948 2.633-8.201z" fill="#B7B149"/>
        <path d="M217.229 55.113c-5.491-16.984 4.134-35.24 21.439-40.145 15.613-4.432 32.52 4.206 38.129 19.482 6.196 16.912-2.895 35.45-19.865 40.954-16.554 5.386-34.32-3.715-39.703-20.29z" fill="#fff"/>
        <path d="M256.581 70.43c-4.858-1.282-7.752-6.277-6.468-11.145 1.276-4.877 6.269-7.784 11.127-6.503 4.857 1.29 7.77 6.285 6.486 11.162-1.294 4.868-6.278 7.775-11.145 6.485z" fill="#302E2F"/>
        <path d="M260.765 67.359a2.731 2.731 0 0 1-1.944-3.351 2.736 2.736 0 0 1 3.347-1.962 2.755 2.755 0 0 1 1.944 3.36 2.737 2.737 0 0 1-3.347 1.953z" fill="#fff"/>
    </g>
    <defs>
        <clipPath id="a">
            <path fill="#fff" d="M0 0h340v99H0z"/>
        </clipPath>
    </defs>
</svg>
