<svg xmlns="http://www.w3.org/2000/svg" width="310" height="151" fill="none" viewBox="0 0 310 151">
    <g clip-path="url(#clip0)">
        <path fill="#F06569" d="M266.946 89.9s18.814-1.525 19.028-16.784c.198-15.258-20.826-13.543-20.826-13.543"/>
        <path fill="#F6946A" d="M263.763 125.3s22.896-2.12 23.506-17.378c.602-15.242-20.438-14.088-20.438-14.088"/>
        <path fill="#5AA269" d="M236.215 8.017s11.943 2.77 18.434 12.38c6.475 9.6 7.778 36.463 7.778 36.463s16.009 2.4 20.784-26.657c5.798-35.276-3.629-30.97-7.349-28.785-5.196 3.06-24.331 4.784-34.376 2.557-7.448-1.658-7.539 3.885-5.271 4.042z"/>
        <path fill="#EA6061" d="M296.828 34.772c-.288.025-.577.033-.882.05-4.842.156-8.965.09-12.273.041-3.233-.05-5.79-.09-7.975.066-2.384.173-4.05.569-5.419 1.287-.132.066-.355.132-.503.14-.528.041-1.039-.256-1.287-.75l-.932-1.84c-.198-.396-.19-.858.025-1.237.206-.363.569-.594.973-.627.116-.008.28.008.396.033.272.074.726.149 1.32.107 1.064-.074 2.746-.56 4.701-2.408 2.672-2.524 6.4-5.18 13.774-5.716 2.548-.181 5.369-.123 8.627.198.503.05.956.338 1.237.8.107.182.19.371.231.578.552-.363 1.171-.735 1.88-1.073.462-.222.916-.429 1.369-.627 2.013-.899 3.745-1.674 5.213-3.711.256-.355.643-.577 1.064-.602.412-.033.825.124 1.13.42.33.322.511.784.495 1.27-.116 2.97-1.427 12.743-13.164 13.601 0-.008 0-.008 0 0z"/>
        <path fill="#F7E74D" d="M268.044 90.387c-.858-10.244-1.518-20.504-2.392-30.74-.421-4.932-.808-9.897-1.609-14.788-.511-3.093-.965-5.889-1.608-8.371-2.763-17.098-17.617-30.162-35.523-30.162-12.438 0-23.399 6.3-29.857 15.868l-.016.017c-1.039 1.732-3.126 3.819-4.512 3.819-2.128 0-3.456-2.12-4.445-3.82-5.79-12.099-18.154-20.454-32.488-20.454-18.541 0-33.799 13.989-35.762 31.96v-.008l-.017.173-.025.297-.808 8.446c-.058.47-.107 2.136-.157 2.771-.536 6.4-3.942 7.176-5.039 7.25-44.53-.454-69.166 2.796-78.42 4.38-4.19.437-6.887-2.45-6.887-2.45l-.008.008c-7.3-7.876-16.594-7.736-22.615-3.637-6.054 4.124-9.246 15.209-.347 32.24 11.366 21.75 37.288 24.826 75.838 25.824 51.648 1.336 70.568-5.13 76.21-7.885.536-.264 1.055.404.66.842-7.828 8.536-37.61 12.058-60.209 12.99-23.259.956-43.92-1.444-52.315-2.615-2.03-.28-3.704 1.567-3.225 3.555 3.076 12.792 13.254 23.498 47.564 26.079 16.941 1.271 33.899 3.761 50.848 5.114 43.573 3.489 67.821 7.11 102.841-2.615 11.332-3.167 18.409-12.61 22.219-23.275 3.539-9.897 2.97-20.52 2.104-30.813z"/>
        <path fill="#54A260" d="M270.526 27.902s3.431 5.303.578 10.095c-2.846 4.792 5.245-.85 5.245-.85s1.377-6.663-1.757-10.829"/>
        <path fill="#fff" d="M127.617 45.37c-4.882-15.068 3.382-31.233 18.484-36.124 15.101-4.891 31.308 3.373 36.207 18.433 4.891 15.06-3.381 31.226-18.475 36.117-15.11 4.891-31.317-3.365-36.216-18.425z"/>
        <path fill="#302E2F" d="M165.961 52.992c-4.429-1.163-7.068-5.7-5.897-10.12 1.163-4.43 5.716-7.069 10.145-5.906 4.429 1.172 7.084 5.708 5.913 10.137-1.179 4.42-5.724 7.06-10.161 5.889z"/>
        <path fill="#fff" d="M172.122 46.17c-1.336-.354-2.136-1.715-1.773-3.043.355-1.336 1.716-2.136 3.052-1.781 1.328.355 2.128 1.724 1.773 3.052-.355 1.327-1.724 2.12-3.052 1.773z"/>
        <path fill="#B7B149" d="M11.134 55.54c2.615-1.138 5.782.355 7.077 3.332s.223 6.31-2.4 7.448c-2.615 1.138-5.782-.355-7.077-3.332-1.286-2.978-.214-6.31 2.4-7.448z"/>
        <path fill="#fff" d="M198.061 50.047c-5.006-15.423 3.77-32.001 19.548-36.455 14.235-4.025 29.65 3.819 34.764 17.692 5.65 15.357-2.639 32.19-18.112 37.189-15.094 4.89-31.292-3.374-36.2-18.426z"/>
        <path fill="#302E2F" d="M235.968 57.495c-4.429-1.163-7.068-5.7-5.897-10.12 1.163-4.43 5.715-7.069 10.144-5.906 4.43 1.171 7.085 5.708 5.914 10.137-1.179 4.42-5.724 7.06-10.161 5.889z"/>
        <path fill="#fff" d="M242.145 50.286c-1.336-.354-2.136-1.715-1.773-3.043.355-1.336 1.716-2.136 3.052-1.782 1.328.355 2.128 1.724 1.773 3.052-.355 1.336-1.715 2.12-3.052 1.773z"/>
    </g>
    <defs>
        <clipPath id="clip0">
            <path fill="#fff" d="M0 0H310V150.744H0z"/>
        </clipPath>
    </defs>
</svg>
