<svg xmlns="http://www.w3.org/2000/svg" width="327" height="102" fill="none" viewBox="0 0 327 102">
    <g clip-path="url(#clip0)">
        <path fill="#F06569" d="M288.808 80s16.689-1.357 16.879-14.935c.176-13.578-18.474-12.051-18.474-12.051"/>
        <path fill="#5AA269" d="M261.546 7.134S272.14 9.6 277.899 18.151c5.743 8.543 6.899 32.447 6.899 32.447s14.202 2.136 18.438-23.72c5.143-31.392-3.219-27.56-6.519-25.616-4.61 2.723-21.584 4.257-30.496 2.276-6.606-1.476-6.687 3.457-4.675 3.596z"/>
        <path fill="#EA6061" d="M315.316 30.943c-.257.022-.513.03-.783.044-4.295.14-7.953.081-10.887.037-2.868-.044-5.137-.08-7.075.059-2.115.154-3.593.506-4.807 1.145-.118.058-.315.117-.447.124-.468.037-.922-.227-1.141-.667l-.827-1.637c-.176-.352-.168-.763.022-1.101.183-.323.505-.528.863-.558.103-.007.249.007.352.03.241.066.643.132 1.17.095.944-.066 2.437-.5 4.171-2.143 2.37-2.246 5.677-4.61 12.218-5.086 2.261-.162 4.763-.11 7.653.176.447.044.849.3 1.098.712.095.161.168.33.205.513.49-.323 1.039-.653 1.668-.954.41-.198.812-.381 1.214-.558 1.786-.8 3.322-1.49 4.625-3.302.226-.316.57-.514.943-.536.366-.03.732.11 1.003.374.292.286.453.697.439 1.13-.103 2.643-1.266 11.34-11.677 12.103 0-.007 0-.007 0 0z"/>
        <path fill="#F7E74D" d="M289.781 80.434c-.761-9.116-1.346-18.246-2.122-27.354-.373-4.39-.717-8.808-1.427-13.16-.453-2.752-.856-5.24-1.426-7.45-2.451-15.214-15.628-26.84-31.513-26.84-11.033 0-20.757 5.607-26.486 14.121l-.014.015c-.922 1.541-2.773 3.398-4.002 3.398-1.888 0-3.066-1.886-3.944-3.398-5.136-10.767-16.104-18.202-28.82-18.202-16.448 0-29.983 12.448-31.724 28.44v-.007l-.015.154-.022.264-.717 7.516c-.051.418-.095 1.9-.139 2.466-.476 5.695-3.497 6.385-4.471 6.451-39.502-.403-61.356 2.488-69.565 3.898-3.717.389-6.11-2.18-6.11-2.18l-.007.007c-6.475-7.009-14.72-6.884-20.062-3.237-5.37 3.67-8.202 13.534-.307 28.69 10.082 19.355 33.078 22.092 67.275 22.98 45.817 1.19 62.601-4.565 67.605-7.016.476-.235.937.36.586.748-6.944 7.597-33.364 10.731-53.411 11.56-20.633.851-38.96-1.285-46.409-2.327-1.8-.25-3.285 1.395-2.86 3.164 2.728 11.383 11.757 20.91 42.194 23.207 15.028 1.13 30.071 3.347 45.106 4.55 38.654 3.105 60.164 6.327 91.23-2.326 10.053-2.819 16.331-11.222 19.711-20.712 3.139-8.808 2.634-18.26 1.866-27.42z"/>
        <path fill="#54A260" d="M291.983 24.83s3.044 4.719.512 8.983c-2.524 4.264 4.653-.756 4.653-.756s1.222-5.93-1.558-9.637"/>
        <path fill="#fff" d="M165.209 40.374c-4.332-13.409 3-27.794 16.396-32.146 13.397-4.353 27.774 3.002 32.12 16.403 4.339 13.402-3 27.788-16.389 32.14-13.404 4.352-27.781-2.995-32.127-16.397z"/>
        <path fill="#302E2F" d="M175.685 49.934c-3.929-1.035-6.27-5.072-5.232-9.006 1.032-3.941 5.071-6.29 9-5.255 3.929 1.042 6.285 5.079 5.246 9.02-1.046 3.934-5.078 6.283-9.014 5.24z"/>
        <path fill="#fff" d="M174.651 47.438c-1.186-.316-1.895-1.527-1.573-2.709.314-1.188 1.521-1.9 2.707-1.585 1.178.316 1.887 1.534 1.573 2.716-.315 1.181-1.529 1.886-2.707 1.578z"/>
        <path fill="#B7B149" d="M61.877 49.424c2.32-1.013 5.13.316 6.278 2.965 1.149 2.65.198 5.615-2.129 6.628-2.32 1.012-5.129-.316-6.278-2.966-1.141-2.649-.19-5.614 2.13-6.627z"/>
        <path fill="#fff" d="M227.7 44.536c-4.441-13.725 3.343-28.477 17.34-32.44 12.628-3.582 26.303 3.397 30.839 15.742 5.012 13.667-2.341 28.646-16.067 33.094-13.389 4.352-27.759-3.002-32.112-16.396z"/>
        <path fill="#302E2F" d="M237.787 53.94c-3.929-1.034-6.27-5.07-5.231-9.005 1.032-3.941 5.07-6.29 8.999-5.255 3.929 1.042 6.285 5.079 5.246 9.02-1.046 3.934-5.077 6.283-9.014 5.24z"/>
        <path fill="#fff" d="M236.769 51.1c-1.185-.315-1.895-1.526-1.573-2.708.314-1.189 1.522-1.9 2.707-1.585 1.178.316 1.888 1.534 1.573 2.715-.315 1.19-1.522 1.887-2.707 1.578z"/>
    </g>
    <path fill="#F7E74D" stroke="#D8C53D" stroke-miterlimit="10" d="M17.814 70.244c4.466-1.012 9.22-.706 13.345 1.348 4.742 2.365 10.584 7.614 8.646 13.526-1.54 4.7-8.534 8.35-12.035 3.927 0 0-7.323 7.235-12.845-1.266 0 0-8.02 4.46-10.594-3.326-1.88-5.674 3.7-10.092 8.185-12.326 1.675-.83 3.46-1.47 5.298-1.883zM283.814 70.244c4.466-1.012 9.22-.706 13.345 1.348 4.742 2.365 10.584 7.614 8.646 13.526-1.54 4.7-8.534 8.35-12.035 3.927 0 0-7.323 7.235-12.845-1.266 0 0-8.02 4.46-10.594-3.326-1.881-5.674 3.699-10.092 8.185-12.326 1.675-.83 3.461-1.47 5.298-1.883z"/>
    <defs>
        <clipPath id="clip0">
            <path fill="#fff" d="M0 0H275V80H0z" transform="translate(52)"/>
        </clipPath>
    </defs>
</svg>
