<svg xmlns="http://www.w3.org/2000/svg" width="310" height="149" fill="none" viewBox="0 0 310 149">
    <g clip-path="url(#clip0)">
        <path fill="#BDB738" d="M65.582 110.349l9.173-7.943c.881-.758 2.186-.538 2.78.465l4.836 8.203M45.76 108.335l9.744-8.081c.677-.563 1.655-.375 2.087.399l4.942 8.782M85.453 112.175l8.83-8.578c.792-.766 2.031-.636 2.643.285l5.349 7.991M105.17 112.02l8.203-9.027c.783-.864 2.112-.815 2.813.115l5.749 7.526M123.859 110.381l7.918-9.279c.758-.889 2.079-.881 2.821.024l5.985 7.339"/>
        <path fill="#5AA269" d="M238.408 13.83s11.522 3.848 17.034 13.935c5.496 10.078 4.289 36.7 4.289 36.7s15.566 3.858 22.986-24.372c9.002-34.271-.701-30.895-4.574-29.085-5.414 2.536-24.446 2.454-34.157-.677-7.192-2.324-7.804 3.131-5.578 3.498z"/>
        <path fill="#F06569" d="M258.385 96.731s18.632.245 20.263-14.734c1.606-14.987-19.22-15.24-19.22-15.24"/>
        <path fill="#F6946A" d="M251.83 129.779s21.421 2.667 25.025-11.978c3.596-14.628-16.993-17.67-16.993-17.67"/>
        <path fill="#EA6061" d="M295.722 45.858c-.285-.008-.579-.016-.872-.032-4.795-.294-8.847-.742-12.109-1.1-3.188-.352-5.708-.629-7.877-.678-2.364-.049-4.052.188-5.471.767-.139.057-.367.098-.514.098-.53-.008-.994-.351-1.198-.856l-.751-1.9c-.163-.408-.114-.865.139-1.223.237-.335.62-.539 1.019-.53.115 0 .278.032.384.073.261.098.701.212 1.296.228 1.06.025 2.764-.293 4.86-1.94 2.878-2.243 6.8-4.518 14.123-4.355 2.536.057 5.308.384 8.496.995.498.098.913.424 1.15.905.09.188.155.383.179.587.579-.31 1.223-.611 1.957-.88.481-.18.946-.335 1.411-.49 2.063-.7 3.849-1.304 5.488-3.18.285-.326.685-.505 1.1-.497.408.008.799.196 1.077.522.301.35.432.823.375 1.296-.4 2.92-2.593 12.443-14.262 12.19.009 0 .009 0 0 0z"/>
        <path fill="#54A260" d="M270.413 36.636s2.894 5.553-.367 10.013c-3.254 4.46 5.259-.35 5.259-.35s1.973-6.45-.726-10.853"/>
        <path fill="#F7E74D" d="M262.437 52.765c-.212-3.099-.407-5.904-.807-8.407-1.133-17.124-14.579-31.401-32.249-33.065-12.272-1.158-23.671 4.037-30.936 12.884l-.017.016c-1.19 1.614-3.433 3.473-4.802 3.343-2.096-.196-3.213-2.414-4.037-4.175-4.582-12.476-16.014-21.869-30.153-23.198-18.29-1.72-34.647 10.657-38.259 28.213v-.008l-.033.171c-.016.098-.032.188-.057.285l-1.582 8.26c-.097.457-.301 2.096-.415 2.724-1.126 6.27-4.559 6.71-5.651 6.686-43.893-4.582-68.502-3.677-77.781-2.976-4.175.04-6.573-3.058-6.573-3.058l-.008.008c-6.442-8.455-15.623-9.173-21.942-5.691C.775 38.283-3.4 48.924 3.8 66.56c9.19 22.522 34.491 27.96 72.432 32.527 50.857 6.123 70.125 1.492 75.938-.693.547-.204.995.505.563.897-8.521 7.689-39.376 11.122-61.897 10.738-23.06-.399-43.608-2.829-51.786-4.77-1.966-.464-3.808 1.191-3.523 3.189 1.843 12.916 12.223 19.357 45.85 25.089 23.076 3.939 45.524 7.461 68.804 9.924 11.652 1.231 23.304 2.405 34.948 3.637 10.829 1.149 23.565 2.372 34.94 1.639 7.673-.49 15.093-2.251 21.755-6.385 11.701-7.265 19.048-20.499 19.48-34.206.824-27.235 1.623-48.403 1.133-55.382z"/>
        <path fill="#fff" d="M127.773 40.591c-3.416-15.321 6.238-30.504 21.592-33.92 15.354-3.417 30.578 6.237 34.011 21.55 3.424 15.314-6.246 30.496-21.592 33.921-15.346 3.417-30.57-6.238-34.011-21.551z"/>
        <path fill="#B7B149" d="M11.905 39.792c2.682-.881 5.675.888 6.67 3.946.994 3.058-.367 6.246-3.058 7.119-2.683.88-5.675-.89-6.67-3.947-.995-3.05.367-6.238 3.058-7.118z"/>
        <path fill="#fff" d="M196.855 51.754c-3.507-15.68 6.686-31.222 22.676-34.15 14.425-2.641 28.906 6.524 32.657 20.688 4.15 15.68-5.602 31.515-21.331 35.013-15.346 3.416-30.569-6.238-34.002-21.551z"/>
        <path fill="#000" d="M148.012 35.446c-.049.391.081-.326.106-.4.065-.26.146-.522.228-.774.155-.473-.041.016.155-.392.138-.285.285-.563.456-.823.473-.783 1.069-1.444 1.778-2.015 1.508-1.214 3.311-1.81 5.276-1.606-.384-.04.399.082.399.082.261.057.522.13.783.212.546.18.554.18 1.125.505.905.506 1.435.963 2.202 1.835 1.215 1.378 1.834 3.22 1.72 5.186-.073 1.353 1.207 2.511 2.512 2.511 1.419 0 2.43-1.15 2.511-2.511.367-6.417-4.9-12.288-11.244-12.834-3.115-.27-6.173.945-8.57 2.878-2.552 2.055-4.02 4.941-4.436 8.154-.179 1.345 1.28 2.511 2.512 2.511 1.484-.008 2.315-1.174 2.487-2.52zM216.57 47.188c.245-1.224.416-1.697 1.118-2.748.008-.017.473-.62.228-.327.196-.236.399-.456.611-.676.212-.22.441-.424.669-.62.359-.302-.098.04.326-.245 1.06-.717 1.566-.97 2.707-1.256.253-.065.506-.122.767-.163-.432.074.35-.024.367-.024.261-.016.522-.016.783-.008.171.008.35.016.521.032-.187-.032-.195-.032-.016 0 1.191.204 1.696.425 2.65 1.028.008.008.644.448.343.212.244.187.464.391.685.603.22.212.432.432.636.66.049.058.473.604.261.31.309.425.578.873.823 1.338.237.456.31.62.506 1.337.277 1.011.318 1.672.163 2.944-.163 1.345 1.272 2.511 2.511 2.511 1.492 0 2.34-1.158 2.512-2.511.75-6.042-3.98-12.37-10.005-13.316-6.222-.97-12.753 3.303-14.001 9.581-.261 1.33.375 2.707 1.753 3.09 1.232.335 2.822-.423 3.082-1.752z"/>
    </g>
    <defs>
        <clipPath id="clip0">
            <path fill="#fff" d="M0 0H310V148.958H0z"/>
        </clipPath>
    </defs>
</svg>
