<svg width="234" height="244" viewBox="0 0 234 244" fill="none" xmlns="http://www.w3.org/2000/svg">
<path d="M154.979 7.31148C154.979 7.31148 165.864 9.83763 171.785 18.6002C177.688 27.354 178.881 51.8437 178.881 51.8437C178.881 51.8437 193.476 54.0277 197.827 27.5382C203.116 -4.62633 194.52 -0.696771 191.125 1.29433C186.389 4.08362 168.943 5.6537 159.785 3.62751C152.996 2.11884 152.909 7.17114 154.979 7.31148Z" fill="#5AA269"/>
<path d="M210.246 31.6962C209.983 31.7137 209.72 31.7313 209.439 31.7401C205.027 31.8892 201.273 31.8278 198.247 31.7751C195.3 31.7313 192.967 31.6962 190.976 31.8365C188.809 31.9944 187.283 32.354 186.029 33.0119C185.906 33.0733 185.704 33.1347 185.573 33.1435C185.09 33.1786 184.625 32.9066 184.397 32.4593L183.546 30.784C183.362 30.4243 183.371 30.0033 183.564 29.6525C183.748 29.3192 184.081 29.1086 184.45 29.0823C184.555 29.0736 184.704 29.0911 184.81 29.1174C185.055 29.1788 185.467 29.249 186.011 29.2139C186.985 29.1437 188.511 28.7052 190.3 27.0211C192.739 24.7142 196.142 22.3021 202.852 21.8109C205.177 21.6442 207.747 21.7056 210.72 21.9863C211.185 22.0302 211.597 22.2933 211.852 22.7143C211.948 22.881 212.027 23.0564 212.062 23.2406C212.562 22.9073 213.132 22.574 213.772 22.267C214.194 22.0652 214.606 21.881 215.018 21.6968C216.851 20.8723 218.43 20.1706 219.772 18.3111C220.009 17.9866 220.36 17.7848 220.737 17.7585C221.114 17.7322 221.491 17.8725 221.772 18.1444C222.079 18.4427 222.246 18.8637 222.228 19.3023C222.14 22.0126 220.948 30.9243 210.246 31.6962Z" fill="#EA6061"/>
<path d="M186.269 25.4331C186.269 25.4331 189.391 30.2661 186.795 34.6343C184.199 39.0024 191.575 33.8536 191.575 33.8536C191.575 33.8536 192.83 27.775 189.979 23.9771" fill="#54A260"/>
<path d="M202.848 178.82C202.848 178.82 211.348 170.469 205.252 162.987C199.164 155.497 189.691 164.829 189.691 164.829" fill="#C38FBD"/>
<path d="M189.801 156.944C189.801 156.944 200.555 154.4 199.309 145.532C198.082 136.673 186.082 139.524 186.082 139.524" fill="#8D80BB"/>
<path d="M182.29 69.9495C182.29 69.9495 192.815 68.4233 192.412 59.8098C191.973 51.1964 180.211 52.9068 180.211 52.9068" fill="#EA6061"/>
<path d="M183.59 89.0617C183.59 89.0617 194.195 88.0443 194.186 79.4132C194.169 70.791 182.336 71.94 182.336 71.94" fill="#F19963"/>
<path d="M185.007 107.877C185.007 107.877 195.559 106.359 195.129 97.7371C194.699 89.1236 182.937 90.834 182.937 90.834" fill="#FCD25B"/>
<path d="M185.869 129.779C185.869 129.779 196.448 128.551 196.272 119.937C196.097 111.315 184.282 112.683 184.282 112.683" fill="#A1D6D3"/>
<path d="M72.9515 97.7618C71.9866 95.7093 70.4516 90.9201 66.987 91.8762C63.8731 92.7358 64.3555 97.867 65.1976 100.332" fill="#BDB738"/>
<path d="M231.67 180.028C226.916 175.747 220.398 181.659 206.206 177.432C194.602 173.976 189.304 163.731 187.62 144.469C184.331 106.761 180.936 39.0546 178.296 28.5904C178.296 28.5816 178.287 28.5641 178.287 28.5553C175.928 16.1965 165.069 6.85498 152.026 6.85498C141.833 6.85498 132.974 12.5564 128.457 20.9418C128.273 21.1348 128.106 21.3102 127.992 21.4768C126.606 23.4767 126.326 25.7923 122.098 25.7923C119.887 25.7923 117.984 22.6347 117.028 20.7225L117.01 20.7927C112.344 12.9686 103.801 7.72334 94.0294 7.72334C79.2584 7.72334 67.2767 19.6962 67.2767 34.476C67.2767 35.7478 67.3732 37.0021 67.5487 38.2301C33.5421 37.2828 25.8058 46.3085 25.5777 45.9314C17.8238 33.0901 7.13158 36.8793 7.13158 36.8793L5.94742 37.3705C1.16703 39.695 -2.48182 52.159 3.57041 65.588C10.1314 80.1397 23.2972 85.5078 49.3657 84.9552C64.4612 84.6306 73.3728 83.6833 82.0214 81.0431C94.1083 77.3504 93.5295 83.9026 86.3457 88.6567C81.0829 92.1389 71.8729 96.2965 61.3035 97.9543C45.9273 100.366 31.4809 99.2612 31.5072 104.296C31.5423 111.155 46.5676 112.269 64.2243 113.032C83.1178 113.839 94.3803 112.541 89.1087 147.372C84.5651 177.379 89.7402 195.027 108.441 209.184C124.194 221.113 171.068 222.437 189.348 216.526C212.074 209.158 241.783 189.141 231.67 180.028Z" fill="#F9EC3A"/>
<path d="M150.478 136.69L150.434 136.488C149.934 134.234 147.812 132.541 145.505 132.541C145.145 132.541 144.794 132.585 144.452 132.664C140.242 133.69 135.909 134.479 131.611 135.014C131.523 135.023 131.436 135.023 131.357 135.023C130.479 135.023 129.664 134.69 128.795 134.33C127.787 133.918 126.752 133.488 125.48 133.488C125.392 133.488 125.296 133.488 125.208 133.497C123.331 133.593 121.427 133.637 119.542 133.637C112.989 133.637 106.332 133.076 99.7534 131.953C95.701 131.269 91.4469 130.251 86.7455 128.848C84.6052 128.208 82.4475 127.506 80.3424 126.743C80.0354 126.638 79.7196 126.541 79.4038 126.445C78.1408 126.067 77.3601 125.796 77.0707 124.901C76.8952 124.331 76.8251 123.734 76.7461 123.103C76.6409 122.191 76.5356 121.261 76.0971 120.305C74.8165 117.524 72.185 115.937 68.887 115.937C67.8958 115.937 66.8959 116.086 65.9048 116.375C64.6154 116.761 63.633 117.366 62.9839 118.191C62.3085 119.05 62.1769 119.971 62.0716 120.778C62.0278 121.085 61.984 121.401 61.905 121.717C61.8524 121.919 61.7998 122.129 61.2472 122.129C60.5981 122.129 59.7736 121.813 59.2648 121.629C58.5894 121.375 57.8965 121.243 57.1947 121.243C53.8353 121.243 50.8443 124.269 50.6776 127.848C50.5899 129.76 51.3618 131.795 52.8178 133.435C54.2476 135.049 55.7212 135.505 57.4228 136.04L57.9052 136.19C58.1684 136.277 58.3438 136.365 58.4315 136.47C58.528 136.593 58.4578 137.216 58.4228 137.488C58.3789 137.83 58.3438 138.172 58.3614 138.505C58.6157 141.716 61.2735 144.408 64.6855 144.9C65.0364 144.952 65.3872 144.978 65.7205 144.978C69.4922 144.978 71.5096 141.9 73.2814 139.181L73.3516 139.067C73.5183 138.812 73.6761 138.76 73.8691 138.76C74.3866 138.76 75.1585 139.163 75.7725 139.496C76.0883 139.663 76.3865 139.821 76.6497 139.935C78.0969 140.558 79.5442 141.233 80.7897 141.821C81.4388 142.128 82.0879 142.461 82.7457 142.786C84.1754 143.514 85.649 144.259 87.184 144.803L87.8156 145.031C100.315 149.443 108.569 152.355 117.577 152.355C117.91 152.355 118.252 152.355 118.594 152.346C126.401 152.153 134.69 149.952 142.707 147.82C145.066 147.198 147.294 146.601 149.487 146.066C152.417 145.382 151.154 139.733 150.478 136.69Z" fill="#F9EC3A"/>
<path d="M117.652 203.509C117.652 203.509 115.249 219.315 111.039 219.947C107.951 220.412 104.969 218.605 101.943 218.298C98.1712 217.903 94.9522 222.613 99.1712 224.683C99.522 224.859 99.4519 225.367 99.0659 225.42C97.7853 225.604 96.2766 225.903 95.6889 227.201C93.154 232.814 107.943 235.639 111.328 236.384C115.389 237.279 122.766 238.858 126.099 235.341C126.468 234.946 126.766 234.498 126.959 233.999C129.897 226.262 131.213 216.886 133.59 208.693" fill="#F9EC3A"/>
<path d="M171.478 209.799C171.478 209.799 175.723 225.21 172.144 227.508C169.513 229.192 166.057 228.762 163.171 229.71C159.566 230.894 158.549 236.508 163.25 236.674C163.636 236.692 163.785 237.183 163.452 237.393C162.356 238.086 161.101 238.972 161.101 240.393C161.075 246.559 175.732 243.104 179.126 242.402C183.196 241.56 190.573 239.998 192.187 235.429C192.362 234.92 192.45 234.385 192.424 233.85C191.959 225.587 189.327 216.482 188.161 208.044" fill="#F9EC3A"/>
<path d="M75.9137 39.4142C72.6858 29.4587 78.1328 18.7665 88.0971 15.5386C98.0526 12.3107 108.754 17.7665 111.973 27.722C115.209 37.6775 109.754 48.3698 99.7893 51.6064C89.8338 54.8343 79.1415 49.3785 75.9137 39.4142Z" fill="white"/>
<path d="M86.1171 43.1165C80.863 41.7219 77.7141 36.3275 79.1 31.0647C80.4946 25.7843 85.8978 22.6442 91.1606 24.03C96.4234 25.4247 99.5723 30.8191 98.1777 36.0906C96.7918 41.3622 91.3886 44.5024 86.1171 43.1165Z" fill="#2E2624"/>
<path d="M83.8328 35.7312C81.833 35.2049 80.6225 33.1524 81.1576 31.1262C81.6926 29.1176 83.7451 27.9247 85.7625 28.4509C87.7887 28.9772 88.9641 31.0385 88.4378 33.0471C87.9203 35.0733 85.8502 36.275 83.8328 35.7312Z" fill="white"/>
<path d="M133.992 38.5466C130.764 28.5911 136.211 17.8988 146.175 14.6709C156.131 11.4431 166.832 16.8989 170.051 26.8543C173.288 36.8098 167.832 47.5021 157.868 50.7388C147.912 53.9666 137.22 48.5108 133.992 38.5466Z" fill="white"/>
<path d="M24.0531 43.5461C24.4565 44.1952 24.8688 44.4495 25.6231 44.5636C26.3774 44.6776 27.1493 44.546 27.8861 44.353C28.3861 44.2215 28.9387 44.0548 29.4123 44.2741C29.772 44.4408 30.0176 44.8092 30.1053 45.1951C30.193 45.581 30.1404 45.9933 30.0351 46.3705C29.965 46.6336 29.8685 46.8968 29.693 47.116C29.3773 47.5107 28.851 47.6774 28.3598 47.8002C27.1932 48.0809 25.9915 48.2125 24.7898 48.1949C24.474 48.1861 24.1583 48.1774 23.8688 48.0546C23.5092 47.9055 23.2285 47.616 22.9917 47.309C22.5093 46.6599 22.2111 45.8705 22.1497 45.0635C22.1146 44.6776 22.1409 44.2741 22.3426 43.9408C22.5444 43.6163 22.9654 43.397 23.325 43.5286" fill="#F9EC3A"/>
<path d="M144.539 41.9676C139.285 40.5818 136.136 35.1874 137.522 29.9246C138.908 24.6442 144.311 21.4953 149.583 22.8899C154.846 24.2758 157.994 29.679 156.609 34.9506C155.214 40.2134 149.811 43.3535 144.539 41.9676Z" fill="#2E2624"/>
<path d="M142.282 34.591C140.282 34.0648 139.072 32.0123 139.607 29.9861C140.142 27.9774 142.195 26.7845 144.203 27.3108C146.229 27.8371 147.414 29.8984 146.879 31.907C146.361 33.9332 144.291 35.1349 142.282 34.591Z" fill="white"/>
<path d="M219.42 123.734C219.165 123.594 218.648 123.296 218.578 123.173C218.578 123.173 218.586 123.12 218.665 123.024C220.13 120.989 220.06 118.91 219.788 117.156C219.595 115.884 219.762 114.586 219.893 113.551C220.06 112.235 218.507 115.094 217.937 114.454C217.744 114.235 217.63 112.7 217.034 112.709C216.543 112.717 217.376 110.375 216.481 110.823C215.999 111.068 214.981 111.568 214.236 111.586C213.797 111.595 213.657 111.437 213.543 111.138C213.429 110.814 213.341 110.481 213.262 110.121C213.052 109.253 212.815 108.279 211.999 107.437C211.21 106.621 210.087 106.077 208.648 105.805C207.877 105.656 207.096 105.586 206.324 105.604C202.333 105.656 199.237 107.744 198.061 111.174C197.693 112.244 197.675 113.27 197.667 114.27C197.658 114.972 197.649 115.638 197.518 116.287C197.298 117.34 196.456 117.735 195.097 118.296C194.763 118.436 194.43 118.568 194.106 118.726C191.895 119.787 189.623 120.796 187.352 121.734C182.378 123.787 177.843 125.374 173.493 126.576C164.388 129.093 155.099 130.62 145.872 131.102C144.363 131.181 143.153 131.83 142.083 132.4C141.083 132.935 140.144 133.435 139.092 133.47C134.294 133.374 129.461 132.988 124.75 132.339C124.514 132.304 124.277 132.295 124.04 132.295C121.382 132.33 119.058 134.444 118.742 137.102L118.716 137.338C118.321 140.698 117.575 146.943 120.759 147.382C123.207 147.724 125.706 148.118 128.355 148.54C136.109 149.768 144.118 151.048 151.696 150.943C152.889 150.925 154.056 150.873 155.152 150.794C165.414 150.004 174.352 145.777 187.887 139.391L188.562 139.075C190.176 138.312 191.702 137.33 193.176 136.382C193.851 135.953 194.527 135.514 195.202 135.111C196.491 134.33 198 133.426 199.517 132.584C199.754 132.453 200 132.304 200.245 132.146C200.965 131.69 201.71 131.225 202.421 131.216C202.737 131.207 203.044 131.304 203.359 131.497C205.78 132.979 206.982 130.418 208.508 130.392C209.412 130.383 209.526 130.76 211.139 130.356C212.017 130.137 214.323 129.979 214.639 129.427C214.937 128.9 214.034 130.795 213.92 130.435C213.771 129.944 213.622 129.436 214.464 128.418C214.674 128.278 215.534 128.093 216.104 127.979C217.613 127.664 218.56 127.436 218.999 126.795C219.095 126.664 216.043 126.023 216.341 125.901C216.587 125.795 217.157 124.883 217.192 124.138C217.236 123.357 219.999 124.067 219.42 123.734Z" fill="#F9EC3A"/>
<path d="M210.869 108.076L207.34 126.299L211.698 127.143L215.226 108.92L210.869 108.076Z" fill="#E297A6"/>
<path d="M216.374 108.051C216.075 109.577 214.435 110.533 212.698 110.2C210.962 109.867 209.795 108.358 210.093 106.832L210.277 105.876C210.576 104.35 212.216 103.394 213.953 103.727C215.689 104.06 216.856 105.569 216.558 107.095L216.374 108.051Z" fill="#F4E9E2"/>
<path d="M232.239 94.0431C230.582 102.63 222.275 108.235 213.688 106.577C205.101 104.92 199.496 96.6131 201.154 88.026C202.811 79.4388 211.118 73.8339 219.705 75.4917C228.283 77.1495 233.897 85.456 232.239 94.0431Z" fill="#C38FBD"/>
<path d="M204.568 80.8418C202.884 82.8417 201.673 85.2801 201.138 88.0168C199.48 96.6039 205.085 104.91 213.672 106.568C217.865 107.375 221.979 106.454 225.303 104.296C213.786 103.525 200.208 92.0867 204.568 80.8418Z" fill="#AF7EAC"/>
<path d="M232.082 94.6838C232.135 94.4733 232.179 94.254 232.222 94.0435C232.652 91.8068 232.591 89.5876 232.108 87.4913C222.609 88.5701 212.189 85.9036 203.715 81.9478C202.479 83.7196 201.575 85.7633 201.137 88.0175C201.075 88.3333 201.023 88.6579 200.988 88.9736C210.259 93.9558 221.723 96.9029 232.082 94.6838Z" fill="#F4E9E2"/>
<path d="M215.935 93.6296L213.76 90.6474C213.216 89.9018 213.374 88.8492 214.128 88.2966C214.874 87.7528 215.927 87.9107 216.479 88.665L216.795 89.0948L217.216 88.8229C217.997 88.3229 219.032 88.551 219.54 89.3229C220.04 90.1035 219.812 91.1386 219.04 91.6473L215.935 93.6296Z" fill="#C38FBD"/>
<path d="M227.292 94.561L224.468 92.184C223.757 91.5875 223.669 90.5262 224.266 89.8157C224.862 89.1052 225.924 89.0175 226.634 89.614L227.038 89.956L227.38 89.5964C228.02 88.921 229.081 88.8947 229.757 89.535C230.432 90.1753 230.458 91.2367 229.818 91.912L227.292 94.561Z" fill="#C38FBD"/>
<path d="M205.488 90.1665L204.094 86.7457C203.743 85.8861 204.155 84.9037 205.015 84.5529C205.874 84.202 206.857 84.6143 207.208 85.4739L207.409 85.965L207.883 85.8072C208.76 85.5089 209.716 85.9826 210.014 86.8597C210.313 87.7369 209.839 88.693 208.962 88.9912L205.488 90.1665Z" fill="#C38FBD"/>
<g opacity="0.7">
<path opacity="0.7" d="M228.174 81.3068C227.218 80.2455 226.166 79.1929 224.946 78.4298C224.166 77.9474 222.332 77.3159 222.368 78.9561C222.394 79.9385 222.929 80.6051 223.657 81.2191C225.35 82.6225 227.016 84.2628 228.288 86.1223C229.034 87.21 229.955 90.5343 231.56 90.4554C232.165 88.0432 230.964 85.2189 229.639 83.14C229.446 82.8067 228.893 82.105 228.174 81.3068Z" fill="#F4E9E2"/>
</g>
<path d="M214.142 132.54C213.124 131.032 211.581 130.014 209.8 129.672C206.116 128.961 202.546 131.374 201.836 135.058C201.125 138.742 203.537 142.311 207.221 143.022C207.66 143.11 208.099 143.145 208.528 143.145C209.87 143.145 211.186 142.75 212.318 141.978C213.826 140.961 214.844 139.417 215.186 137.636C215.528 135.856 215.159 134.04 214.142 132.54ZM211.984 137.014C211.616 138.926 209.748 140.189 207.835 139.812C206.906 139.627 206.107 139.101 205.572 138.321C205.046 137.54 204.853 136.593 205.029 135.663C205.213 134.733 205.739 133.935 206.52 133.4C207.107 132.996 207.792 132.795 208.493 132.795C208.721 132.795 208.949 132.812 209.177 132.856C211.098 133.242 212.353 135.101 211.984 137.014Z" fill="#8D80BB"/>
<path d="M221.875 120.717C221.085 126.936 215.358 132.716 209.744 132.005C204.13 131.295 200.753 124.357 201.543 118.129C202.332 111.901 207.525 107.437 213.138 108.156C218.752 108.875 222.664 114.498 221.875 120.717Z" fill="#F9EC3A"/>
<path d="M174.609 50.9324C174.732 53.8181 170.513 56.3268 165.198 56.546C159.882 56.7653 155.479 54.5988 155.365 51.7218C155.251 48.836 159.461 46.3274 164.777 46.1081C170.083 45.8888 174.486 48.0466 174.609 50.9324Z" fill="#EA6061"/>
</svg>
