<svg xmlns="http://www.w3.org/2000/svg" width="327" height="95" fill="none" viewBox="0 0 327 95">
    <g clip-path="url(#clip0)">
        <path fill="#F06569" d="M281.313 95s19.826-1.612 20.052-17.736c.209-16.123-21.946-14.31-21.946-14.31"/>
        <path fill="#5AA269" d="M248.927 8.471s12.586 2.929 19.426 13.083c6.823 10.145 8.196 38.531 8.196 38.531s16.871 2.536 21.903-28.169C304.563-5.36 294.628-.81 290.708 1.5c-5.476 3.233-25.64 5.055-36.227 2.702-7.848-1.752-7.944 4.105-5.554 4.27z"/>
        <path fill="#EA6061" d="M312.802 36.745c-.304.026-.608.035-.93.052-5.102.166-9.447.096-12.933.044-3.407-.053-6.101-.096-8.405.07-2.511.182-4.267.6-5.71 1.36-.139.069-.374.139-.53.147-.556.044-1.095-.27-1.356-.793l-.982-1.944c-.209-.418-.2-.906.026-1.307.217-.383.6-.627 1.026-.662.121-.009.295.008.417.035.287.078.765.157 1.39.113 1.122-.078 2.895-.593 4.955-2.545 2.816-2.667 6.744-5.473 14.515-6.04 2.685-.192 5.658-.13 9.091.21.53.052 1.008.357 1.304.845.113.191.2.392.243.61.583-.384 1.234-.776 1.982-1.133.487-.236.965-.453 1.443-.663 2.12-.95 3.946-1.769 5.493-3.922.269-.374.678-.61 1.121-.636.435-.035.869.13 1.191.445.347.34.539.828.521 1.342-.121 3.137-1.503 13.465-13.872 14.372 0-.009 0-.009 0 0z"/>
        <path fill="#F7E74D" d="M282.469 95.515c-.904-10.825-1.599-21.667-2.521-32.483-.443-5.212-.851-10.459-1.694-15.627-.539-3.269-1.017-6.223-1.695-8.847-2.912-18.067-18.566-31.873-37.435-31.873-13.107 0-24.658 6.66-31.464 16.77l-.017.017c-1.095 1.83-3.294 4.035-4.755 4.035-2.242 0-3.641-2.24-4.684-4.035-6.102-12.786-19.131-21.615-34.237-21.615-19.538 0-35.618 14.782-37.687 33.773v-.009l-.017.183-.026.314-.852 8.925c-.061.496-.113 2.257-.165 2.928-.565 6.763-4.155 7.583-5.311 7.661-46.926-.48-72.888 2.955-82.64 4.628-4.415.462-7.257-2.588-7.257-2.588l-.009.008c-7.692-8.323-17.487-8.175-23.832-3.843-6.38 4.357-9.744 16.071-.365 34.069 11.977 22.983 39.294 26.234 79.92 27.289 54.426 1.411 74.365-5.422 80.31-8.333.565-.278 1.112.427.695.889-8.248 9.021-39.634 12.743-63.449 13.727-24.51 1.011-46.283-1.525-55.13-2.762-2.139-.297-3.903 1.656-3.4 3.756 3.243 13.518 13.968 24.831 50.125 27.559 17.853 1.342 35.723 3.974 53.584 5.403 45.918 3.687 71.472 7.513 108.376-2.762 11.943-3.347 19.4-13.327 23.416-24.596 3.728-10.459 3.129-21.684 2.216-32.561z"/>
        <path fill="#54A260" d="M285.085 29.485s3.616 5.604.609 10.668c-2.999 5.064 5.527-.898 5.527-.898s1.452-7.042-1.851-11.443"/>
        <path fill="#fff" d="M134.485 47.944c-5.146-15.923 3.563-33.005 19.478-38.174 15.914-5.168 32.993 3.565 38.156 19.48 5.154 15.914-3.563 32.997-19.469 38.165-15.923 5.168-33.002-3.556-38.165-19.47z"/>
        <path fill="#302E2F" d="M172.757 62.825c-4.667-1.23-7.448-6.023-6.214-10.695 1.225-4.68 6.023-7.469 10.691-6.24 4.667 1.238 7.466 6.031 6.231 10.712-1.242 4.671-6.032 7.46-10.708 6.223z"/>
        <path fill="#fff" d="M176.761 60.288c-1.408-.375-2.251-1.813-1.869-3.216.374-1.412 1.808-2.258 3.216-1.883 1.4.375 2.243 1.822 1.869 3.225-.374 1.403-1.817 2.24-3.216 1.874z"/>
        <path fill="#B7B149" d="M11.733 58.69c2.755-1.202 6.093.376 7.457 3.522 1.365 3.146.235 6.667-2.529 7.87-2.755 1.203-6.093-.375-7.457-3.521-1.356-3.146-.226-6.667 2.529-7.87z"/>
        <path fill="#fff" d="M208.721 52.886c-5.276-16.298 3.972-33.816 20.599-38.523 15.002-4.253 31.246 4.035 36.635 18.695 5.954 16.229-2.781 34.017-19.087 39.299-15.905 5.168-32.976-3.565-38.147-19.47z"/>
        <path fill="#302E2F" d="M246.533 67.583c-4.668-1.229-7.449-6.022-6.215-10.694 1.226-4.68 6.023-7.469 10.691-6.24 4.667 1.237 7.466 6.031 6.232 10.711-1.243 4.672-6.032 7.46-10.708 6.223z"/>
        <path fill="#fff" d="M250.553 64.637c-1.408-.375-2.251-1.813-1.869-3.216.374-1.412 1.808-2.258 3.216-1.883 1.399.375 2.242 1.822 1.869 3.225-.374 1.412-1.808 2.24-3.216 1.874z"/>
    </g>
    <defs>
        <clipPath id="clip0">
            <path fill="#fff" d="M0 0H326.684V95H0z"/>
        </clipPath>
    </defs>
</svg>
