<svg xmlns="http://www.w3.org/2000/svg" width="250" height="255" fill="none" viewBox="0 0 250 255">
    <path fill="#5AA269" d="M160.507 5.446s8.116 1.883 12.529 8.418c4.402 6.528 5.29 24.786 5.29 24.786s10.877 1.629 14.129-18.122c3.945-23.98-2.47-21.048-4.994-19.56-3.531 2.078-16.534 3.251-23.364 1.735-5.065-1.132-5.131 2.636-3.59 2.743z"/>
    <path fill="#BB8BBE" d="M194.432 175.867s11.415-3.773 9.229-13.24c-2.18-9.472-14.91-5.248-14.91-5.248"/>
    <path fill="#E9B2D1" d="M206.771 194.936s9.384-7.5 4.052-15.621c-5.349-8.128-15.823.248-15.823.248"/>
    <path fill="#F06569" d="M179.581 58.021s11.978-.971 12.12-10.687c.125-9.72-13.263-8.619-13.263-8.619"/>
    <path fill="#F6946A" d="M182.069 79.454s11.984-.96 12.12-10.687c.125-9.71-13.251-8.625-13.251-8.625"/>
    <path fill="#FC6" d="M183.256 100.496s11.991-.966 12.121-10.681c.124-9.721-13.252-8.626-13.252-8.626"/>
    <path fill="#95D4D0" d="M185.381 122.687s11.991-.965 12.121-10.687c.13-9.715-13.252-8.631-13.252-8.631"/>
    <path fill="#8680BC" d="M188.402 154.097s11.931-1.44 11.676-11.155c-.255-9.715-13.578-8.086-13.578-8.086"/>
    <path fill="#F7E74D" d="M247.483 190.298c-3.756-2.044-5.889 10.059-26.054 8.394-14.466-1.19-27.724-10.734-33.216-57.735C183 96.344 181.169 40.693 179.475 30.48c-.343-2.103-.657-4.004-1.096-5.687-1.878-11.622-11.978-20.503-24.146-20.503-8.453 0-15.906 4.283-20.296 10.788l-.011.012c-.705 1.179-2.121 2.595-3.069 2.595-1.446 0-2.346-1.446-3.021-2.595-3.934-8.223-12.34-13.904-22.085-13.904-12.6 0-22.973 9.508-24.312 21.724v-.006l-.012.118-.018.202-.55 5.74c-.036.32-.072 1.451-.107 1.884-.367 4.39-2.713 4.881-3.442 4.928-30.26-.308-47.001 1.902-53.286 2.974-2.844.297-4.686-1.664-4.686-1.664l-.006.006c-4.94-5.356-11.256-5.26-15.35-2.477-4.116 2.802-6.285 10.338-.236 21.92 7.725 14.785 25.349 16.87 51.55 17.552 35.118.912 47.979-3.49 51.806-5.361.361-.178.711.284.438.58-5.326 5.8-25.562 8.193-40.923 8.827-15.805.652-29.845-.977-35.556-1.777-1.374-.19-2.523 1.06-2.198 2.405 2.086 8.702 8.999 15.983 32.334 17.737 38.346 2.884 53.505-2.352 43.482 37.534-9.544 37.949-5.397 63.404 19.744 79.387 21.552 13.703 66.243 11.949 89.921 5.498 22.766-6.203 40.561-24.573 33.139-28.619z"/>
    <path fill="#EA6061" d="M201.803 23.626c-.195.012-.397.024-.598.03-3.288.107-6.09.065-8.341.03-2.198-.036-3.94-.06-5.421.047-1.617.119-2.754.385-3.684.877-.089.047-.243.089-.344.1-.361.024-.705-.171-.871-.509l-.634-1.25c-.136-.267-.13-.58.018-.841.136-.249.385-.403.664-.427.077-.006.189.006.266.024.184.047.492.1.901.071.722-.053 1.866-.38 3.193-1.635 1.818-1.718 4.354-3.519 9.36-3.886 1.729-.125 3.649-.083 5.864.136.344.036.652.231.842.54.077.124.13.254.16.39.373-.249.799-.497 1.279-.728.314-.148.622-.29.93-.427 1.369-.61 2.548-1.137 3.543-2.524.172-.242.438-.39.723-.408.278-.018.562.083.77.284.225.22.349.533.337.859-.089 2.026-.977 8.673-8.957 9.247z"/>
    <path fill="#54A260" d="M183.897 18.958s2.328 3.602.391 6.86c-1.937 3.258 3.566-.58 3.566-.58s.936-4.526-1.19-7.364"/>
    <path fill="#F9EC3A" d="M110.641 122.948s-27.298-10.717-27.813-10.936c-.457-.195-1.209-6.848-1.612-7.76-1.22-2.749-3.59-5.119-6.836-5.267-.77-.035-1.552.095-2.263.391-3.21 1.351-3.78 4.923-3.69 8.004.023.728-.664 1.279-1.363 1.066-1.315-.403-2.624-1.09-3.975-1.339-2.767-.509-5.877.036-7.571 2.69-1.434 2.245-1.238 5.065.48 7.102 2.014 2.394 5.35 3.11 8.394 3.501.521.066.74.699.367 1.067-1.398 1.368-2.547 3.323-2.476 5.225.089 2.174 1.872 4.04 3.957 4.644 2.086.604 4.372.119 6.303-.877 2.66-1.374 5.13-3.631 7.192-5.847.213-.225.551-.266.806-.088l28.66 19.774M135.19 217.412c1.362 4.958 2.565 10.219 2.097 15.385-.071.782-.195 1.599-.693 2.203-.409.492-1.013.771-1.617.984-3.75 1.315-7.992.468-11.688 2.512-.723.397-1.244 1.125-1.286 1.949-.13 2.582 3.863 3.305 6.327 3.252.201-.006.272.266.083.355-1.837.853-5.113 2.862-3.578 5.8 1.208 2.316 6.344 1.996 8.424 1.949 4.206-.095 8.69-.918 12.63-2.429 2.31-.883 4.532-2.547 5.177-4.935.273-1.019.243-2.085.184-3.139-.45-8.045-2.784-15.847-3.294-23.886M176.175 218.171c1.351 4.935 3.087 10.977 2.322 16.107-.171 1.144-.687 2.287-1.617 2.974-.557.409-1.22.634-1.884.8-2.825.723-5.811.592-8.649 1.273-1.451.35-3.015 1.073-3.477 2.489-.373 1.161.16 2.488 1.114 3.246 1.327 1.054 3.299 1.09 5.029.871.225-.03.338.266.136.379-1.789 1.037-5.041 3.365-3.874 6.019 1.303 2.956 6.842 2.725 9.396 2.618 4.697-.195 9.626-1.315 13.82-3.477 1.92-.99 3.691-2.524 4.348-4.585.356-1.114.368-2.305.344-3.472-.178-8.602-3.021-16.717-3.572-25.242"/>
    <path fill="#fff" d="M86.706 30.836C83.382 20.593 89.004 9.604 99.264 6.28c10.267-3.323 21.28 2.292 24.609 12.53 3.323 10.236-2.299 21.225-12.559 24.548-10.26 3.324-21.273-2.287-24.608-12.523z"/>
    <path fill="#302E2F" d="M112.761 36.014c-3.009-.788-4.804-3.875-4.011-6.878.794-3.01 3.886-4.805 6.896-4.01 3.015.793 4.816 3.88 4.022 6.889-.799 3.003-3.892 4.792-6.907 3.999z"/>
    <path fill="#fff" d="M116.954 31.375c-.907-.237-1.452-1.167-1.209-2.073.243-.913 1.167-1.452 2.074-1.209.9.243 1.445 1.167 1.202 2.073-.231.913-1.161 1.446-2.067 1.209zM134.646 34.011c-3.407-10.48 2.559-21.753 13.281-24.78 9.68-2.73 20.154 2.595 23.631 12.026 3.845 10.438-1.795 21.883-12.31 25.278-10.26 3.323-21.273-2.287-24.602-12.524z"/>
    <path fill="#302E2F" d="M160.386 39.076c-3.01-.788-4.804-3.874-4.011-6.878.794-3.01 3.886-4.804 6.896-4.01 3.015.793 4.816 3.88 4.022 6.89-.799 3.003-3.892 4.798-6.907 3.998z"/>
    <path fill="#fff" d="M164.641 34.177c-.906-.237-1.451-1.167-1.208-2.073.243-.913 1.167-1.452 2.073-1.209.901.243 1.446 1.167 1.203 2.073-.231.907-1.161 1.446-2.068 1.209z"/>
    <path fill="#F9EC3A" d="M237.982 100.75c-.45-1.706-1.517-3.116-2.932-3.874-1.647-.883-3.78-1.043-6.001-.438-.836.225-1.641.622-2.423 1-.605.297-1.185.581-1.772.789-.408.148-.835-.166-.853-.605-.142-3.584-1.084-5.989-2.867-7.322-1.736-1.297-4.318-1.398-6.427-.254-1.825.989-3.276 2.814-4.088 5.142-.154.432-.267 1.883-.397 3.56-.083 1.078-.189 2.411-.302 3.288-.071.557-.415 1.031-.912 1.279-4.289 2.121-25.853 12.701-26.09 12.814-.094.047-.13.16-.088.249.035.077.118.101.195.089l3.128 20.763-.089.071c-.077.066-.089.184-.024.267.036.047.089.071.143.071.041 0 .083-.012.118-.041l26.664-21.824c.326-.267.806-.249 1.12.035 2.695 2.417 5.13 4.064 7.422 5.024 2.293.953 4.603 1.084 6.493.361 2.228-.847 3.78-3.009 3.685-5.136-.089-2.091-1.617-4.099-3.247-5.361-.177-.137-.106-.415.113-.462 3.104-.634 6.884-1.641 8.779-4.663.865-1.362 1.102-3.116.652-4.822z"/>
</svg>
