<svg xmlns="http://www.w3.org/2000/svg" width="350" height="193" fill="none" viewBox="0 0 350 193">
    <g clip-path="url(#clip0)">
        <path fill="#E26366" d="M300.284 158.354s16.131-1.565 16.131-14.691c0-13.126-18.057-11.44-18.057-11.44"/>
        <path fill="#EB8E68" d="M303.173 161.125c.241 3.131.482 6.502.723 9.874h16.13c-1.204-9.634-13.121-9.995-16.853-9.874z"/>
        <path fill="#47BBC2" d="M321.11 129.693c-1.325 3.733-5.899 5.058-9.149 2.77-5.176-3.613-12.158-8.55-16.01-10.597-9.631-5.299-6.501-23.724-24.317-25.891-2.648-.361-4.815-.361-6.861-.361 3.732-31.551 26.483-80.563 52.846-58.887 23.353 28.54 10.352 74.903 3.491 92.966z"/>
        <path fill="#00A0BC" d="M317.739 36.727c-26.363-21.676-49.114 27.336-52.846 58.887-11.315.361-13.241 6.382-32.02 8.068-15.047 1.325-45.984-6.382-58.263-9.633-3.009-.843-4.935-3.734-4.333-6.865 3.37-19.026 20.825-83.934 102.441-72.614 21.908 3.01 36.113 11.32 45.021 22.157z"/>
        <path fill="#F7E74D" d="M301.608 140.895c-.722-9.513-1.444-16.498-2.046-19.869-.482-2.891-.963-5.419-1.565-7.707-2.769-15.655-16.492-27.457-32.983-27.336-11.436.12-21.428 6.02-27.206 14.932-.963 1.566-2.768 3.492-4.093 3.613-1.926 0-3.25-1.927-4.092-3.493-5.417-11.078-16.974-18.545-30.095-18.424-16.973.24-30.816 13.246-32.502 29.865v.361l-.601 7.827c0 .482-.121 1.927-.121 2.529-.361 5.901-3.611 6.623-4.574 6.744-40.929.12-63.44 3.372-71.986 4.937-3.852.482-6.38-2.167-6.38-2.167-6.741-7.105-15.288-6.865-20.825-3.011-5.538 3.854-8.306 14.089.12 29.624 2.528 4.817 5.899 8.55 9.992 11.561h215.836c5.417-9.032 9.991-19.148 13.121-29.986z"/>
        <path fill="#fff" d="M174.249 123.193c-4.695-13.729 2.769-28.781 16.492-33.357 13.843-4.697 28.77 2.77 33.465 16.497 4.694 13.729-2.769 28.781-16.492 33.357-13.723 4.697-28.77-2.649-33.465-16.497z"/>
        <path fill="#2F2E2F" d="M184.361 129.817c-4.093-.964-6.621-5.179-5.538-9.273.963-4.094 5.177-6.503 9.269-5.539 4.093.963 6.621 5.178 5.538 9.272-1.084 3.974-5.176 6.503-9.269 5.54z"/>
        <path fill="#fff" d="M182.796 126.322c-1.204-.361-1.926-1.565-1.685-2.77.361-1.204 1.564-1.926 2.768-1.686 1.204.362 1.926 1.566 1.686 2.77-.362 1.204-1.565 2.047-2.769 1.686z"/>
        <path fill="#B1AB4A" d="M67.474 134.03c2.408-1.084 5.297.241 6.5 3.01 1.204 2.77.241 5.781-2.166 6.865-2.408 1.083-5.297-.241-6.5-3.011-1.205-2.77-.242-5.78 2.166-6.864z"/>
        <path fill="#fff" d="M239.012 126.683c-4.815-14.089 3.009-29.503 17.454-33.718 13.001-3.853 27.326 3.131 32.141 15.775 5.417 14.09-2.046 29.624-16.13 34.441-13.723 4.697-28.771-2.77-33.465-16.498z"/>
        <path fill="#2F2E2F" d="M249.726 135.836c-4.093-.843-6.741-4.817-6.019-8.911.843-4.094 4.815-6.744 9.028-6.021 4.093.843 6.862 4.817 6.019 8.911-.963 4.215-4.935 6.864-9.028 6.021z"/>
        <path fill="#fff" d="M247.8 132.466c-1.204-.241-2.046-1.445-1.806-2.65.241-1.204 1.445-2.047 2.649-1.806 1.203.241 2.046 1.445 1.805 2.649-.241 1.325-1.444 2.047-2.648 1.807z"/>
        <path fill="#00A0BC" d="M317.98 108.017c0 2.529-2.047 4.577-4.575 4.577s-4.574-2.048-4.574-4.577c0-2.528 2.046-4.576 4.574-4.576s4.575 2.048 4.575 4.576zM307.989 98.142c0 2.529-2.047 4.577-4.575 4.577s-4.574-2.048-4.574-4.576c0-2.53 2.046-4.577 4.574-4.577s4.575 2.048 4.575 4.576z"/>
        <path fill="#fff" d="M256.226 64.305c.723 0 1.204.361 1.084.963l1.324-.12c0-.482 0-.963-.241-1.325-.361-.481-.963-.843-1.926-.843-1.444.12-2.528.843-3.13 1.927-.12.241-.24.602-.24.964-.241 1.565.842 2.529 2.287 2.529 1.685 0 2.768-1.084 3.009-2.409l-1.324.12c-.241.723-.843 1.084-1.565 1.084-.963 0-1.444-.481-1.204-1.445.361-.722.963-1.445 1.926-1.445zM259.837 64.184l4.815-.24.241-1.085-4.815.241-.241 1.084zM259.477 66.23l4.694-.361.241-1.084-4.695.361-.24 1.084zM259.115 68.157l4.695-.241.241-1.084-4.815.24-.121 1.085zM244.91 66.35c0 .121 0 .121-.12.241-.241.603-.602 1.205-1.204 1.205-.842.12-1.203-.362-1.083-1.084l.602-2.65-1.324.12-.602 2.77c-.241 1.325.722 2.41 1.926 2.41 1.444-.121 2.528-.964 2.889-2.41l.602-2.89-1.324.12-.362 2.168zM250.809 66.472l-1.926-2.77-.963.12-1.083 5.058 1.324-.12.482-2.77 2.046 2.65h.963l1.083-5.18-1.324.121-.602 2.89zM235.04 64.546l-2.167 3.372-.722-3.251-1.324.12 1.203 4.937 1.325-.12 3.25-5.178-1.565.12zM238.17 64.305l-3.371 5.178h1.565l2.167-3.492.843 3.251h1.203l-1.083-4.937h-1.324zM196.76 51.9c.361.482.602.964.843 1.325-.362.241-.602.482-.843.602-.12-.24-.482-.602-.843-1.083-.602.481-.963.722-1.204.843-.12-.12-.361-.482-.722-.843.843-.723 1.565-1.325 1.926-1.807l-1.565-.481c0-.241.121-.603.241-.964.843.241 1.445.361 1.926.482.482.12.843.24.963.24 0 .242-.12.603-.241.964 0 .24-.24.482-.481.723zM200.733 52.744c.361.482.601.964.842 1.325-.361.24-.602.482-.842.602-.121-.24-.482-.602-.843-1.084-.602.482-.963.723-1.204.843-.12-.12-.361-.481-.722-.843.843-.722 1.565-1.324 1.926-1.806l-1.565-.482c0-.24.12-.602.241-.963.842.24 1.444.361 1.926.482.481.12.842.24.963.24 0 .241-.121.603-.241.964 0 .24-.241.482-.481.722zM202.9 51.297c.481.12.842.24 1.083.24 0 .362-.12.844-.241 1.205.241 0 .361.12.602.12.12-.481.241-.963.241-1.204.361.12.722.12 1.083.241 0 .12-.12.722-.361 1.806s-.361 1.686-.361 1.807c-.361-.12-.722-.12-1.083-.241l.24-1.204-.602-.12c-.12.48-.24.842-.361 1.203-.481-.12-.842-.24-.963-.24.361-1.325.482-2.53.723-3.613zM206.871 52.14c1.806.362 2.769.603 2.889.723-.24 1.325-.481 2.409-.722 3.372-.361-.12-.722-.12-1.083-.24 0-.242.241-.964.481-2.289-1.083-.24-1.685-.361-1.685-.482 0-.602.12-.963.12-1.083zM210.844 52.984c1.806.362 2.769.602 2.889.723-.241 1.325-.481 2.408-.722 3.372-.361-.12-.722-.12-1.084-.241 0-.241.241-.964.482-2.288-1.083-.241-1.685-.361-1.685-.482 0-.602.12-.963.12-1.084zM215.178 53.828c.241 0 .361.12.602.12.24 0 .361.121.602.121 0 .361-.121.722-.241 1.204.481.12.842.241 1.083.241 0 .361-.12.723-.241 1.084-.361-.12-.722-.12-1.083-.241-.12.482-.12.843-.241 1.204-.602-.12-.963-.24-1.203-.24.361-1.807.601-3.011.722-3.493zM213.974 57.8c1.806.362 2.769.603 2.889.723-.241 1.325-.482 2.409-.722 3.372-.361-.12-.723-.12-1.084-.24 0-.242.241-.964.482-2.289-1.084-.24-1.685-.361-1.685-.481 0-.602.12-.964.12-1.084zM203.02 59.61c.241.12.602.24 1.083.722-.12.24-.361.602-.722 1.084.481.602.963 1.204 1.324 1.686l-.722.722c-.361-.361-.843-.963-1.204-1.445-.241.482-.602.723-.722.964-.361-.241-.722-.362-.963-.603.241-.843.963-1.806 1.926-3.13zM211.446 65.75c0 .362-.241 1.325-.722 3.011-.121 0-1.324-.12-3.491-.602.241-.963.481-2.047.722-3.01 1.084.24 2.287.36 3.491.602zm-1.204.964c-.481-.12-.963-.24-1.444-.24 0 .12-.121.36-.241.842.241.12.722.12 1.445.24 0-.24.12-.48.24-.842zM211.326 64.905c-.241 0-.602-.12-1.204-.24 0-.362.12-.723.241-1.205-.361 0-4.815-.964-5.176-1.084.12-.361.12-.722.24-1.084.241 0 4.695.964 5.176 1.084.121-.482.121-.843.241-1.204.241 0 .361 0 .602.12.241 0 .361.12.602.12 0 .362-.241 1.566-.722 3.493zM222.4 66.954l-1.926-.36.241-1.205 1.926.361.481-2.047 1.204.241-.481 2.047 2.046.361-.241 1.205-2.046-.362-.482 2.048-1.203-.241.481-2.047z"/>
        <path fill="#F7E74D" d="M303.174 161.125c-.121-1.686-.241-3.372-.362-4.937-2.166 5.178-4.574 10.115-7.222 14.811h7.222l-.722-9.874h1.084z"/>
        <path fill="#F7E74D" d="M303.174 161.125h-1.084l.722 9.875h1.084c-.241-3.372-.481-6.744-.722-9.875z"/>
        <path fill="#47BBC2" d="M311.479 122.711l-6.019-.723c-.722 6.503-2.046 12.885-3.852 18.907.362 4.576.723 9.633 1.204 15.173 4.213-10.236 7.343-21.435 8.667-33.357z"/>
        <path fill="#47BBC2" d="M301.608 140.895c-3.129 10.838-7.704 20.833-13.121 30.105h7.103c2.648-4.696 5.055-9.634 7.222-14.812-.481-5.539-.842-10.717-1.204-15.293z"/>
    </g>
    <path fill="#F7E74D" stroke="#D8C53D" stroke-miterlimit="10" d="M17.814 161.244c4.466-1.012 9.22-.706 13.345 1.348 4.742 2.365 10.584 7.613 8.646 13.526-1.54 4.699-8.534 8.35-12.035 3.927 0 0-7.323 7.235-12.845-1.266 0 0-8.02 4.46-10.594-3.326-1.88-5.674 3.7-10.092 8.185-12.326 1.675-.829 3.46-1.47 5.298-1.883zM293.814 161.244c4.466-1.012 9.22-.706 13.345 1.348 4.742 2.365 10.584 7.613 8.646 13.526-1.54 4.699-8.534 8.35-12.035 3.927 0 0-7.323 7.235-12.845-1.266 0 0-8.02 4.46-10.594-3.326-1.881-5.674 3.699-10.092 8.185-12.326 1.675-.829 3.461-1.47 5.298-1.883z"/>
    <defs>
        <clipPath id="clip0">
            <path fill="#fff" d="M0 0H319V171H0z" transform="translate(31)"/>
        </clipPath>
    </defs>
</svg>
