<svg xmlns="http://www.w3.org/2000/svg" width="1080" height="600" fill="none" viewBox="0 0 1080 600">
    <path fill="#fff" fill-opacity=".1" d="M0 0H1080V600H0z"/>
    <path stroke="#696969" stroke-width="3" d="M541.5 50L541.5 550"/>
    <path fill="#fff" d="M734.415 403v19.172L721.286 403h-14.197v38h14.147v-19.172L734.364 441h14.198v-38h-14.147zM900.359 426.79c5.025-1.4 8.269-5.025 8.269-10.852 0-9.783-7.773-12.938-18.001-12.938h-17.67v38h14.146v-11.869L895.55 441h16.259l-11.45-14.21zm-6.946-7.748c-.827.662-2.417 1.005-3.727 1.005h-3.041v-7.48h2.977c1.425 0 3.053.343 3.842 1.018.789.687 1.158 1.615 1.158 2.786 0 1.119-.382 2.01-1.209 2.671zM838.465 403h28.688v9.898h-14.668v4.478h13.51v9.337h-13.51v4.389h15.113V441h-29.133v-38zM782.606 403h-16.131l-14.885 38h15.737l1.374-4.961h11.679l1.374 4.961h15.737l-14.885-38zm-11.589 24.26l3.333-12.531h.381l3.333 12.531h-7.047zM820.02 403l-6.984 22.912h-.382L805.683 403h-15.432l15.915 38h13.358l15.915-38H820.02zM710.901 489.322c6.324 0 10.675-.32 12.604-.64 1.3-.229 1.749-1.418 1.614-2.791-.134-1.372-.942-2.332-2.287-2.15-2.871.412-6.638.595-8.926.595-.762 0-1.031-.274-1.031-1.052v-17.84c0-1.693-1.391-2.471-2.916-2.471-1.48 0-2.87.778-2.87 2.471v20.082c0 2.881.942 3.796 3.812 3.796zm25.476 8.372c0 1.555 1.301 2.287 2.646 2.287 1.346 0 2.646-.732 2.646-2.287v-35.407c0-1.555-1.3-2.287-2.646-2.287-1.345 0-2.646.732-2.646 2.287v35.407zm-8.432-1.922c0 1.556 1.301 2.288 2.646 2.288 1.301 0 2.602-.732 2.602-2.288v-33.027c0-1.556-1.301-2.288-2.602-2.288-1.345 0-2.646.732-2.646 2.288v9.515h-6.234c-1.391 0-2.019 1.143-2.019 2.516 0 1.326.628 2.47 2.019 2.47h6.234v18.526zM746.834 476.239c0 9.012 3.633 13.907 10.81 13.907 7.176 0 10.809-4.895 10.809-13.907 0-9.011-3.633-13.906-10.809-13.906-7.177 0-10.81 4.895-10.81 13.906zm16.102 0c0 5.764-1.39 8.829-5.292 8.829s-5.293-3.065-5.293-8.829c0-5.763 1.391-8.828 5.293-8.828s5.292 3.065 5.292 8.828zm16.909-13.769c0-1.692-1.39-2.47-2.915-2.47-1.48 0-2.871.778-2.871 2.47v35.041c0 1.692 1.391 2.47 2.871 2.47 1.525 0 2.915-.778 2.915-2.47V462.47zM813.895 497.511c0 1.692 1.39 2.47 2.87 2.47 1.435 0 2.826-.778 2.826-2.47V462.47c0-1.692-1.391-2.47-2.826-2.47-1.48 0-2.87.778-2.87 2.47v11.299h-7.266v-8.646c0-1.646-1.391-2.424-2.826-2.424s-2.826.778-2.826 2.424v7.091h-8.432v-7.091c0-1.646-1.39-2.424-2.825-2.424-1.436 0-2.826.778-2.826 2.424v20.586c0 2.881.942 3.796 3.812 3.796h12.11c2.871 0 3.813-.915 3.813-3.796v-6.999h7.266v18.801zm-20.318-12.9c-.763 0-1.032-.275-1.032-1.052v-6.45h8.432v6.45c0 .777-.269 1.052-1.031 1.052h-6.369zM843.593 489.78c4.216 0 6.952-2.104 8.253-6.176h4.844v12.168c0 1.556 1.301 2.288 2.646 2.288 1.301 0 2.602-.732 2.602-2.288v-33.027c0-1.556-1.301-2.288-2.602-2.288-1.345 0-2.646.732-2.646 2.288v6.129h-4.844c-1.301-4.071-4.037-6.175-8.253-6.175-6.324 0-9.194 4.666-9.194 13.54 0 8.875 2.87 13.541 9.194 13.541zm21.081 7.914c0 1.555 1.3 2.287 2.646 2.287 1.345 0 2.646-.732 2.646-2.287v-35.407c0-1.555-1.301-2.287-2.646-2.287-1.346 0-2.646.732-2.646 2.287v35.407zm-21.081-29.917c2.916 0 4.037 2.836 4.037 8.462 0 5.627-1.121 8.463-4.037 8.463-2.915 0-4.036-2.836-4.036-8.463 0-5.626 1.121-8.462 4.036-8.462zm9.195 8.462c0-.869-.045-1.692-.09-2.47h3.992v4.941h-3.992c.045-.778.09-1.601.09-2.471zM874.234 472.122c0 6.039 3.633 10.43 10.72 10.43 7.086 0 10.719-4.391 10.719-10.43 0-6.038-3.633-10.429-10.719-10.429-7.087 0-10.72 4.391-10.72 10.429zm15.967 0c0 3.111-1.435 5.581-5.247 5.581-3.813 0-5.248-2.47-5.248-5.581 0-3.11 1.435-5.581 5.248-5.581 3.812 0 5.247 2.471 5.247 5.581zm16.012-9.652c0-1.692-1.39-2.47-2.87-2.47-1.48 0-2.871.778-2.871 2.47v20.082c0 1.693 1.391 2.47 2.871 2.47s2.87-.777 2.87-2.47v-4.117h3.858c1.39 0 2.018-1.144 2.018-2.47 0-1.372-.628-2.516-2.018-2.516h-3.858v-2.79h3.858c1.39 0 2.018-1.144 2.018-2.471 0-1.372-.628-2.516-2.018-2.516h-3.858v-3.202zm-5.741 38.06c0 1.692 1.391 2.47 2.871 2.47s2.87-.778 2.87-2.47v-10.018c0-2.882-.942-3.797-3.812-3.797h-21.439c-1.391 0-2.018 1.144-2.018 2.47 0 1.327.627 2.47 2.018 2.47h18.479c.762 0 1.031.275 1.031 1.052v7.823zM210.974 447.237c.703.079.952.357 1.086 1.114l1.489 12.89 3.884-12.654c.325-.924.457-1.03 1.136-.743l3.147 1.227c.618.291.804.592.56 1.336l-6.213 18.721c-.386 1.199-.869 1.394-1.818 1.287l-2.453-.277c-.89-.101-1.344-.432-1.485-1.661l-1.301-11.005-3.694 10.441c-.412 1.165-.928 1.388-1.818 1.287l-2.453-.277c-.95-.107-1.377-.406-1.485-1.661l-1.878-19.635c-.063-.778.176-1.032.844-1.177l3.341-.494c.727-.138.841.005.941.978l.963 13.201 4.327-12.232c.301-.708.605-.924 1.308-.844l1.572.178zM229.491 462.921l-.412 4.451 6.804.769c.861.097 1.222.448 1.128 1.279l-.266 2.354c-.097.861-.528 1.123-1.388 1.025l-10.573-1.194c-1.068-.121-1.301-.548-1.192-1.778l1.904-19.328c.106-1.2.516-1.555 1.584-1.434l11.8 1.334c.861.097 1.225.419 1.128 1.279l-.271 2.394c-.094.83-.524 1.092-1.384.995l-7.992-.903-.402 4.092 6.864.775c.86.098 1.225.419 1.127 1.28l-.27 2.393c-.097.861-.524 1.093-1.385.996l-6.805-.769.001-.01zM254.232 470.216c.861.097 1.225.419 1.128 1.279l-.266 2.354c-.097.861-.528 1.123-1.388 1.025l-11.424-1.291c-1.068-.12-1.33-.551-1.221-1.78l1.844-19.335c.106-1.201.516-1.555 1.595-1.433l2.452.277c1.069.121 1.301.548 1.195 1.748l-1.472 16.312 7.556.854.001-.01zM272.243 475.916c-.036.587-.15.795-.902.8-4.757.083-8.484-1.239-10.861-3.521-2.377-2.282-3.46-5.64-3.014-9.587.468-4.134 2.54-6.785 5.435-8.291 2.858-1.45 6.469-1.753 10.071-1.005.573.155.806.311.741.885l-.386 3.152c-.059.524-.294.648-.874.552-2.469-.399-4.742-.316-6.456.573-1.713.888-2.863 2.561-3.169 5.261-.259 2.295.407 4.113 1.879 5.361 1.467 1.288 3.743 1.976 6.824 1.924.713-.01.84.285.818.743l-.106 3.153zM290.595 476.216c-2.064 1.78-4.702 2.604-7.392 2.3-2.7-.305-5.087-1.697-6.692-3.891-1.605-2.195-2.453-5.246-2.048-8.826.401-3.551 1.898-6.337 3.962-8.117 2.065-1.78 4.702-2.604 7.393-2.3 2.7.305 5.083 1.726 6.689 3.921 1.615 2.196 2.452 5.246 2.051 8.796-.403 3.561-1.898 6.337-3.963 8.117zm-2.185-13.9c-.736-1.205-1.831-1.88-3.157-2.03-1.325-.149-2.545.274-3.5 1.278-.989 1.04-1.693 2.663-1.942 4.869-.25 2.206.084 3.946.81 5.15.706 1.202 1.801 1.877 3.127 2.026 1.325.15 2.545-.273 3.529-1.274.956-1.013 1.661-2.637 1.91-4.842.249-2.206-.075-3.946-.777-5.177zM312.797 459.893c.388-.948.683-1.075 1.573-.974l2.819.319c.949.107 1.416.41 1.396 1.65l-.09 20.034c.009.712-.081.982-.705 1.002l-3.137.016c-.712.01-.854-.156-.883-.691l-.013-12.472-4.946 11.321c-.297.678-.605.923-1.307.844l-1.534-.173c-.702-.08-.947-.388-1.086-1.115l-2.324-12.143-2.766 12.159c-.148.514-.323.645-1.016.476l-3.054-.716c-.603-.158-.631-.442-.463-1.134l4.383-19.549c.257-1.213.78-1.404 1.729-1.297l2.819.319c.89.1 1.149.29 1.316 1.3l2.205 13.192 5.084-12.368zM327.677 474.018l-.413 4.451 6.805.77c.86.097 1.221.448 1.128 1.279l-.266 2.354c-.098.86-.528 1.122-1.388 1.025l-10.574-1.195c-1.068-.121-1.3-.547-1.191-1.777l1.904-19.328c.105-1.201.516-1.555 1.594-1.433l11.8 1.333c.86.098 1.224.419 1.127 1.28l-.27 2.393c-.094.831-.524 1.093-1.385.996l-7.992-.903-.404 4.111 6.864.776c.86.097 1.225.419 1.128 1.279l-.271 2.394c-.097.86-.524 1.093-1.385.995l-6.814-.77.003-.03z"/>
    <path stroke="#fff" stroke-miterlimit="10" stroke-width="5" d="M346.769 506.531l-167.154-18.89c-1.642-.185-2.818-1.661-2.632-3.302l6.595-58.356c.185-1.642 1.66-2.818 3.302-2.632l167.155 18.89c1.642.186 2.817 1.661 2.632 3.303l-6.595 58.355c-.186 1.642-1.661 2.818-3.303 2.632zM268.605 396.885l-69.609 27.835M280.276 398.203l61.642 42.667"/>
    <path fill="#fff" stroke="#fff" stroke-miterlimit="10" stroke-width="5" d="M274.044 401.034c3.66.413 6.962-2.218 7.376-5.878.413-3.66-2.218-6.962-5.878-7.376-3.66-.413-6.962 2.218-7.376 5.878-.413 3.66 2.218 6.962 5.878 7.376z"/>
    <path fill="#EADA22" d="M761.746 105h-2.928v-2.4h10.416v2.4h-4.992v4.464c0 2.048.176 4.016.528 5.904.352 1.888.832 3.664 1.44 5.328.576 1.696 1.232 3.248 1.968 4.656.768 1.408 1.536 2.656 2.304 3.744l-.96.864c-.288.288-.592.56-.912.816-.512-.672-1.04-1.456-1.584-2.352-.544-.928-1.072-1.936-1.584-3.024-.512-1.056-.976-2.176-1.392-3.36-.416-1.184-.768-2.384-1.056-3.6-.256 1.312-.608 2.576-1.056 3.792-.416 1.184-.864 2.288-1.344 3.312-.512 1.056-1.024 2.016-1.536 2.88-.512.832-.992 1.52-1.44 2.064-.928-1.12-1.92-2.736-2.976-4.848-1.024-2.112-1.856-4.512-2.496-7.2-.288 1.216-.64 2.416-1.056 3.6-.416 1.184-.864 2.32-1.344 3.408-.512 1.088-1.056 2.112-1.632 3.072-.544.928-1.072 1.744-1.584 2.448-.352-.288-.688-.576-1.008-.864-.288-.288-.592-.56-.912-.816.832-1.152 1.632-2.464 2.4-3.936s1.44-3.056 2.016-4.752c.576-1.696 1.04-3.504 1.392-5.424.352-1.92.528-3.904.528-5.952V105h-4.656v-2.4h10.992v2.4h-3.84v4.464c0 1.504.128 3.072.384 4.704.256 1.6.592 3.136 1.008 4.608.384 1.504.816 2.896 1.296 4.176.512 1.248 1.008 2.272 1.488 3.072 1.408-2.496 2.432-5.12 3.072-7.872.64-2.784.992-5.68 1.056-8.688V105zm13.296 36.96h-2.544V99.24h2.544v16.752h5.568V98.28h2.544v45.12h-2.544v-25.056h-5.568v23.616zm46.713.48v-13.776h-24.96v-2.352h27.648v16.128h-2.688zm-17.04-20.64c-.352-.256-.704-.528-1.056-.816-.32-.288-.656-.56-1.008-.816 1.152-.736 2.272-1.664 3.36-2.784 1.12-1.12 2.128-2.432 3.024-3.936.864-1.472 1.584-3.104 2.16-4.896.608-1.792.976-3.728 1.104-5.808h-7.584v-2.352h10.32c0 2.72-.288 5.2-.864 7.44-.576 2.24-1.344 4.256-2.304 6.048-.96 1.792-2.064 3.344-3.312 4.656-1.248 1.312-2.528 2.4-3.84 3.264zm19.728-10.416v10.896h-2.592v-24h2.592v10.752h7.68v2.352h-7.68zm-32.688 7.776c-.352-.256-.688-.528-1.008-.816-.32-.288-.656-.56-1.008-.816 1.312-.608 2.544-1.408 3.696-2.4 1.184-1.024 2.224-2.192 3.12-3.504.896-1.28 1.632-2.672 2.208-4.176.576-1.504.912-3.072 1.008-4.704h-8.112v-2.352h10.896c0 1.92-.224 3.808-.672 5.664-.448 1.856-1.12 3.6-2.016 5.232-.896 1.632-2.016 3.12-3.36 4.464-1.344 1.344-2.928 2.48-4.752 3.408zm51.994 23.28v-16.608h27.264v16.608h-27.264zm24.576-14.256h-21.888v11.856h21.888v-11.856zm-6.576-9.888c-.352.32-.688.64-1.008.96-.288.288-.608.592-.96.912-1.216-.576-2.416-1.232-3.6-1.968-1.152-.768-2.224-1.6-3.216-2.496-.992-.896-1.888-1.856-2.688-2.88-.768-1.024-1.392-2.08-1.872-3.168-.448 1.152-1.072 2.288-1.872 3.408-.768 1.12-1.648 2.176-2.64 3.168-1.024.992-2.144 1.904-3.36 2.736-1.184.832-2.4 1.552-3.648 2.16-.32-.32-.64-.624-.96-.912l-.96-.96c1.664-.768 3.216-1.728 4.656-2.88 1.472-1.152 2.752-2.4 3.84-3.744 1.056-1.344 1.888-2.736 2.496-4.176.64-1.472.96-2.928.96-4.368v-4.416h2.832v4.416c0 1.408.304 2.8.912 4.176.608 1.376 1.456 2.688 2.544 3.936 1.088 1.248 2.352 2.4 3.792 3.456 1.472 1.024 3.056 1.904 4.752 2.64zm-3.792-11.376h10.368v-8.64h2.688v23.52h-2.688v-12.528h-10.368v-2.352zm-164.026 78.86v-2.94h12.78V165.8h3.3v53.4h-3.3v-33.42h-12.78zm27 35.22h-3.24v-56.4h3.24V221zm-40.08-21.06c8.08 0 15.34-.6 21.78-1.8.08.48.16.98.24 1.5l.24 1.44c-3.24.6-6.98 1.06-11.22 1.38-4.24.32-9.02.48-14.34.48v-33.6h3.3v30.6zM774.342 221h-3.36v-56.4h3.36V221zm-13.44-35.16c0 2.28-.4 4.4-1.2 6.36-.76 1.92-1.82 3.58-3.18 4.98-1.36 1.44-2.98 2.56-4.86 3.36-1.84.8-3.84 1.2-6 1.2-2.2 0-4.24-.4-6.12-1.2-1.84-.8-3.44-1.92-4.8-3.36-1.36-1.4-2.42-3.06-3.18-4.98-.76-1.96-1.14-4.08-1.14-6.36 0-2.28.38-4.38 1.14-6.3.76-1.96 1.82-3.66 3.18-5.1 1.36-1.4 2.96-2.5 4.8-3.3 1.88-.8 3.92-1.2 6.12-1.2 2.16 0 4.16.4 6 1.2 1.88.8 3.5 1.9 4.86 3.3 1.36 1.4 2.42 3.08 3.18 5.04.8 1.96 1.2 4.08 1.2 6.36zm-3.42 0c0-1.84-.3-3.54-.9-5.1-.6-1.6-1.42-2.98-2.46-4.14-1.08-1.16-2.34-2.06-3.78-2.7-1.4-.68-2.94-1.02-4.62-1.02-1.68 0-3.24.32-4.68.96-1.44.64-2.7 1.54-3.78 2.7-1.08 1.16-1.92 2.54-2.52 4.14-.6 1.56-.9 3.28-.9 5.16 0 1.84.3 3.56.9 5.16.6 1.56 1.44 2.9 2.52 4.02 1.04 1.16 2.28 2.08 3.72 2.76 1.44.64 3.02.96 4.74.96 1.68 0 3.24-.32 4.68-.96 1.44-.68 2.7-1.6 3.78-2.76 1.04-1.16 1.84-2.52 2.4-4.08.6-1.56.9-3.26.9-5.1zm53.652-1.62l.06-14.88h3.42v15.24h12.18V164.6h3.36V221h-3.36v-33.42h-12.18v17.16h-25.86v-35.4h3.36v14.88h19.02zm.06 3.06h-19.08v14.46h19.08v-14.46zm56.832-1.5c0 2.08-.36 4.02-1.08 5.82-.68 1.76-1.64 3.3-2.88 4.62-1.24 1.32-2.72 2.36-4.44 3.12-1.68.72-3.5 1.08-5.46 1.08s-3.8-.36-5.52-1.08c-1.68-.76-3.14-1.8-4.38-3.12-1.24-1.32-2.22-2.86-2.94-4.62-.68-1.8-1.02-3.74-1.02-5.82 0-2.12.34-4.08 1.02-5.88.72-1.8 1.7-3.36 2.94-4.68 1.24-1.32 2.7-2.34 4.38-3.06 1.72-.76 3.56-1.14 5.52-1.14 1.96 0 3.78.38 5.46 1.14 1.68.72 3.14 1.74 4.38 3.06 1.24 1.32 2.22 2.88 2.94 4.68.72 1.8 1.08 3.76 1.08 5.88zm-3.3 0c0-1.68-.28-3.24-.84-4.68-.52-1.44-1.26-2.7-2.22-3.78-.96-1.04-2.08-1.84-3.36-2.4-1.28-.6-2.64-.9-4.08-.9-1.48 0-2.86.3-4.14.9-1.28.56-2.4 1.36-3.36 2.4-.96 1.08-1.72 2.34-2.28 3.78-.52 1.44-.78 3-.78 4.68 0 1.6.26 3.12.78 4.56.56 1.4 1.32 2.62 2.28 3.66.92 1.08 2.02 1.94 3.3 2.58 1.28.6 2.68.9 4.2.9 1.48 0 2.86-.3 4.14-.9 1.28-.64 2.4-1.5 3.36-2.58.92-1.04 1.64-2.26 2.16-3.66.56-1.44.84-2.96.84-4.56zm2.76 6.96h5.82v-13.8h-5.82v-2.88h5.82v-10.74h3.24v53.88h-3.24v-23.64h-5.82v-2.82zm20.04 28.26h-3.3v-56.4h3.3V221zm37.392-41.7c0 1.92-.34 3.68-1.02 5.28-.68 1.56-1.62 2.9-2.82 4.02-1.2 1.12-2.62 2-4.26 2.64-1.64.6-3.42.9-5.34.9s-3.7-.3-5.34-.9c-1.64-.6-3.06-1.46-4.26-2.58-1.24-1.12-2.2-2.46-2.88-4.02-.68-1.6-1.02-3.38-1.02-5.34 0-1.92.34-3.66 1.02-5.22.68-1.6 1.64-2.96 2.88-4.08 1.2-1.12 2.62-1.98 4.26-2.58 1.64-.6 3.42-.9 5.34-.9s3.7.32 5.34.96c1.64.6 3.06 1.46 4.26 2.58 1.2 1.12 2.14 2.46 2.82 4.02.68 1.56 1.02 3.3 1.02 5.22zm-3.36 0c0-1.48-.26-2.82-.78-4.02-.52-1.2-1.22-2.24-2.1-3.12-.92-.84-2-1.48-3.24-1.92-1.2-.48-2.5-.72-3.9-.72s-2.72.24-3.96.72c-1.24.44-2.32 1.08-3.24 1.92-.92.84-1.66 1.88-2.22 3.12-.52 1.2-.78 2.54-.78 4.02 0 1.52.26 2.88.78 4.08.52 1.2 1.24 2.22 2.16 3.06.88.88 1.94 1.56 3.18 2.04 1.28.44 2.64.66 4.08.66s2.76-.22 3.96-.66c1.24-.48 2.32-1.16 3.24-2.04.88-.84 1.56-1.86 2.04-3.06.52-1.24.78-2.6.78-4.08zm14.16 40.5v-17.1h-30.72v-3h34.08v20.1h-3.36zm3.36-34.32v9.12h-3.36v-30h3.36v7.5h9.6v2.88h-9.6v7.68h9.6v2.82h-9.6z"/>
    <path fill="#fff" d="M167.962 287.868h-6.272v-6.188h6.272v6.188zm0-8.484h-6.272v-6.44h-2.884v17.248h12.012v-17.248h-2.856v6.44zm13.496 1.204h-3.948v-9.716h-2.884v25.312h2.884v-13.188h3.948v-2.408zm13.662-6.832c3.556 0 5.88 1.036 5.88 2.828 0 1.792-2.324 2.828-5.88 2.828-3.584 0-5.908-1.036-5.908-2.828 0-1.792 2.324-2.828 5.908-2.828zm0 7.98c5.404 0 8.96-1.988 8.96-5.152s-3.556-5.152-8.96-5.152c-5.432 0-8.96 1.988-8.96 5.152s3.528 5.152 8.96 5.152zm-5.712 6.468h-2.912v7.476h17.584v-2.352h-14.672v-5.124zm-5.74-4.76v2.352h10.192v4.788h2.94v-4.788h9.8v-2.352h-22.932zm47.709-.224c-4.984-.896-9.044-4.788-9.044-8.82v-1.904h-3.052v1.904c0 4.004-4.06 7.896-9.044 8.82l1.232 2.38c4.116-.84 7.672-3.472 9.324-6.944 1.652 3.472 5.208 6.104 9.324 6.944l1.26-2.38zm-21.924 7.308v2.38h22.904v-2.38h-22.904zm49.995-19.656v13.58h2.884v-13.58h-2.884zm-13.636 14.756v10.22h16.52v-10.22h-2.856v2.8h-10.808v-2.8h-2.856zm2.856 5.04h10.808v2.856h-10.808v-2.856zm.028-18.648c-3.864 0-6.72 2.408-6.72 5.88s2.856 5.88 6.72 5.88 6.692-2.408 6.692-5.88-2.828-5.88-6.692-5.88zm0 2.38c2.268 0 3.892 1.4 3.892 3.5 0 2.128-1.624 3.5-3.892 3.5-2.296 0-3.892-1.372-3.892-3.5 0-2.1 1.596-3.5 3.892-3.5zm33.402 8.372c-3.864-1.232-5.964-4.172-5.964-7.308v-.476h5.292v-2.324h-13.58v2.324h5.376v.504c0 3.444-2.212 6.692-6.188 8.064l1.456 2.268c3.024-1.036 5.152-3.192 6.272-5.88 1.092 2.352 3.108 4.172 5.936 5.068l1.4-2.24zm-3.248 11.116c-3.528 0-5.572-.896-5.572-2.52 0-1.652 2.044-2.52 5.572-2.52s5.572.868 5.572 2.52c0 1.624-2.044 2.52-5.572 2.52zm0-7.308c-5.208 0-8.428 1.764-8.428 4.788 0 2.996 3.22 4.788 8.428 4.788s8.428-1.792 8.428-4.788c0-3.024-3.22-4.788-8.428-4.788zm8.148-9.548v-6.16h-2.884v15.12h2.884v-6.58h3.584v-2.38h-3.584zm23.91-6.188v25.368h2.912v-25.368h-2.912zm-10.556 1.876c-3.752 0-6.496 3.472-6.496 8.904 0 5.488 2.744 8.932 6.496 8.932 3.78 0 6.524-3.444 6.524-8.932 0-5.432-2.744-8.904-6.524-8.904zm0 2.604c2.212 0 3.752 2.38 3.752 6.3 0 3.976-1.54 6.356-3.752 6.356-2.184 0-3.724-2.38-3.724-6.356 0-3.92 1.54-6.3 3.724-6.3zm24.106 12.74c-1.736 0-2.8-2.268-2.8-6.272 0-4.004 1.064-6.244 2.8-6.244 1.736 0 2.8 2.24 2.8 6.244s-1.064 6.272-2.8 6.272zm8.092-7.616h-2.716c-.308-4.732-2.352-7.616-5.376-7.616-3.276 0-5.432 3.416-5.432 8.96 0 5.544 2.156 8.988 5.432 8.988 3.08 0 5.152-3.024 5.404-7.952h2.688v12.124h2.688v-23.604h-2.688v9.1zm5.068-9.576v25.256h2.744v-25.256h-2.744zm15.146 14.336c.98.224 2.072.336 3.192.336s2.212-.112 3.192-.364v5.516h-6.384v-5.488zm3.192-10.612c3.808 0 6.468 1.68 6.468 4.34 0 2.688-2.66 4.368-6.468 4.368-3.836 0-6.496-1.68-6.496-4.368 0-2.66 2.66-4.34 6.496-4.34zm6.076 16.1v-6.58c2.016-1.148 3.22-2.94 3.22-5.18 0-4.032-3.92-6.608-9.296-6.608-5.404 0-9.296 2.576-9.296 6.608 0 2.24 1.204 4.06 3.22 5.18v6.58h-5.348v2.352h22.904v-2.352h-5.404zm11.001 3.668c1.204 0 2.156-.924 2.156-2.24 0-1.344-.952-2.296-2.156-2.296-1.204 0-2.156.952-2.156 2.296 0 1.316.952 2.24 2.156 2.24zm-272.287 22.772h2.184v-2.324h-5.936v2.324h1.288v2.044c0 2.52-.084 5.992-1.624 8.596-1.596-2.688-1.68-6.272-1.68-8.596v-2.044h1.288v-2.324H90.05v2.324h2.436v2.044c0 3.332-.392 7.784-3.276 10.192l1.596 1.932c1.484-1.232 2.38-3.052 2.912-5.096.476 2.1 1.372 4.088 2.912 5.376 1.54-1.288 2.436-3.22 2.912-5.32.532 2.016 1.428 3.808 2.912 5.04l1.596-1.932c-2.884-2.38-3.304-6.748-3.304-10.192v-2.044zm8.288-5.292v10.108h-2.212v-9.604h-2.66v23.632h2.66v-11.676h2.212v12.88h2.688v-25.34h-2.688zm15.538 14.644c4.2-3.444 5.488-7.532 5.488-12.852h-6.076v2.324h3.332c-.308 3.696-1.652 6.384-4.76 8.848l2.016 1.68zm-8.288-12.852v2.324h3.976c-.364 3.36-1.792 5.544-4.816 7.588l1.82 1.82c4.284-3.024 5.74-6.58 5.74-11.732h-6.72zm2.38 16.744h13.72v6.86h2.884v-9.184h-16.604v2.324zm20.188-11.9h-3.584v-6.608h-2.884v15.064h2.884v-6.076h3.584v-2.38zm17.329 4.648c-3.752-1.232-5.936-4.228-5.936-7.448v-2.716h-2.884v2.576c0 3.528-2.184 6.776-6.16 8.064l1.484 2.268c2.968-1.036 5.04-3.08 6.16-5.74 1.064 2.38 3.08 4.284 5.852 5.236l1.484-2.24zm-7.728 6.748h10.948v4.676h-10.948v-4.676zm-2.828 6.972h16.604v-9.268h-16.604v9.268zm13.72-24.976v4.704h-5.124v2.38h5.124v7.42h2.884v-14.504h-2.884zm19.475 20.608h14.756v-6.244h-17.64v2.24h14.784v1.904h-14.728v6.468h18.452v-2.24H178.82v-2.128zm14.028-10.528c.532-2.772.532-4.984.532-6.972v-2.044h-17.164v2.268h14.336c0 .644 0 1.288-.028 1.988l-14.98.448.336 2.212 14.504-.616c-.084.84-.196 1.736-.42 2.716H173.36v2.296h22.792v-2.296h-3.304zm9.798 1.82h6.664v-9.296h-9.492v2.352h6.72v4.62h-6.664v9.856h1.708c3.108 0 5.908-.084 9.296-.672l-.252-2.352c-2.884.476-5.348.616-7.98.644v-5.152zm15.26-11.9v9.772h-2.996v-9.268h-2.716v23.52h2.716v-11.9h2.996v13.132h2.744v-25.256h-2.744zm28.866 12.348c-4.984-.896-9.044-4.788-9.044-8.82v-1.904h-3.052v1.904c0 4.004-4.06 7.896-9.044 8.82l1.232 2.38c4.116-.84 7.672-3.472 9.324-6.944 1.652 3.472 5.208 6.104 9.324 6.944l1.26-2.38zm-21.924 7.308v2.38h22.904v-2.38h-22.904zm42.967-6.02c.14-.84.196-1.708.196-2.688 0-.98-.056-1.876-.196-2.716h2.912v5.404h-2.912zm-5.236 3.556c-1.736 0-2.828-2.24-2.828-6.244s1.092-6.272 2.828-6.272c1.736 0 2.828 2.268 2.828 6.272 0 4.004-1.092 6.244-2.828 6.244zm8.148-11.34h-3.5c-.868-2.492-2.548-3.892-4.648-3.892-3.276 0-5.432 3.416-5.432 8.988 0 5.544 2.156 8.96 5.432 8.96 2.128 0 3.78-1.456 4.676-3.92h3.472v8.092h2.688v-23.604h-2.688v5.376zm5.012-5.852v25.256h2.744v-25.256h-2.744zm10.05 7.532c0-2.212 1.652-3.64 3.892-3.64 2.268 0 3.92 1.428 3.92 3.64s-1.652 3.64-3.92 3.64c-2.24 0-3.892-1.428-3.892-3.64zm10.64 0c0-3.584-2.884-6.076-6.748-6.076-3.836 0-6.72 2.492-6.72 6.076 0 3.584 2.884 6.076 6.72 6.076 3.864 0 6.748-2.492 6.748-6.076zm-10.668 10.892h13.748v6.888h2.884v-9.212h-16.632v2.324zm20.132-12.432v-2.38h-3.5v-3.612h-2.884v14.98h2.884v-3.556h3.5v-2.38h-3.5v-3.052h3.5zm13.941-2.884c3.696 0 6.02 1.036 6.02 2.8 0 1.792-2.324 2.828-6.02 2.828-3.724 0-6.048-1.036-6.048-2.828 0-1.764 2.324-2.8 6.048-2.8zm0 7.952c5.46 0 9.016-1.932 9.016-5.152 0-3.192-3.556-5.124-9.016-5.124s-9.016 1.932-9.016 5.124c0 3.22 3.556 5.152 9.016 5.152zm-5.656 6.384h-2.912v7.364h17.444v-2.352h-14.532v-5.012zm-5.796-4.34v2.352h22.876v-2.352h-22.876zm35.603-8.036h4.368v11.34h-4.368v-11.34zm-2.688 13.636h9.744v-15.932h-9.744v15.932zm18.004-18.704v9.856h-2.884v-9.38h-2.716v23.604h2.716V324.08h2.884v13.048h2.744v-25.256h-2.744zm15.818 14.56h4.984v5.432h-4.984v-5.432zm-.42-10.052h5.824v7.728h-5.824v-7.728zm8.26 15.484v-5.432h4.06v-2.324h-3.64v-7.728h3.724v-2.324h-19.012v2.324h3.724v7.728h-3.64v2.324h4.06v5.432h-6.02v2.38h22.932v-2.38h-6.188zm14.698-2.8c-1.736 0-2.8-2.268-2.8-6.272 0-4.004 1.064-6.244 2.8-6.244 1.736 0 2.8 2.24 2.8 6.244s-1.064 6.272-2.8 6.272zm8.092-7.616h-2.716c-.308-4.732-2.352-7.616-5.376-7.616-3.276 0-5.432 3.416-5.432 8.96 0 5.544 2.156 8.988 5.432 8.988 3.08 0 5.152-3.024 5.404-7.952h2.688v12.124h2.688v-23.604h-2.688v9.1zm5.068-9.576v25.256h2.744v-25.256h-2.744zm16.07 2.044h-2.912v4.172c0 4.732-2.464 9.604-6.412 11.536l1.82 2.296c2.884-1.484 4.956-4.424 6.076-8.008 1.092 3.388 3.136 6.16 5.992 7.588l1.708-2.324c-3.864-1.792-6.272-6.384-6.272-11.088v-4.172zm8.932-2.1v8.316h-5.404v2.352h5.404v14.7h2.912v-25.368h-2.912zm9.966 16.604h2.156l.448-11.2.112-3.332h-3.248l.084 3.332.448 11.2zm1.064 6.944c1.232 0 2.184-.924 2.184-2.24 0-1.344-.952-2.296-2.184-2.296-1.204 0-2.128.952-2.128 2.296 0 1.316.924 2.24 2.128 2.24z"/>
    <path fill="#EADA22" d="M190.927 190.46c0 1.56-.3 3-.9 4.32-.6 1.32-1.44 2.46-2.52 3.42s-2.38 1.7-3.9 2.22c-1.48.52-3.12.78-4.92.78-1.8 0-3.46-.26-4.98-.78-1.48-.52-2.76-1.24-3.84-2.16-1.08-.92-1.92-2.04-2.52-3.36-.6-1.32-.9-2.8-.9-4.44 0-1.6.28-3.06.84-4.38.6-1.36 1.44-2.52 2.52-3.48s2.36-1.7 3.84-2.22c1.52-.52 3.2-.78 5.04-.78 1.84 0 3.5.28 4.98.84 1.52.52 2.82 1.26 3.9 2.22 1.08.96 1.9 2.1 2.46 3.42.6 1.32.9 2.78.9 4.38zm-3.42 0c0-2.48-.82-4.42-2.46-5.82-1.6-1.44-3.72-2.16-6.36-2.16-2.68 0-4.84.72-6.48 2.16-1.6 1.4-2.4 3.34-2.4 5.82 0 2.4.8 4.32 2.4 5.76 1.64 1.4 3.8 2.1 6.48 2.1 2.64 0 4.76-.7 6.36-2.1 1.64-1.44 2.46-3.36 2.46-5.76zm6.24 2.76h10.38v-8.58h-10.38v-2.76h10.38V167.6h3.36v38.34h-3.36v-9.96h-10.38v-2.76zm14.58 29.28h-34.74v-16.2h3.36v13.2h31.38v3zm-45.36-46.32v-2.76h14.04v-5.82h3.42v5.82h14.04v2.76h-31.5zm97.271 35.88c0 1.84-.4 3.54-1.2 5.1-.76 1.52-1.82 2.84-3.18 3.96-1.4 1.08-3.04 1.92-4.92 2.52-1.84.64-3.84.96-6 .96-2.12 0-4.1-.3-5.94-.9-1.84-.6-3.44-1.46-4.8-2.58-1.36-1.12-2.44-2.44-3.24-3.96-.76-1.52-1.14-3.22-1.14-5.1 0-1.92.38-3.64 1.14-5.16.8-1.56 1.9-2.9 3.3-4.02 1.36-1.08 2.94-1.92 4.74-2.52 1.84-.6 3.82-.9 5.94-.9 2.12 0 4.1.3 5.94.9 1.88.6 3.52 1.44 4.92 2.52 1.36 1.12 2.44 2.46 3.24 4.02.8 1.56 1.2 3.28 1.2 5.16zm-3.42 0c0-1.44-.3-2.74-.9-3.9-.6-1.2-1.44-2.22-2.52-3.06-1.08-.84-2.34-1.48-3.78-1.92-1.44-.48-3-.72-4.68-.72-1.64 0-3.18.24-4.62.72-1.4.44-2.62 1.08-3.66 1.92-1.08.84-1.94 1.86-2.58 3.06-.6 1.16-.9 2.46-.9 3.9s.3 2.76.9 3.96c.64 1.16 1.5 2.16 2.58 3 1.08.8 2.32 1.44 3.72 1.92 1.44.44 2.96.66 4.56.66 1.64 0 3.18-.22 4.62-.66 1.44-.48 2.7-1.14 3.78-1.98 1.08-.84 1.92-1.84 2.52-3 .64-1.16.96-2.46.96-3.9zm3.48-28.08v14.28h-3.36V167.6h3.36v13.44h9.6v2.94h-9.6zm-28.98-10.8h-12.12v-2.94h27.96v2.94h-12.18v3.06c.08 1.88.54 3.68 1.38 5.4.88 1.68 2 3.24 3.36 4.68 1.32 1.44 2.82 2.74 4.5 3.9 1.72 1.16 3.46 2.14 5.22 2.94-.4.36-.8.74-1.2 1.14-.4.36-.8.74-1.2 1.14-1.52-.68-2.98-1.48-4.38-2.4-1.4-.96-2.7-2-3.9-3.12-1.2-1.08-2.28-2.26-3.24-3.54-.92-1.28-1.68-2.6-2.28-3.96-1.24 3-3.1 5.74-5.58 8.22-2.48 2.48-5.26 4.48-8.34 6-.4-.4-.8-.78-1.2-1.14-.4-.4-.8-.78-1.2-1.14 1.8-.88 3.56-1.98 5.28-3.3 1.72-1.36 3.26-2.86 4.62-4.5 1.32-1.6 2.38-3.28 3.18-5.04.84-1.76 1.28-3.48 1.32-5.16v-3.18zm86.892 23.22h-3.36v-28.8h3.36v28.8zm-34.08 26.4v-21.9h3.36v7.32h27.36v-7.32h3.36v21.9h-34.08zm30.72-11.7h-27.36v8.82h27.36v-8.82zm-12-28.8c0 1.92-.34 3.68-1.02 5.28-.68 1.56-1.62 2.9-2.82 4.02-1.2 1.12-2.62 2-4.26 2.64-1.64.6-3.42.9-5.34.9s-3.7-.3-5.34-.9c-1.64-.6-3.06-1.46-4.26-2.58-1.24-1.12-2.2-2.46-2.88-4.02-.68-1.6-1.02-3.38-1.02-5.34 0-1.92.34-3.66 1.02-5.22.68-1.6 1.64-2.96 2.88-4.08 1.2-1.12 2.62-1.98 4.26-2.58 1.64-.6 3.42-.9 5.34-.9s3.7.32 5.34.96c1.64.6 3.06 1.46 4.26 2.58 1.2 1.12 2.14 2.46 2.82 4.02.68 1.56 1.02 3.3 1.02 5.22zm-3.36 0c0-1.48-.26-2.82-.78-4.02-.52-1.2-1.22-2.24-2.1-3.12-.92-.84-2-1.48-3.24-1.92-1.2-.48-2.5-.72-3.9-.72s-2.72.24-3.96.72c-1.24.44-2.32 1.08-3.24 1.92-.92.84-1.66 1.88-2.22 3.12-.52 1.2-.78 2.54-.78 4.02 0 1.52.26 2.88.78 4.08.52 1.2 1.24 2.22 2.16 3.06.88.88 1.94 1.56 3.18 2.04 1.28.44 2.64.66 4.08.66s2.76-.22 3.96-.66c1.24-.48 2.32-1.16 3.24-2.04.88-.84 1.56-1.86 2.04-3.06.52-1.24.78-2.6.78-4.08zm71.772 29.76c0 1.84-.4 3.54-1.2 5.1-.76 1.52-1.82 2.84-3.18 3.96-1.4 1.08-3.04 1.92-4.92 2.52-1.84.64-3.84.96-6 .96-2.12 0-4.1-.3-5.94-.9-1.84-.6-3.44-1.46-4.8-2.58-1.36-1.12-2.44-2.44-3.24-3.96-.76-1.52-1.14-3.22-1.14-5.1 0-1.92.38-3.64 1.14-5.16.8-1.56 1.9-2.9 3.3-4.02 1.36-1.08 2.94-1.92 4.74-2.52 1.84-.6 3.82-.9 5.94-.9 2.12 0 4.1.3 5.94.9 1.88.6 3.52 1.44 4.92 2.52 1.36 1.12 2.44 2.46 3.24 4.02.8 1.56 1.2 3.28 1.2 5.16zm-3.42 0c0-1.44-.3-2.74-.9-3.9-.6-1.2-1.44-2.22-2.52-3.06-1.08-.84-2.34-1.48-3.78-1.92-1.44-.48-3-.72-4.68-.72-1.64 0-3.18.24-4.62.72-1.4.44-2.62 1.08-3.66 1.92-1.08.84-1.94 1.86-2.58 3.06-.6 1.16-.9 2.46-.9 3.9s.3 2.76.9 3.96c.64 1.16 1.5 2.16 2.58 3 1.08.8 2.32 1.44 3.72 1.92 1.44.44 2.96.66 4.56.66 1.64 0 3.18-.22 4.62-.66 1.44-.48 2.7-1.14 3.78-1.98 1.08-.84 1.92-1.84 2.52-3 .64-1.16.96-2.46.96-3.9zm3.48-28.08v14.28h-3.36V167.6h3.36v13.44h9.6v2.94h-9.6zm-28.98-10.8h-12.12v-2.94h27.96v2.94h-12.18v3.06c.08 1.88.54 3.68 1.38 5.4.88 1.68 2 3.24 3.36 4.68 1.32 1.44 2.82 2.74 4.5 3.9 1.72 1.16 3.46 2.14 5.22 2.94-.4.36-.8.74-1.2 1.14-.4.36-.8.74-1.2 1.14-1.52-.68-2.98-1.48-4.38-2.4-1.4-.96-2.7-2-3.9-3.12-1.2-1.08-2.28-2.26-3.24-3.54-.92-1.28-1.68-2.6-2.28-3.96-1.24 3-3.1 5.74-5.58 8.22-2.48 2.48-5.26 4.48-8.34 6-.4-.4-.8-.78-1.2-1.14-.4-.4-.8-.78-1.2-1.14 1.8-.88 3.56-1.98 5.28-3.3 1.72-1.36 3.26-2.86 4.62-4.5 1.32-1.6 2.38-3.28 3.18-5.04.84-1.76 1.28-3.48 1.32-5.16v-3.18z"/>
    <path fill="#fff" d="M680.433 273.644h-2.268v16.072h1.596c3.024 0 5.824-.168 9.1-.84l-.308-1.932c-2.912.588-5.432.756-8.12.784v-14.084zm10.304 5.74h-5.6v1.904h5.6v13.524h2.184v-23.24h-2.184v7.812zm5.348-8.456v25.144h2.184v-25.144h-2.184zm24.862.028v25.172h2.296v-25.172h-2.296zm-10.948 1.932c-3.724 0-6.384 3.416-6.384 8.764 0 5.348 2.66 8.764 6.384 8.764s6.384-3.416 6.384-8.764c0-5.348-2.66-8.764-6.384-8.764zm0 2.072c2.436 0 4.172 2.632 4.172 6.692 0 4.088-1.736 6.72-4.172 6.72-2.464 0-4.2-2.632-4.2-6.72 0-4.06 1.736-6.692 4.2-6.692zm28.726 12.936h-7v-6.608h7v6.608zm8.12-16.94v9.324h-5.88v-7.336h-2.24v6.524h-7v-6.524h-2.268v16.828h11.508v-7.644h5.88v14h2.296v-25.172h-2.296zm24.431 13.72c.14-.896.224-1.82.224-2.884 0-1.064-.084-1.988-.224-2.884h3.416v5.768h-3.416zm-5.152 3.752c-1.988 0-3.276-2.548-3.276-6.636 0-4.06 1.288-6.608 3.276-6.608 2.016 0 3.276 2.548 3.276 6.608 0 4.088-1.26 6.636-3.276 6.636zm8.568-11.396H770.8c-.868-2.52-2.492-3.976-4.676-3.976-3.248 0-5.348 3.36-5.348 8.736 0 5.404 2.1 8.764 5.348 8.764 2.184 0 3.78-1.456 4.676-3.976h3.892v8.26h2.184v-23.324h-2.184v5.516zm4.928-6.076v25.116h2.184v-25.116h-2.184zm9.322 7.448c0-2.38 1.792-4.004 4.312-4.004 2.492 0 4.312 1.624 4.312 4.004 0 2.352-1.82 4.004-4.312 4.004-2.52 0-4.312-1.652-4.312-4.004zm10.864 0c0-3.528-2.772-5.936-6.552-5.936-3.808 0-6.552 2.408-6.552 5.936 0 3.5 2.744 5.936 6.552 5.936 3.78 0 6.552-2.436 6.552-5.936zm-10.416 10.528h14.028v7.14h2.296v-9.016H789.39v1.876zm19.964-12.236v-1.904h-3.64v-3.808h-2.296v14.896h2.296v-3.836h3.64v-1.876h-3.64v-3.472h3.64zm13.97-3.584c4.116 0 6.468.952 6.468 2.632 0 1.68-2.352 2.632-6.468 2.632s-6.468-.952-6.468-2.632c0-1.68 2.352-2.632 6.468-2.632zm0 6.972c5.516 0 8.82-1.512 8.82-4.34s-3.304-4.368-8.82-4.368-8.82 1.54-8.82 4.368c0 2.828 3.304 4.34 8.82 4.34zm-6.3 11.368h14.756v-5.656H814.7v1.736h14.812v2.24h-14.728v6.02h17.752V294h-15.512v-2.548zm-5.068-9.66v1.848h22.736v-1.848h-22.736zm39.412 6.776c-2.268 0-3.92-1.624-3.92-3.864 0-2.268 1.652-3.892 3.92-3.892 2.296 0 3.948 1.624 3.948 3.892 0 2.24-1.652 3.864-3.948 3.864zm0-9.66c-3.528 0-6.076 2.408-6.076 5.796 0 3.416 2.548 5.768 6.076 5.768 3.584 0 6.132-2.352 6.132-5.768 0-3.388-2.548-5.796-6.132-5.796zm1.12-7.644h-2.296v3.724h-6.328v1.848h14.812v-1.848h-6.188v-3.724zm14.98 10.024h-4.116v-10.304h-2.296v25.088h2.296V283.22h4.116v-1.932zm20.661 4.396h2.324v-14.728h-2.324v2.996h-4.956v1.876h4.956v3.08h-4.956v1.876h4.956v4.9zm-3.78-2.744c-3.612-1.4-6.076-4.844-6.076-8.484v-2.604h-2.268v2.604c0 3.976-2.408 7.42-6.216 8.876l1.26 1.848c2.884-1.204 5.068-3.5 6.132-6.468 1.092 2.744 3.192 4.928 5.88 6.02l1.288-1.792zm3.36 3.64h-2.24v1.148c0 1.96-1.176 4.508-3.556 6.02-2.352-1.372-3.5-3.78-3.5-6.02v-1.148h-2.212v1.148c0 2.436-1.876 5.152-5.068 6.328l1.148 1.708c2.352-.924 4.088-2.66 4.984-4.676.756 2.1 2.268 3.948 4.676 4.9 2.324-1.008 3.836-2.94 4.62-4.984.84 2.128 2.632 3.836 5.068 4.76l1.148-1.708c-3.22-1.092-5.068-3.724-5.068-6.328v-1.148zm11.17-11.312h9.38v-1.904h-11.676v16.492h1.988c4.732 0 8.036-.168 11.872-.896l-.252-1.904c-3.64.644-6.86.84-11.312.84v-12.628zm20.104 5.6h-4.144v-9.912h-2.296v25.172h2.296v-13.356h4.144v-1.904zm12.654 2.184h-6.944v-8.064h6.944v8.064zm8.008-5.796v3.5h-5.768v-3.5h5.768zm-5.768 5.376h5.768v6.664h2.324v-18.312h-2.324v4.396h-5.768v-2.212h-11.452v11.704h11.452v-2.24zm-5.768 11.004v-5.964h-2.296v7.84h16.744v-1.876h-14.448zM706.812 330.12h-3.079v-6.524h3.079v6.524zm0-8.372h-3.079v-6.44h-1.96v16.688h6.944v-16.688h-1.905v6.44zm8.149 8.372h-2.968v-6.524h2.968v6.524zm0-8.372h-2.968v-6.44h-1.932v16.688h6.832v-16.688h-1.932v6.44zm9.688 1.008h-3.36v-9.8h-2.268v25.116h2.268v-13.384h3.36v-1.932zm20.129-2.128h-14.896v7.812h17.724v-1.876H732.15v-4.088h14.868v-7.588h-17.192v1.848h14.952v3.892zm-17.752 12.376v1.904h22.82v-1.904h-22.82zm39.702-9.772h-4.34c.84-2.24 1.204-4.62 1.204-7.084h-9.688v1.876h7.42c-.42 5.264-3.108 9.772-8.484 12.992l1.344 1.652c3.472-2.072 5.88-4.676 7.392-7.588h5.152v11.732h2.184v-23.184h-2.184v9.604zm5.236-10.276v25.116h2.184v-25.116h-2.184zm31.18.028v13.468h2.296v-13.468h-2.296zm-13.888 14.7v10.052h16.184v-10.052h-2.268v3.08h-11.648v-3.08h-2.268zm2.268 4.872h11.648v3.332h-11.648v-3.332zm.42-18.396c-3.78 0-6.524 2.352-6.524 5.768 0 3.472 2.744 5.796 6.524 5.796 3.808 0 6.58-2.324 6.58-5.796 0-3.416-2.772-5.768-6.58-5.768zm0 1.904c2.548 0 4.34 1.596 4.34 3.864 0 2.296-1.792 3.892-4.34 3.892-2.492 0-4.284-1.596-4.284-3.892 0-2.268 1.792-3.864 4.284-3.864zm33.205 9.044c-3.696-1.232-6.076-4.172-6.076-7.448v-.98h5.544v-1.848h-13.468v1.848h5.628v.98c0 3.612-2.52 6.86-6.3 8.176l1.176 1.82c2.996-1.064 5.264-3.304 6.328-6.16 1.064 2.492 3.22 4.48 6.076 5.404l1.092-1.792zm-3.052 11.116c-3.752 0-5.992-1.036-5.992-2.828 0-1.764 2.24-2.8 5.992-2.8 3.696 0 5.964 1.036 5.964 2.8 0 1.792-2.268 2.828-5.964 2.828zm0-7.448c-5.152 0-8.288 1.708-8.288 4.62 0 2.94 3.136 4.648 8.288 4.648 5.096 0 8.26-1.708 8.26-4.648 0-2.912-3.164-4.62-8.26-4.62zm7.98-9.464v-6.328h-2.296v15.148h2.296v-6.888h3.724v-1.932h-3.724zm13.634 11.256c-2.268 0-3.92-1.624-3.92-3.864 0-2.268 1.652-3.892 3.92-3.892 2.296 0 3.948 1.624 3.948 3.892 0 2.24-1.652 3.864-3.948 3.864zm0-9.66c-3.528 0-6.076 2.408-6.076 5.796 0 3.416 2.548 5.768 6.076 5.768 3.584 0 6.132-2.352 6.132-5.768 0-3.388-2.548-5.796-6.132-5.796zm1.12-7.644h-2.296v3.724h-6.328v1.848h14.812v-1.848h-6.188v-3.724zm14.98 10.024h-4.116v-10.304h-2.296v25.088h2.296V325.22h4.116v-1.932zm9.742-7.952h-2.212v4.788c0 4.312-2.072 8.82-5.516 10.836l1.428 1.708c2.492-1.54 4.312-4.368 5.208-7.7.896 3.052 2.576 5.712 4.956 7.168l1.316-1.792c-3.304-2.016-5.18-6.272-5.18-10.304v-4.704zm6.608 6.636h-4.144v1.904h4.144v12.964h2.156v-23.324h-2.156v8.456zm5.096-9.016v25.116h2.184v-25.116h-2.184zm14.474 14.084c1.036.252 2.24.392 3.472.392 1.26 0 2.464-.14 3.528-.392v5.908h-7v-5.908zm3.472-10.696c4.032 0 6.944 1.848 6.944 4.648s-2.912 4.648-6.944 4.648-6.916-1.848-6.916-4.648 2.884-4.648 6.916-4.648zm5.824 16.604v-6.804c2.072-1.092 3.304-2.884 3.304-5.152 0-3.92-3.78-6.44-9.128-6.44-5.32 0-9.128 2.52-9.128 6.44 0 2.268 1.26 4.088 3.36 5.18v6.776h-5.6v1.904h22.82v-1.904h-5.628zm10.75-3.136h1.764l.336-11.872.084-2.912h-2.604l.084 2.912.336 11.872zm.868 6.552c1.036 0 1.848-.784 1.848-1.932 0-1.176-.812-1.988-1.848-1.988-1.008 0-1.848.812-1.848 1.988 0 1.148.84 1.932 1.848 1.932z"/>
</svg>
