<svg xmlns="http://www.w3.org/2000/svg" width="1080" height="600" fill="none" viewBox="0 0 1080 600">
    <path fill="#fff" fill-opacity=".1" d="M0 0H1080V600H0z"/>
    <path stroke="#696969" stroke-width="3" d="M541.5 50L541.5 550"/>
    <path fill="#fff" d="M734.415 368v19.172L721.286 368h-14.197v38h14.147v-19.172L734.364 406h14.198v-38h-14.147zM900.359 391.79c5.025-1.4 8.269-5.025 8.269-10.852 0-9.783-7.773-12.938-18.001-12.938h-17.67v38h14.146v-11.869L895.55 406h16.259l-11.45-14.21zm-6.946-7.748c-.827.662-2.417 1.005-3.727 1.005h-3.041v-7.48h2.977c1.425 0 3.053.343 3.842 1.018.789.687 1.158 1.615 1.158 2.786 0 1.119-.382 2.01-1.209 2.671zM838.465 368h28.688v9.898h-14.668v4.478h13.51v9.337h-13.51v4.389h15.113V406h-29.133v-38zM782.606 368h-16.131l-14.885 38h15.737l1.374-4.961h11.679l1.374 4.961h15.737l-14.885-38zm-11.589 24.26l3.333-12.531h.381l3.333 12.531h-7.047zM820.02 368l-6.984 22.912h-.382L805.683 368h-15.432l15.915 38h13.358l15.915-38H820.02zM710.901 454.322c6.324 0 10.675-.32 12.604-.64 1.3-.229 1.749-1.418 1.614-2.791-.134-1.372-.942-2.332-2.287-2.15-2.871.412-6.638.595-8.926.595-.762 0-1.031-.274-1.031-1.052v-17.84c0-1.693-1.391-2.471-2.916-2.471-1.48 0-2.87.778-2.87 2.471v20.082c0 2.881.942 3.796 3.812 3.796zm25.476 8.372c0 1.555 1.301 2.287 2.646 2.287 1.346 0 2.646-.732 2.646-2.287v-35.407c0-1.555-1.3-2.287-2.646-2.287-1.345 0-2.646.732-2.646 2.287v35.407zm-8.432-1.922c0 1.556 1.301 2.288 2.646 2.288 1.301 0 2.602-.732 2.602-2.288v-33.027c0-1.556-1.301-2.288-2.602-2.288-1.345 0-2.646.732-2.646 2.288v9.515h-6.234c-1.391 0-2.019 1.143-2.019 2.516 0 1.326.628 2.47 2.019 2.47h6.234v18.526zM746.834 441.239c0 9.012 3.633 13.907 10.81 13.907 7.176 0 10.809-4.895 10.809-13.907 0-9.011-3.633-13.906-10.809-13.906-7.177 0-10.81 4.895-10.81 13.906zm16.102 0c0 5.764-1.39 8.829-5.292 8.829s-5.293-3.065-5.293-8.829c0-5.763 1.391-8.828 5.293-8.828s5.292 3.065 5.292 8.828zm16.909-13.769c0-1.692-1.39-2.47-2.915-2.47-1.48 0-2.871.778-2.871 2.47v35.041c0 1.692 1.391 2.47 2.871 2.47 1.525 0 2.915-.778 2.915-2.47V427.47zM813.895 462.511c0 1.692 1.39 2.47 2.87 2.47 1.435 0 2.826-.778 2.826-2.47V427.47c0-1.692-1.391-2.47-2.826-2.47-1.48 0-2.87.778-2.87 2.47v11.299h-7.266v-8.646c0-1.646-1.391-2.424-2.826-2.424s-2.826.778-2.826 2.424v7.091h-8.432v-7.091c0-1.646-1.39-2.424-2.825-2.424-1.436 0-2.826.778-2.826 2.424v20.586c0 2.881.942 3.796 3.812 3.796h12.11c2.871 0 3.813-.915 3.813-3.796v-6.999h7.266v18.801zm-20.318-12.9c-.763 0-1.032-.275-1.032-1.052v-6.45h8.432v6.45c0 .777-.269 1.052-1.031 1.052h-6.369zM843.593 454.78c4.216 0 6.952-2.104 8.253-6.176h4.844v12.168c0 1.556 1.301 2.288 2.646 2.288 1.301 0 2.602-.732 2.602-2.288v-33.027c0-1.556-1.301-2.288-2.602-2.288-1.345 0-2.646.732-2.646 2.288v6.129h-4.844c-1.301-4.071-4.037-6.175-8.253-6.175-6.324 0-9.194 4.666-9.194 13.54 0 8.875 2.87 13.541 9.194 13.541zm21.081 7.914c0 1.555 1.3 2.287 2.646 2.287 1.345 0 2.646-.732 2.646-2.287v-35.407c0-1.555-1.301-2.287-2.646-2.287-1.346 0-2.646.732-2.646 2.287v35.407zm-21.081-29.917c2.916 0 4.037 2.836 4.037 8.462 0 5.627-1.121 8.463-4.037 8.463-2.915 0-4.036-2.836-4.036-8.463 0-5.626 1.121-8.462 4.036-8.462zm9.195 8.462c0-.869-.045-1.692-.09-2.47h3.992v4.941h-3.992c.045-.778.09-1.601.09-2.471zM874.234 437.122c0 6.039 3.633 10.43 10.72 10.43 7.086 0 10.719-4.391 10.719-10.43 0-6.038-3.633-10.429-10.719-10.429-7.087 0-10.72 4.391-10.72 10.429zm15.967 0c0 3.111-1.435 5.581-5.247 5.581-3.813 0-5.248-2.47-5.248-5.581 0-3.11 1.435-5.581 5.248-5.581 3.812 0 5.247 2.471 5.247 5.581zm16.012-9.652c0-1.692-1.39-2.47-2.87-2.47-1.48 0-2.871.778-2.871 2.47v20.082c0 1.693 1.391 2.47 2.871 2.47s2.87-.777 2.87-2.47v-4.117h3.858c1.39 0 2.018-1.144 2.018-2.47 0-1.372-.628-2.516-2.018-2.516h-3.858v-2.79h3.858c1.39 0 2.018-1.144 2.018-2.471 0-1.372-.628-2.516-2.018-2.516h-3.858v-3.202zm-5.741 38.06c0 1.692 1.391 2.47 2.871 2.47s2.87-.778 2.87-2.47v-10.018c0-2.882-.942-3.797-3.812-3.797h-21.439c-1.391 0-2.018 1.144-2.018 2.47 0 1.327.627 2.47 2.018 2.47h18.479c.762 0 1.031.275 1.031 1.052v7.823zM210.974 412.237c.703.079.952.358 1.086 1.114l1.489 12.89 3.884-12.653c.325-.925.457-1.03 1.136-.743l3.147 1.227c.618.29.804.592.56 1.335l-6.213 18.722c-.386 1.198-.869 1.394-1.818 1.287l-2.453-.278c-.89-.1-1.344-.432-1.485-1.66l-1.301-11.006-3.694 10.441c-.412 1.166-.928 1.388-1.818 1.288l-2.453-.278c-.95-.107-1.377-.406-1.485-1.66l-1.878-19.635c-.063-.779.176-1.032.844-1.177l3.341-.494c.727-.138.841.005.941.978l.963 13.201 4.327-12.233c.301-.707.605-.923 1.308-.844l1.572.178zM229.491 427.922l-.412 4.451 6.804.769c.861.098 1.222.449 1.128 1.28l-.266 2.354c-.097.86-.528 1.122-1.388 1.025l-10.573-1.195c-1.068-.121-1.301-.548-1.192-1.777l1.904-19.329c.106-1.2.516-1.554 1.584-1.433l11.8 1.333c.861.097 1.225.419 1.128 1.28l-.271 2.393c-.094.831-.524 1.093-1.384.996l-7.992-.904-.402 4.092 6.864.776c.86.097 1.225.419 1.127 1.279l-.27 2.394c-.097.86-.524 1.092-1.385.995l-6.805-.769.001-.01zM254.232 435.216c.861.097 1.225.419 1.128 1.279l-.266 2.354c-.097.861-.528 1.123-1.388 1.025l-11.424-1.291c-1.068-.12-1.33-.551-1.221-1.78l1.844-19.335c.106-1.201.516-1.555 1.595-1.433l2.452.277c1.069.121 1.301.548 1.195 1.748l-1.472 16.312 7.556.854.001-.01zM272.243 440.918c-.036.587-.15.795-.902.8-4.757.083-8.484-1.239-10.861-3.521-2.377-2.282-3.46-5.64-3.014-9.587.468-4.134 2.54-6.785 5.435-8.291 2.858-1.45 6.469-1.753 10.071-1.005.573.155.806.311.741.885l-.386 3.152c-.059.524-.294.648-.874.552-2.469-.399-4.742-.316-6.456.573-1.713.888-2.863 2.561-3.169 5.261-.259 2.295.407 4.113 1.879 5.361 1.467 1.288 3.743 1.976 6.824 1.923.713-.009.84.286.818.744l-.106 3.153zM290.595 441.218c-2.064 1.78-4.702 2.604-7.392 2.3-2.7-.305-5.087-1.697-6.692-3.892-1.605-2.195-2.453-5.246-2.048-8.826.401-3.551 1.898-6.337 3.962-8.117 2.065-1.78 4.702-2.604 7.393-2.3 2.7.305 5.083 1.727 6.689 3.922 1.615 2.195 2.452 5.245 2.051 8.796-.403 3.561-1.898 6.337-3.963 8.117zm-2.185-13.901c-.736-1.205-1.831-1.879-3.157-2.029-1.325-.15-2.545.273-3.5 1.277-.989 1.04-1.693 2.664-1.942 4.869-.25 2.206.084 3.947.81 5.151.706 1.201 1.801 1.876 3.127 2.026 1.325.15 2.545-.274 3.529-1.274.956-1.014 1.661-2.637 1.91-4.843.249-2.206-.075-3.945-.777-5.177zM312.797 424.896c.388-.948.683-1.075 1.573-.975l2.819.319c.949.107 1.416.41 1.396 1.65l-.09 20.034c.009.713-.081.983-.705 1.003l-3.137.016c-.712.009-.854-.157-.883-.691l-.013-12.473-4.946 11.321c-.297.678-.605.924-1.307.844l-1.534-.173c-.702-.079-.947-.387-1.086-1.114l-2.324-12.143-2.766 12.158c-.148.515-.323.645-1.016.477l-3.054-.716c-.603-.158-.631-.442-.463-1.134l4.383-19.549c.257-1.213.78-1.405 1.729-1.297l2.819.318c.89.101 1.149.29 1.316 1.301l2.205 13.191 5.084-12.367zM327.677 439.018l-.413 4.451 6.805.77c.86.097 1.221.448 1.128 1.279l-.266 2.354c-.098.86-.528 1.122-1.388 1.025l-10.574-1.195c-1.068-.121-1.3-.547-1.191-1.777l1.904-19.328c.105-1.201.516-1.555 1.594-1.433l11.8 1.333c.86.098 1.224.419 1.127 1.28l-.27 2.393c-.094.831-.524 1.093-1.385.996l-7.992-.903-.404 4.111 6.864.776c.86.097 1.225.419 1.128 1.279l-.271 2.394c-.097.86-.524 1.093-1.385.995l-6.814-.77.003-.03z"/>
    <path stroke="#fff" stroke-miterlimit="10" stroke-width="5" d="M346.769 471.529l-167.154-18.89c-1.642-.185-2.818-1.661-2.632-3.302l6.595-58.356c.185-1.642 1.66-2.818 3.302-2.632l167.155 18.89c1.642.186 2.817 1.661 2.632 3.303l-6.595 58.355c-.186 1.642-1.661 2.818-3.303 2.632zM268.605 361.885l-69.609 27.834M280.276 363.203l61.642 42.667"/>
    <path fill="#fff" stroke="#fff" stroke-miterlimit="10" stroke-width="5" d="M274.044 366.034c3.66.413 6.962-2.218 7.376-5.878.413-3.66-2.218-6.962-5.878-7.376-3.66-.413-6.962 2.218-7.376 5.878-.413 3.66 2.218 6.962 5.878 7.376z"/>
    <path fill="#fff" d="M127.307 240.856h2.408v-1.876h-5.936v1.876h1.512v2.632c0 2.436-.112 6.188-1.876 8.82-1.792-2.8-1.904-6.72-1.904-8.82v-2.632h1.512v-1.876h-6.16v1.876h2.632v2.632c0 3.08-.588 7.644-3.472 9.996l1.316 1.568c1.624-1.288 2.548-3.36 3.108-5.572.448 2.268 1.344 4.452 2.968 5.824 1.624-1.372 2.492-3.5 2.94-5.74.56 2.212 1.484 4.2 3.108 5.488l1.316-1.568c-2.884-2.296-3.472-6.776-3.472-9.996v-2.632zm8.708-4.9v10.248h-2.716v-9.688h-2.128v23.324h2.128v-11.76h2.716v12.992h2.184v-25.116h-2.184zm15.146 14.532c4.228-3.444 5.572-7.616 5.572-12.74h-5.992v1.876h3.808c-.28 3.864-1.68 6.916-5.04 9.52l1.652 1.344zm-8.064-12.74v1.876h4.424c-.336 3.584-1.876 5.964-5.096 8.12l1.456 1.456c4.228-2.94 5.852-6.44 5.852-11.452h-6.636zm2.352 16.156h14.028v7.224h2.296v-9.1h-16.324v1.876zm20.048-11.228h-3.724v-6.692h-2.296v14.924h2.296v-6.328h3.724v-1.904zm17.218 4.704c-3.64-1.204-6.16-4.256-6.16-7.588v-2.744h-2.268v2.66c0 3.668-2.436 6.916-6.244 8.232l1.176 1.82c2.968-1.092 5.208-3.276 6.244-6.132 1.12 2.548 3.276 4.564 6.048 5.572l1.204-1.82zm-8.064 6.188h11.844v5.32h-11.844v-5.32zm-2.24 7.168h16.324v-9.016h-16.324v9.016zm14-24.752v4.928h-5.46v1.876h5.46v7.644h2.324v-14.448h-2.324zm18.803 20.244h14.728v-5.796h-17.08v1.792h14.784v2.324h-14.728v6.188h17.864v-1.792h-15.568v-2.716zm7.364-9.772v-2.716h7.588v-1.848h-14.784v-5.572h-2.268v7.42h7.196v2.716h-10.248v1.876h22.764v-1.876h-10.248zm31.498-10.5v25.172h2.296v-25.172h-2.296zm-10.948 1.932c-3.724 0-6.384 3.416-6.384 8.764 0 5.348 2.66 8.764 6.384 8.764s6.384-3.416 6.384-8.764c0-5.348-2.66-8.764-6.384-8.764zm0 2.072c2.436 0 4.172 2.632 4.172 6.692 0 4.088-1.736 6.72-4.172 6.72-2.464 0-4.2-2.632-4.2-6.72 0-4.06 1.736-6.692 4.2-6.692zm21.894 7.196h8.232v-1.848h-8.232v-5.18h9.324v-1.904h-11.62v16.828h1.932c4.788 0 7.84-.14 11.48-.784l-.252-1.876c-3.416.616-6.328.784-10.864.784v-6.02zm14.952-11.228v9.492h-5.18v1.904h5.18V261.1h2.296v-25.172h-2.296zm31.935.056v13.468h2.296v-13.468h-2.296zm-13.888 14.7v10.052h16.184v-10.052h-2.268v3.08h-11.648v-3.08h-2.268zm2.268 4.872h11.648v3.332h-11.648v-3.332zm.42-18.396c-3.78 0-6.524 2.352-6.524 5.768 0 3.472 2.744 5.796 6.524 5.796 3.808 0 6.58-2.324 6.58-5.796 0-3.416-2.772-5.768-6.58-5.768zm0 1.904c2.548 0 4.34 1.596 4.34 3.864 0 2.296-1.792 3.892-4.34 3.892-2.492 0-4.284-1.596-4.284-3.892 0-2.268 1.792-3.864 4.284-3.864zm33.206 9.044c-3.696-1.232-6.076-4.172-6.076-7.448v-.98h5.544v-1.848h-13.468v1.848h5.628v.98c0 3.612-2.52 6.86-6.3 8.176l1.176 1.82c2.996-1.064 5.264-3.304 6.328-6.16 1.064 2.492 3.22 4.48 6.076 5.404l1.092-1.792zm-3.052 11.116c-3.752 0-5.992-1.036-5.992-2.828 0-1.764 2.24-2.8 5.992-2.8 3.696 0 5.964 1.036 5.964 2.8 0 1.792-2.268 2.828-5.964 2.828zm0-7.448c-5.152 0-8.288 1.708-8.288 4.62 0 2.94 3.136 4.648 8.288 4.648 5.096 0 8.26-1.708 8.26-4.648 0-2.912-3.164-4.62-8.26-4.62zm7.98-9.464v-6.328h-2.296v15.148h2.296v-6.888h3.724v-1.932h-3.724zm24.526-6.356v25.172h2.296v-25.172h-2.296zm-10.948 1.932c-3.724 0-6.384 3.416-6.384 8.764 0 5.348 2.66 8.764 6.384 8.764s6.384-3.416 6.384-8.764c0-5.348-2.66-8.764-6.384-8.764zm0 2.072c2.436 0 4.172 2.632 4.172 6.692 0 4.088-1.736 6.72-4.172 6.72-2.464 0-4.2-2.632-4.2-6.72 0-4.06 1.736-6.692 4.2-6.692zm24.134 13.468c-2.016 0-3.276-2.548-3.276-6.664 0-4.032 1.26-6.58 3.276-6.58 1.96 0 3.248 2.548 3.248 6.58 0 4.116-1.288 6.664-3.248 6.664zm8.484-7.7h-3.164c-.28-4.732-2.296-7.672-5.32-7.672-3.276 0-5.376 3.36-5.376 8.708 0 5.432 2.1 8.792 5.376 8.792 3.08 0 5.124-3.024 5.32-7.952h3.164v12.236h2.184v-23.324h-2.184v9.212zm4.984-9.772v25.116h2.184v-25.116h-2.184zm14.474 14.084c1.036.252 2.24.392 3.472.392 1.26 0 2.464-.14 3.528-.392v5.908h-7v-5.908zm3.472-10.696c4.032 0 6.944 1.848 6.944 4.648s-2.912 4.648-6.944 4.648-6.916-1.848-6.916-4.648 2.884-4.648 6.916-4.648zm5.824 16.604v-6.804c2.072-1.092 3.304-2.884 3.304-5.152 0-3.92-3.78-6.44-9.128-6.44-5.32 0-9.128 2.52-9.128 6.44 0 2.268 1.26 4.088 3.36 5.18v6.776h-5.6v1.904h22.82v-1.904h-5.628zm11.001 3.416c1.008 0 1.848-.784 1.848-1.932 0-1.176-.84-1.988-1.848-1.988s-1.848.812-1.848 1.988c0 1.148.84 1.932 1.848 1.932zM136.92 297.312h14.98v-5.852h-17.304v1.792h15.064v2.352h-15.008v6.132h18.144v-1.792H136.92v-2.632zm14.252-10.08c.588-2.968.588-5.208.588-7.168v-1.904h-16.94v1.82h14.672v.084c0 .728 0 1.512-.028 2.352l-15.26.476.28 1.82 14.868-.672c-.112.952-.252 2.016-.504 3.192h-16.884v1.848h22.624v-1.848h-3.416zm9.546 1.288h7.14v-8.82h-9.436v1.876h7.196v5.068h-7.112v9.408h1.652c3.108 0 5.936-.112 9.408-.7l-.168-1.904c-3.192.56-5.824.672-8.68.7v-5.628zm16.072-11.564v9.912h-3.556v-9.352h-2.156v23.268h2.156v-12.04h3.556v13.3h2.212v-25.088h-2.212zm28.277 12.628c-4.396-.84-9.156-4.648-9.156-8.932v-1.932h-2.408v1.932c0 4.284-4.732 8.064-9.128 8.932l1.036 1.904c3.78-.896 7.7-3.584 9.296-7.252 1.596 3.696 5.516 6.384 9.324 7.252l1.036-1.904zm-21.644 7.224v1.904h22.764v-1.904h-22.764zm42.828-6.132c.14-.896.224-1.82.224-2.884 0-1.064-.084-1.988-.224-2.884h3.416v5.768h-3.416zm-5.152 3.752c-1.988 0-3.276-2.548-3.276-6.636 0-4.06 1.288-6.608 3.276-6.608 2.016 0 3.276 2.548 3.276 6.608 0 4.088-1.26 6.636-3.276 6.636zm8.568-11.396h-3.892c-.868-2.52-2.492-3.976-4.676-3.976-3.248 0-5.348 3.36-5.348 8.736 0 5.404 2.1 8.764 5.348 8.764 2.184 0 3.78-1.456 4.676-3.976h3.892v8.26h2.184v-23.324h-2.184v5.516zm4.928-6.076v25.116h2.184v-25.116h-2.184zm9.322 7.448c0-2.38 1.792-4.004 4.312-4.004 2.492 0 4.312 1.624 4.312 4.004 0 2.352-1.82 4.004-4.312 4.004-2.52 0-4.312-1.652-4.312-4.004zm10.864 0c0-3.528-2.772-5.936-6.552-5.936-3.808 0-6.552 2.408-6.552 5.936 0 3.5 2.744 5.936 6.552 5.936 3.78 0 6.552-2.436 6.552-5.936zm-10.416 10.528h14.028v7.14h2.296v-9.016h-16.324v1.876zm19.964-12.236v-1.904h-3.64v-3.808h-2.296v14.896h2.296v-3.836h3.64v-1.876h-3.64v-3.472h3.64zm13.97-3.024c3.948 0 6.468 1.176 6.468 3.164 0 1.988-2.52 3.136-6.468 3.136s-6.468-1.148-6.468-3.136c0-1.988 2.52-3.164 6.468-3.164zm0 8.148c5.376 0 8.82-1.848 8.82-4.984s-3.444-5.012-8.82-5.012-8.82 1.876-8.82 5.012c0 3.136 3.444 4.984 8.82 4.984zm-6.132 6.412h-2.296v7.28h17.276v-1.876h-14.98v-5.404zm-5.236-4.06v1.848h22.708v-1.848h-22.708zm35.099-8.484h5.264v11.816h-5.264v-11.816zm-2.156 13.636h9.548v-15.456h-9.548v15.456zm18.256-18.368v9.94h-3.388v-9.38h-2.156v23.296h2.156v-12.04h3.388v13.272h2.184v-25.088h-2.184zm15.202 14.224h5.46v5.964h-5.46v-5.964zm-.392-10.052h6.244v8.204h-6.244v-8.204zm8.148 16.016v-5.964h4.256v-1.848h-3.864v-8.204h3.892v-1.848h-18.62v1.848h3.892v8.204h-3.836v1.848h4.228v5.964h-6.328v1.876H347.5v-1.876h-6.412zm15.09-2.716c-2.016 0-3.276-2.548-3.276-6.664 0-4.032 1.26-6.58 3.276-6.58 1.96 0 3.248 2.548 3.248 6.58 0 4.116-1.288 6.664-3.248 6.664zm8.484-7.7h-3.164c-.28-4.732-2.296-7.672-5.32-7.672-3.276 0-5.376 3.36-5.376 8.708 0 5.432 2.1 8.792 5.376 8.792 3.08 0 5.124-3.024 5.32-7.952h3.164v12.236h2.184v-23.324h-2.184v9.212zm4.984-9.772v25.116h2.184v-25.116h-2.184zm15.398 2.156h-2.296v4.508c0 4.648-2.856 9.492-6.496 11.312l1.4 1.82c2.828-1.512 5.152-4.676 6.244-8.4 1.148 3.528 3.444 6.524 6.3 7.952l1.344-1.82c-3.64-1.736-6.496-6.3-6.496-10.864v-4.508zm9.604-2.156v8.512h-5.824v1.876h5.824V302.1h2.296v-25.144h-2.296zm9.517 16.856h1.764l.336-11.872.084-2.912h-2.604l.084 2.912.336 11.872zm.868 6.552c1.036 0 1.848-.784 1.848-1.932 0-1.176-.812-1.988-1.848-1.988-1.008 0-1.848.812-1.848 1.988 0 1.148.84 1.932 1.848 1.932z"/>
    <path fill="#EADA22" d="M190.927 155.46c0 1.56-.3 3-.9 4.32-.6 1.32-1.44 2.46-2.52 3.42s-2.38 1.7-3.9 2.22c-1.48.52-3.12.78-4.92.78-1.8 0-3.46-.26-4.98-.78-1.48-.52-2.76-1.24-3.84-2.16-1.08-.92-1.92-2.04-2.52-3.36-.6-1.32-.9-2.8-.9-4.44 0-1.6.28-3.06.84-4.38.6-1.36 1.44-2.52 2.52-3.48s2.36-1.7 3.84-2.22c1.52-.52 3.2-.78 5.04-.78 1.84 0 3.5.28 4.98.84 1.52.52 2.82 1.26 3.9 2.22 1.08.96 1.9 2.1 2.46 3.42.6 1.32.9 2.78.9 4.38zm-3.42 0c0-2.48-.82-4.42-2.46-5.82-1.6-1.44-3.72-2.16-6.36-2.16-2.68 0-4.84.72-6.48 2.16-1.6 1.4-2.4 3.34-2.4 5.82 0 2.4.8 4.32 2.4 5.76 1.64 1.4 3.8 2.1 6.48 2.1 2.64 0 4.76-.7 6.36-2.1 1.64-1.44 2.46-3.36 2.46-5.76zm6.24 2.76h10.38v-8.58h-10.38v-2.76h10.38V132.6h3.36v38.34h-3.36v-9.96h-10.38v-2.76zm14.58 29.28h-34.74v-16.2h3.36v13.2h31.38v3zm-45.36-46.32v-2.76h14.04v-5.82h3.42v5.82h14.04v2.76h-31.5zm97.271 35.88c0 1.84-.4 3.54-1.2 5.1-.76 1.52-1.82 2.84-3.18 3.96-1.4 1.08-3.04 1.92-4.92 2.52-1.84.64-3.84.96-6 .96-2.12 0-4.1-.3-5.94-.9-1.84-.6-3.44-1.46-4.8-2.58-1.36-1.12-2.44-2.44-3.24-3.96-.76-1.52-1.14-3.22-1.14-5.1 0-1.92.38-3.64 1.14-5.16.8-1.56 1.9-2.9 3.3-4.02 1.36-1.08 2.94-1.92 4.74-2.52 1.84-.6 3.82-.9 5.94-.9 2.12 0 4.1.3 5.94.9 1.88.6 3.52 1.44 4.92 2.52 1.36 1.12 2.44 2.46 3.24 4.02.8 1.56 1.2 3.28 1.2 5.16zm-3.42 0c0-1.44-.3-2.74-.9-3.9-.6-1.2-1.44-2.22-2.52-3.06-1.08-.84-2.34-1.48-3.78-1.92-1.44-.48-3-.72-4.68-.72-1.64 0-3.18.24-4.62.72-1.4.44-2.62 1.08-3.66 1.92-1.08.84-1.94 1.86-2.58 3.06-.6 1.16-.9 2.46-.9 3.9s.3 2.76.9 3.96c.64 1.16 1.5 2.16 2.58 3 1.08.8 2.32 1.44 3.72 1.92 1.44.44 2.96.66 4.56.66 1.64 0 3.18-.22 4.62-.66 1.44-.48 2.7-1.14 3.78-1.98 1.08-.84 1.92-1.84 2.52-3 .64-1.16.96-2.46.96-3.9zm3.48-28.08v14.28h-3.36V132.6h3.36v13.44h9.6v2.94h-9.6zm-28.98-10.8h-12.12v-2.94h27.96v2.94h-12.18v3.06c.08 1.88.54 3.68 1.38 5.4.88 1.68 2 3.24 3.36 4.68 1.32 1.44 2.82 2.74 4.5 3.9 1.72 1.16 3.46 2.14 5.22 2.94-.4.36-.8.74-1.2 1.14-.4.36-.8.74-1.2 1.14-1.52-.68-2.98-1.48-4.38-2.4-1.4-.96-2.7-2-3.9-3.12-1.2-1.08-2.28-2.26-3.24-3.54-.92-1.28-1.68-2.6-2.28-3.96-1.24 3-3.1 5.74-5.58 8.22-2.48 2.48-5.26 4.48-8.34 6-.4-.4-.8-.78-1.2-1.14-.4-.4-.8-.78-1.2-1.14 1.8-.88 3.56-1.98 5.28-3.3 1.72-1.36 3.26-2.86 4.62-4.5 1.32-1.6 2.38-3.28 3.18-5.04.84-1.76 1.28-3.48 1.32-5.16v-3.18zm86.892 23.22h-3.36v-28.8h3.36v28.8zm-34.08 26.4v-21.9h3.36v7.32h27.36v-7.32h3.36v21.9h-34.08zm30.72-11.7h-27.36v8.82h27.36v-8.82zm-12-28.8c0 1.92-.34 3.68-1.02 5.28-.68 1.56-1.62 2.9-2.82 4.02-1.2 1.12-2.62 2-4.26 2.64-1.64.6-3.42.9-5.34.9s-3.7-.3-5.34-.9c-1.64-.6-3.06-1.46-4.26-2.58-1.24-1.12-2.2-2.46-2.88-4.02-.68-1.6-1.02-3.38-1.02-5.34 0-1.92.34-3.66 1.02-5.22.68-1.6 1.64-2.96 2.88-4.08 1.2-1.12 2.62-1.98 4.26-2.58 1.64-.6 3.42-.9 5.34-.9s3.7.32 5.34.96c1.64.6 3.06 1.46 4.26 2.58 1.2 1.12 2.14 2.46 2.82 4.02.68 1.56 1.02 3.3 1.02 5.22zm-3.36 0c0-1.48-.26-2.82-.78-4.02-.52-1.2-1.22-2.24-2.1-3.12-.92-.84-2-1.48-3.24-1.92-1.2-.48-2.5-.72-3.9-.72s-2.72.24-3.96.72c-1.24.44-2.32 1.08-3.24 1.92-.92.84-1.66 1.88-2.22 3.12-.52 1.2-.78 2.54-.78 4.02 0 1.52.26 2.88.78 4.08.52 1.2 1.24 2.22 2.16 3.06.88.88 1.94 1.56 3.18 2.04 1.28.44 2.64.66 4.08.66s2.76-.22 3.96-.66c1.24-.48 2.32-1.16 3.24-2.04.88-.84 1.56-1.86 2.04-3.06.52-1.24.78-2.6.78-4.08zm71.772 29.76c0 1.84-.4 3.54-1.2 5.1-.76 1.52-1.82 2.84-3.18 3.96-1.4 1.08-3.04 1.92-4.92 2.52-1.84.64-3.84.96-6 .96-2.12 0-4.1-.3-5.94-.9-1.84-.6-3.44-1.46-4.8-2.58-1.36-1.12-2.44-2.44-3.24-3.96-.76-1.52-1.14-3.22-1.14-5.1 0-1.92.38-3.64 1.14-5.16.8-1.56 1.9-2.9 3.3-4.02 1.36-1.08 2.94-1.92 4.74-2.52 1.84-.6 3.82-.9 5.94-.9 2.12 0 4.1.3 5.94.9 1.88.6 3.52 1.44 4.92 2.52 1.36 1.12 2.44 2.46 3.24 4.02.8 1.56 1.2 3.28 1.2 5.16zm-3.42 0c0-1.44-.3-2.74-.9-3.9-.6-1.2-1.44-2.22-2.52-3.06-1.08-.84-2.34-1.48-3.78-1.92-1.44-.48-3-.72-4.68-.72-1.64 0-3.18.24-4.62.72-1.4.44-2.62 1.08-3.66 1.92-1.08.84-1.94 1.86-2.58 3.06-.6 1.16-.9 2.46-.9 3.9s.3 2.76.9 3.96c.64 1.16 1.5 2.16 2.58 3 1.08.8 2.32 1.44 3.72 1.92 1.44.44 2.96.66 4.56.66 1.64 0 3.18-.22 4.62-.66 1.44-.48 2.7-1.14 3.78-1.98 1.08-.84 1.92-1.84 2.52-3 .64-1.16.96-2.46.96-3.9zm3.48-28.08v14.28h-3.36V132.6h3.36v13.44h9.6v2.94h-9.6zm-28.98-10.8h-12.12v-2.94h27.96v2.94h-12.18v3.06c.08 1.88.54 3.68 1.38 5.4.88 1.68 2 3.24 3.36 4.68 1.32 1.44 2.82 2.74 4.5 3.9 1.72 1.16 3.46 2.14 5.22 2.94-.4.36-.8.74-1.2 1.14-.4.36-.8.74-1.2 1.14-1.52-.68-2.98-1.48-4.38-2.4-1.4-.96-2.7-2-3.9-3.12-1.2-1.08-2.28-2.26-3.24-3.54-.92-1.28-1.68-2.6-2.28-3.96-1.24 3-3.1 5.74-5.58 8.22-2.48 2.48-5.26 4.48-8.34 6-.4-.4-.8-.78-1.2-1.14-.4-.4-.8-.78-1.2-1.14 1.8-.88 3.56-1.98 5.28-3.3 1.72-1.36 3.26-2.86 4.62-4.5 1.32-1.6 2.38-3.28 3.18-5.04.84-1.76 1.28-3.48 1.32-5.16v-3.18z"/>
    <path fill="#fff" d="M680.433 238.644h-2.268v16.072h1.596c3.024 0 5.824-.168 9.1-.84l-.308-1.932c-2.912.588-5.432.756-8.12.784v-14.084zm10.304 5.74h-5.6v1.904h5.6v13.524h2.184v-23.24h-2.184v7.812zm5.348-8.456v25.144h2.184v-25.144h-2.184zm24.862.028v25.172h2.296v-25.172h-2.296zm-10.948 1.932c-3.724 0-6.384 3.416-6.384 8.764 0 5.348 2.66 8.764 6.384 8.764s6.384-3.416 6.384-8.764c0-5.348-2.66-8.764-6.384-8.764zm0 2.072c2.436 0 4.172 2.632 4.172 6.692 0 4.088-1.736 6.72-4.172 6.72-2.464 0-4.2-2.632-4.2-6.72 0-4.06 1.736-6.692 4.2-6.692zm28.726 12.936h-7v-6.608h7v6.608zm8.12-16.94v9.324h-5.88v-7.336h-2.24v6.524h-7v-6.524h-2.268v16.828h11.508v-7.644h5.88v14h2.296v-25.172h-2.296zm24.431 13.72c.14-.896.224-1.82.224-2.884 0-1.064-.084-1.988-.224-2.884h3.416v5.768h-3.416zm-5.152 3.752c-1.988 0-3.276-2.548-3.276-6.636 0-4.06 1.288-6.608 3.276-6.608 2.016 0 3.276 2.548 3.276 6.608 0 4.088-1.26 6.636-3.276 6.636zm8.568-11.396H770.8c-.868-2.52-2.492-3.976-4.676-3.976-3.248 0-5.348 3.36-5.348 8.736 0 5.404 2.1 8.764 5.348 8.764 2.184 0 3.78-1.456 4.676-3.976h3.892v8.26h2.184v-23.324h-2.184v5.516zm4.928-6.076v25.116h2.184v-25.116h-2.184zm9.322 7.448c0-2.38 1.792-4.004 4.312-4.004 2.492 0 4.312 1.624 4.312 4.004 0 2.352-1.82 4.004-4.312 4.004-2.52 0-4.312-1.652-4.312-4.004zm10.864 0c0-3.528-2.772-5.936-6.552-5.936-3.808 0-6.552 2.408-6.552 5.936 0 3.5 2.744 5.936 6.552 5.936 3.78 0 6.552-2.436 6.552-5.936zm-10.416 10.528h14.028v7.14h2.296v-9.016H789.39v1.876zm19.964-12.236v-1.904h-3.64v-3.808h-2.296v14.896h2.296v-3.836h3.64v-1.876h-3.64v-3.472h3.64zm13.97-3.584c4.116 0 6.468.952 6.468 2.632 0 1.68-2.352 2.632-6.468 2.632s-6.468-.952-6.468-2.632c0-1.68 2.352-2.632 6.468-2.632zm0 6.972c5.516 0 8.82-1.512 8.82-4.34s-3.304-4.368-8.82-4.368-8.82 1.54-8.82 4.368c0 2.828 3.304 4.34 8.82 4.34zm-6.3 11.368h14.756v-5.656H814.7v1.736h14.812v2.24h-14.728v6.02h17.752V259h-15.512v-2.548zm-5.068-9.66v1.848h22.736v-1.848h-22.736zm39.412 6.776c-2.268 0-3.92-1.624-3.92-3.864 0-2.268 1.652-3.892 3.92-3.892 2.296 0 3.948 1.624 3.948 3.892 0 2.24-1.652 3.864-3.948 3.864zm0-9.66c-3.528 0-6.076 2.408-6.076 5.796 0 3.416 2.548 5.768 6.076 5.768 3.584 0 6.132-2.352 6.132-5.768 0-3.388-2.548-5.796-6.132-5.796zm1.12-7.644h-2.296v3.724h-6.328v1.848h14.812v-1.848h-6.188v-3.724zm14.98 10.024h-4.116v-10.304h-2.296v25.088h2.296V248.22h4.116v-1.932zm20.661 4.396h2.324v-14.728h-2.324v2.996h-4.956v1.876h4.956v3.08h-4.956v1.876h4.956v4.9zm-3.78-2.744c-3.612-1.4-6.076-4.844-6.076-8.484v-2.604h-2.268v2.604c0 3.976-2.408 7.42-6.216 8.876l1.26 1.848c2.884-1.204 5.068-3.5 6.132-6.468 1.092 2.744 3.192 4.928 5.88 6.02l1.288-1.792zm3.36 3.64h-2.24v1.148c0 1.96-1.176 4.508-3.556 6.02-2.352-1.372-3.5-3.78-3.5-6.02v-1.148h-2.212v1.148c0 2.436-1.876 5.152-5.068 6.328l1.148 1.708c2.352-.924 4.088-2.66 4.984-4.676.756 2.1 2.268 3.948 4.676 4.9 2.324-1.008 3.836-2.94 4.62-4.984.84 2.128 2.632 3.836 5.068 4.76l1.148-1.708c-3.22-1.092-5.068-3.724-5.068-6.328v-1.148zm11.17-11.312h9.38v-1.904h-11.676v16.492h1.988c4.732 0 8.036-.168 11.872-.896l-.252-1.904c-3.64.644-6.86.84-11.312.84v-12.628zm20.104 5.6h-4.144v-9.912h-2.296v25.172h2.296v-13.356h4.144v-1.904zm12.654 2.184h-6.944v-8.064h6.944v8.064zm8.008-5.796v3.5h-5.768v-3.5h5.768zm-5.768 5.376h5.768v6.664h2.324v-18.312h-2.324v4.396h-5.768v-2.212h-11.452v11.704h11.452v-2.24zm-5.768 11.004v-5.964h-2.296v7.84h16.744v-1.876h-14.448zM706.812 295.12h-3.079v-6.524h3.079v6.524zm0-8.372h-3.079v-6.44h-1.96v16.688h6.944v-16.688h-1.905v6.44zm8.149 8.372h-2.968v-6.524h2.968v6.524zm0-8.372h-2.968v-6.44h-1.932v16.688h6.832v-16.688h-1.932v6.44zm9.688 1.008h-3.36v-9.8h-2.268v25.116h2.268v-13.384h3.36v-1.932zm20.129-2.128h-14.896v7.812h17.724v-1.876H732.15v-4.088h14.868v-7.588h-17.192v1.848h14.952v3.892zm-17.752 12.376v1.904h22.82v-1.904h-22.82zm39.702-9.772h-4.34c.84-2.24 1.204-4.62 1.204-7.084h-9.688v1.876h7.42c-.42 5.264-3.108 9.772-8.484 12.992l1.344 1.652c3.472-2.072 5.88-4.676 7.392-7.588h5.152v11.732h2.184v-23.184h-2.184v9.604zm5.236-10.276v25.116h2.184v-25.116h-2.184zm31.18.028v13.468h2.296v-13.468h-2.296zm-13.888 14.7v10.052h16.184v-10.052h-2.268v3.08h-11.648v-3.08h-2.268zm2.268 4.872h11.648v3.332h-11.648v-3.332zm.42-18.396c-3.78 0-6.524 2.352-6.524 5.768 0 3.472 2.744 5.796 6.524 5.796 3.808 0 6.58-2.324 6.58-5.796 0-3.416-2.772-5.768-6.58-5.768zm0 1.904c2.548 0 4.34 1.596 4.34 3.864 0 2.296-1.792 3.892-4.34 3.892-2.492 0-4.284-1.596-4.284-3.892 0-2.268 1.792-3.864 4.284-3.864zm33.205 9.044c-3.696-1.232-6.076-4.172-6.076-7.448v-.98h5.544v-1.848h-13.468v1.848h5.628v.98c0 3.612-2.52 6.86-6.3 8.176l1.176 1.82c2.996-1.064 5.264-3.304 6.328-6.16 1.064 2.492 3.22 4.48 6.076 5.404l1.092-1.792zm-3.052 11.116c-3.752 0-5.992-1.036-5.992-2.828 0-1.764 2.24-2.8 5.992-2.8 3.696 0 5.964 1.036 5.964 2.8 0 1.792-2.268 2.828-5.964 2.828zm0-7.448c-5.152 0-8.288 1.708-8.288 4.62 0 2.94 3.136 4.648 8.288 4.648 5.096 0 8.26-1.708 8.26-4.648 0-2.912-3.164-4.62-8.26-4.62zm7.98-9.464v-6.328h-2.296v15.148h2.296v-6.888h3.724v-1.932h-3.724zm13.634 11.256c-2.268 0-3.92-1.624-3.92-3.864 0-2.268 1.652-3.892 3.92-3.892 2.296 0 3.948 1.624 3.948 3.892 0 2.24-1.652 3.864-3.948 3.864zm0-9.66c-3.528 0-6.076 2.408-6.076 5.796 0 3.416 2.548 5.768 6.076 5.768 3.584 0 6.132-2.352 6.132-5.768 0-3.388-2.548-5.796-6.132-5.796zm1.12-7.644h-2.296v3.724h-6.328v1.848h14.812v-1.848h-6.188v-3.724zm14.98 10.024h-4.116v-10.304h-2.296v25.088h2.296V290.22h4.116v-1.932zm9.742-7.952h-2.212v4.788c0 4.312-2.072 8.82-5.516 10.836l1.428 1.708c2.492-1.54 4.312-4.368 5.208-7.7.896 3.052 2.576 5.712 4.956 7.168l1.316-1.792c-3.304-2.016-5.18-6.272-5.18-10.304v-4.704zm6.608 6.636h-4.144v1.904h4.144v12.964h2.156v-23.324h-2.156v8.456zm5.096-9.016v25.116h2.184v-25.116h-2.184zm14.474 14.084c1.036.252 2.24.392 3.472.392 1.26 0 2.464-.14 3.528-.392v5.908h-7v-5.908zm3.472-10.696c4.032 0 6.944 1.848 6.944 4.648s-2.912 4.648-6.944 4.648-6.916-1.848-6.916-4.648 2.884-4.648 6.916-4.648zm5.824 16.604v-6.804c2.072-1.092 3.304-2.884 3.304-5.152 0-3.92-3.78-6.44-9.128-6.44-5.32 0-9.128 2.52-9.128 6.44 0 2.268 1.26 4.088 3.36 5.18v6.776h-5.6v1.904h22.82v-1.904h-5.628zm10.75-3.136h1.764l.336-11.872.084-2.912h-2.604l.084 2.912.336 11.872zm.868 6.552c1.036 0 1.848-.784 1.848-1.932 0-1.176-.812-1.988-1.848-1.988-1.008 0-1.848.812-1.848 1.988 0 1.148.84 1.932 1.848 1.932z"/>
    <path fill="#EADA22" d="M693.931 153.78v-2.94h12.78V133.8h3.3v53.4h-3.3v-33.42h-12.78zm27 35.22h-3.24v-56.4h3.24V189zm-40.08-21.06c8.08 0 15.34-.6 21.78-1.8.08.48.16.98.24 1.5l.24 1.44c-3.24.6-6.98 1.06-11.22 1.38-4.24.32-9.02.48-14.34.48v-33.6h3.3v30.6zM774.342 189h-3.36v-56.4h3.36V189zm-13.44-35.16c0 2.28-.4 4.4-1.2 6.36-.76 1.92-1.82 3.58-3.18 4.98-1.36 1.44-2.98 2.56-4.86 3.36-1.84.8-3.84 1.2-6 1.2-2.2 0-4.24-.4-6.12-1.2-1.84-.8-3.44-1.92-4.8-3.36-1.36-1.4-2.42-3.06-3.18-4.98-.76-1.96-1.14-4.08-1.14-6.36 0-2.28.38-4.38 1.14-6.3.76-1.96 1.82-3.66 3.18-5.1 1.36-1.4 2.96-2.5 4.8-3.3 1.88-.8 3.92-1.2 6.12-1.2 2.16 0 4.16.4 6 1.2 1.88.8 3.5 1.9 4.86 3.3 1.36 1.4 2.42 3.08 3.18 5.04.8 1.96 1.2 4.08 1.2 6.36zm-3.42 0c0-1.84-.3-3.54-.9-5.1-.6-1.6-1.42-2.98-2.46-4.14-1.08-1.16-2.34-2.06-3.78-2.7-1.4-.68-2.94-1.02-4.62-1.02-1.68 0-3.24.32-4.68.96-1.44.64-2.7 1.54-3.78 2.7-1.08 1.16-1.92 2.54-2.52 4.14-.6 1.56-.9 3.28-.9 5.16 0 1.84.3 3.56.9 5.16.6 1.56 1.44 2.9 2.52 4.02 1.04 1.16 2.28 2.08 3.72 2.76 1.44.64 3.02.96 4.74.96 1.68 0 3.24-.32 4.68-.96 1.44-.68 2.7-1.6 3.78-2.76 1.04-1.16 1.84-2.52 2.4-4.08.6-1.56.9-3.26.9-5.1zm53.652-1.62l.06-14.88h3.42v15.24h12.18V132.6h3.36V189h-3.36v-33.42h-12.18v17.16h-25.86v-35.4h3.36v14.88h19.02zm.06 3.06h-19.08v14.46h19.08v-14.46zm56.832-1.5c0 2.08-.36 4.02-1.08 5.82-.68 1.76-1.64 3.3-2.88 4.62-1.24 1.32-2.72 2.36-4.44 3.12-1.68.72-3.5 1.08-5.46 1.08s-3.8-.36-5.52-1.08c-1.68-.76-3.14-1.8-4.38-3.12-1.24-1.32-2.22-2.86-2.94-4.62-.68-1.8-1.02-3.74-1.02-5.82 0-2.12.34-4.08 1.02-5.88.72-1.8 1.7-3.36 2.94-4.68 1.24-1.32 2.7-2.34 4.38-3.06 1.72-.76 3.56-1.14 5.52-1.14 1.96 0 3.78.38 5.46 1.14 1.68.72 3.14 1.74 4.38 3.06 1.24 1.32 2.22 2.88 2.94 4.68.72 1.8 1.08 3.76 1.08 5.88zm-3.3 0c0-1.68-.28-3.24-.84-4.68-.52-1.44-1.26-2.7-2.22-3.78-.96-1.04-2.08-1.84-3.36-2.4-1.28-.6-2.64-.9-4.08-.9-1.48 0-2.86.3-4.14.9-1.28.56-2.4 1.36-3.36 2.4-.96 1.08-1.72 2.34-2.28 3.78-.52 1.44-.78 3-.78 4.68 0 1.6.26 3.12.78 4.56.56 1.4 1.32 2.62 2.28 3.66.92 1.08 2.02 1.94 3.3 2.58 1.28.6 2.68.9 4.2.9 1.48 0 2.86-.3 4.14-.9 1.28-.64 2.4-1.5 3.36-2.58.92-1.04 1.64-2.26 2.16-3.66.56-1.44.84-2.96.84-4.56zm2.76 6.96h5.82v-13.8h-5.82v-2.88h5.82v-10.74h3.24v53.88h-3.24v-23.64h-5.82v-2.82zm20.04 28.26h-3.3v-56.4h3.3V189zm37.392-41.7c0 1.92-.34 3.68-1.02 5.28-.68 1.56-1.62 2.9-2.82 4.02-1.2 1.12-2.62 2-4.26 2.64-1.64.6-3.42.9-5.34.9s-3.7-.3-5.34-.9c-1.64-.6-3.06-1.46-4.26-2.58-1.24-1.12-2.2-2.46-2.88-4.02-.68-1.6-1.02-3.38-1.02-5.34 0-1.92.34-3.66 1.02-5.22.68-1.6 1.64-2.96 2.88-4.08 1.2-1.12 2.62-1.98 4.26-2.58 1.64-.6 3.42-.9 5.34-.9s3.7.32 5.34.96c1.64.6 3.06 1.46 4.26 2.58 1.2 1.12 2.14 2.46 2.82 4.02.68 1.56 1.02 3.3 1.02 5.22zm-3.36 0c0-1.48-.26-2.82-.78-4.02-.52-1.2-1.22-2.24-2.1-3.12-.92-.84-2-1.48-3.24-1.92-1.2-.48-2.5-.72-3.9-.72s-2.72.24-3.96.72c-1.24.44-2.32 1.08-3.24 1.92-.92.84-1.66 1.88-2.22 3.12-.52 1.2-.78 2.54-.78 4.02 0 1.52.26 2.88.78 4.08.52 1.2 1.24 2.22 2.16 3.06.88.88 1.94 1.56 3.18 2.04 1.28.44 2.64.66 4.08.66s2.76-.22 3.96-.66c1.24-.48 2.32-1.16 3.24-2.04.88-.84 1.56-1.86 2.04-3.06.52-1.24.78-2.6.78-4.08zm14.16 40.5v-17.1h-30.72v-3h34.08v20.1h-3.36zm3.36-34.32v9.12h-3.36v-30h3.36v7.5h9.6v2.88h-9.6v7.68h9.6v2.82h-9.6z"/>
</svg>
