<svg xmlns="http://www.w3.org/2000/svg" width="186" height="71" fill="none" viewBox="0 0 186 71">
    <path fill="#B4B4B4" d="M142.963 1.94c-8.163-4.689-19.369-.587-25.026 9.155-1.594 2.74-2.573 5.639-2.981 8.489h35.539c1.034-7.285-1.667-14.273-7.532-17.644z"/>
    <path fill="#B4B4B4" d="M177.254 1.94c-8.164-4.689-19.37-.587-25.027 9.155-1.594 2.74-2.573 5.639-2.981 8.489h35.539c1.04-7.285-1.661-14.273-7.531-17.644zM35.929 37.984c1.983.03 3.522.096 4.623.187.128 1.719.17 3.455.14 5.21.882.03 1.746.078 2.591.139.03-2.25.08-4.066.14-5.44 1.509-.03 3.048 0 4.624.091.158.563.213 3.074.164 7.527-.049 4.46-.103 7.043-.164 7.763-1.667.03-3.176-.03-4.526-.188l-.14-4.973-2.452-.14c-.091 2.13-.17 3.83-.237 5.113-2.044-.03-3.535-.139-4.477-.326-.195-5.004-.286-9.996-.286-14.963zM10.695 46.055c1.916 1.785 3.413 3.364 4.477 4.737-1.07 1.253-2.025 2.27-2.877 3.05-.882-.69-2.36-1.985-4.435-3.89-1.952 2.317-3.333 3.75-4.149 4.313-.784-.532-1.964-1.53-3.534-3 3.048-3.819 5.268-6.898 6.65-9.24l-6.79-.52c-.06-1.186-.048-2.626.049-4.314 3.455.127 6.32.23 8.583.302 2.263.079 3.693.212 4.295.4.091 1.034.091 2.468 0 4.314-.76 1.373-1.515 2.656-2.269 3.848zM27.94 46.055c1.916 1.785 3.413 3.364 4.477 4.737-1.07 1.253-2.025 2.27-2.877 3.05-.882-.69-2.36-1.985-4.435-3.89-1.952 2.317-3.333 3.75-4.148 4.313-.785-.532-1.965-1.53-3.535-3 3.048-3.819 5.268-6.898 6.65-9.24l-6.79-.52c-.06-1.186-.048-2.626.049-4.314 3.455.127 6.32.23 8.584.302 2.262.079 3.692.212 4.294.4.091 1.034.091 2.468 0 4.314-.76 1.373-1.514 2.656-2.269 3.848zM87.434 55.343c7.732.157 11.978.284 12.732.375.159 5.627.128 10.522-.097 14.684-1.539.03-3.175-.018-4.903-.139-.06-.968-.11-4.314-.14-10.038-4.593-.03-7.075-.17-7.452-.423-.25-2.408-.292-3.897-.14-4.46zM88.78 38.05c.942.03 1.812.055 2.615.073.803.018 1.624.073 2.476.163.097 1.313.11 3.001.049 5.065 2.202.09 3.802.169 4.811.236.159 1.41.19 2.988.092 4.737-1.728.09-3.285.09-4.666 0 .03 2.003 0 3.69-.097 5.064-2.36.03-4.07-.018-5.14-.139-.183-8.223-.232-13.293-.14-15.199zM70.197 38.19c7.731.157 11.977.284 12.732.374.158 5.627.128 10.522-.097 14.685-1.54.03-3.176-.018-4.904-.14-.06-.967-.11-4.313-.14-10.037-4.592-.03-7.074-.17-7.452-.424-.249-2.408-.298-3.896-.14-4.459zM52.95 38.19c7.732.157 11.978.284 12.733.374.158 5.627.127 10.522-.098 14.685-1.539.03-3.175-.018-4.903-.14-.06-.967-.11-4.313-.14-10.037-4.593-.03-7.075-.17-7.452-.424-.25-2.408-.298-3.896-.14-4.459zM152.531 56.19c.128 1.627.03 5.893-.286 12.802-.474.248-5.457.436-14.953.563-.061-4.344.019-8.664.238-12.948 4.939-.272 9.94-.417 15.001-.417zm-4.386 4.834c-2.075 0-4.179.06-6.321.187-.097.66-.127 1.797-.097 3.425 1.162.06 3.255.018 6.272-.14.097-.598.146-1.754.146-3.472zM151.524 52.644c-1.071.127-2.78.17-5.14.14-.098-1.374-.128-3.062-.098-5.065-1.381.09-20.58.09-22.307 0-.098-1.749-.061-3.328.091-4.738 1.004-.06 20.251-.139 22.453-.236-.06-2.063-.048-3.751.049-5.064.852-.097 1.673-.145 2.476-.163.803-.019 1.673-.037 2.616-.073.097 1.906.048 6.976-.14 15.199zM112.269 37.971c1.101.043 2.804.648 5.098 1.816-.469 1.204-1.132 2.934-1.983 5.19 2.664 1.973 5.268 4.23 6.977 5.737-.736 1.325-1.612 2.51-2.634 3.552-1.758-1.132-4.149-3.068-6.339-4.756-.833 2.105-1.612 3.63-2.336 4.58-1.679-.49-3.236-1.113-4.659-1.858 1.101-3.236 3.059-7.992 5.876-14.26z"/>
</svg>
