<svg xmlns="http://www.w3.org/2000/svg" width="312" height="74" fill="none" viewBox="0 0 312 74">
    <g clip-path="url(#clip0)">
        <path fill="#B4B4B4" d="M276.616 13.865c2.993-.81 5.432.49 5.624 3.379l5.517-1.45c-.256-2.174-1.033-3.922-2.226-5.19-.011 0-.011-.011-.021-.011l-.128-.128c-1.992-1.993-5.081-2.675-8.82-1.727-6.273 1.588-10.193 5.852-11.418 11.021-.319 1.343-.447 2.74-.394 4.178.266 6.896 5.837 10.19 12.025 8.868 7.084-1.514 10.971-6.918 10.971-13.067l-5.517 1.503c-.405 3.08-2.748 5.489-5.741 6.288-3.856 1.034-6.359-.906-6.253-5.073.128-3.89 2.077-7.43 6.381-8.59zM292.018 10.242L312 4.882V0l-19.982 5.35v4.893zM292.018 19.11L312 13.772V8.879l-19.982 5.35v4.882zM292.018 27.978L312 22.638v-4.892l-19.982 5.35v4.882zM229.761 32.731c0 .394-.022.789-.054 1.172-.277 2.974-1.64 5.49-4.09 6.427-3.344 1.28-5.379-.34-5.379-3.805v-11.98l-5.507 1.471v12.13c0 5.648 5.102 9.677 10.556 8.302 6.295-1.588 9.959-6.512 9.959-12.982V20.527l-5.485 1.471v10.733zM255.356 28.147L244.651 18.01l-4.399 1.183V41.81l5.517-1.471V27.73l10.673 9.752 4.399-1.172V13.684l-5.485 1.47v12.993zM186.207 33.647l-6.284 16.66-6.146-13.334-5.401 1.45 9.278 20.122 5.592-1.492 9.458-25.143-6.497 1.737zM199.159 30.183l-9.469 25.142 6.529-1.748 6.274-16.68 6.167 13.366 5.4-1.45-9.288-20.133-5.613 1.503zM11.034 13.973c1.982 1.854 3.526 3.495 4.623 4.924-1.107 1.3-2.088 2.355-2.972 3.165-.905-.714-2.428-2.057-4.58-4.04-2.013 2.399-3.44 3.902-4.281 4.477-.81-.554-2.024-1.588-3.654-3.112 3.142-3.965 5.432-7.162 6.86-9.592L.02 9.262c-.064-1.237-.053-2.729.053-4.477 3.58.117 6.54.224 8.873.299 2.333.085 3.813.223 4.43.415.097 1.077.097 2.569 0 4.477-.777 1.439-1.554 2.77-2.343 3.996zM28.833 13.973c1.982 1.854 3.526 3.495 4.623 4.924-1.108 1.3-2.088 2.355-2.972 3.165-.905-.714-2.439-2.057-4.58-4.04-2.013 2.399-3.44 3.902-4.282 4.477-.81-.554-2.023-1.588-3.653-3.112 3.142-3.965 5.432-7.162 6.86-9.592l-7.01-.533c-.063-1.237-.052-2.729.054-4.477l8.862.32c2.333.085 3.813.224 4.431.416.096 1.076.096 2.568 0 4.476-.767 1.418-1.555 2.75-2.333 3.976zM37.077 5.594c2.045.032 3.632.096 4.772.192.128 1.79.181 3.591.15 5.403.904.032 1.8.086 2.673.15.032-2.335.085-4.221.149-5.65 1.555-.031 3.142 0 4.772.097.16.586.223 3.186.17 7.812-.053 4.626-.107 7.312-.17 8.058-1.726.032-3.281-.032-4.676-.192l-.15-5.159-2.535-.149c-.096 2.206-.18 3.976-.245 5.308-2.108-.032-3.653-.15-4.622-.341-.192-5.19-.288-10.37-.288-15.53zM54.652 5.82c7.978.16 12.366.288 13.144.395.16 5.84.127 10.924-.096 15.24-1.587.033-3.281-.02-5.06-.148-.064-1.002-.117-4.477-.149-10.424-4.74-.032-7.296-.181-7.69-.437-.267-2.505-.32-4.05-.15-4.626zM72.45 5.82c7.978.16 12.367.288 13.144.395.16 5.84.128 10.924-.095 15.24-1.588.033-3.281-.02-5.06-.148-.064-1.002-.117-4.477-.15-10.424-4.739-.032-7.295-.181-7.69-.437-.266-2.505-.319-4.05-.148-4.626zM91.633 5.668c.97.032 1.875.053 2.706.075.83.02 1.683.074 2.556.17.096 1.364.117 3.112.053 5.265 2.27.096 3.931.181 4.964.245.16 1.46.192 3.102.096 4.925-1.79.095-3.387.095-4.814 0 .031 2.078 0 3.837-.096 5.265-2.429.032-4.208-.022-5.305-.15-.213-8.558-.255-13.813-.16-15.795zM90.238 23.617c7.978.16 12.366.288 13.144.395.159 5.84.128 10.924-.096 15.24-1.587.033-3.281-.02-5.06-.148-.064-1.002-.117-4.477-.149-10.424-4.74-.032-7.296-.181-7.69-.437-.256-2.494-.309-4.04-.15-4.626zM44.682 41.203c1.14.043 2.886.672 5.261 1.887-.479 1.247-1.16 3.048-2.045 5.393 2.748 2.046 5.433 4.39 7.2 5.958-.755 1.374-1.66 2.61-2.715 3.687-1.811-1.172-4.282-3.186-6.54-4.934-.863 2.185-1.662 3.762-2.408 4.753-1.736-.511-3.333-1.15-4.814-1.929 1.13-3.368 3.153-8.303 6.06-14.815zM86.234 60.121c.127 1.684.032 6.118-.288 13.301-.49.256-5.635.459-15.434.587-.064-4.509.01-8.996.245-13.44 5.091-.299 10.257-.448 15.477-.448zm-4.527 5.02c-2.141 0-4.314.064-6.519.192-.096.682-.128 1.865-.096 3.56 1.204.064 3.355.01 6.476-.15.096-.618.139-1.822.139-3.602zM85.2 56.436c-1.108.128-2.876.181-5.304.15-.096-1.429-.128-3.188-.096-5.266-1.427.096-21.239.096-23.028 0-.096-1.822-.064-3.453.096-4.924 1.043-.064 20.898-.15 23.177-.245-.064-2.142-.053-3.901.053-5.265.874-.096 1.726-.15 2.556-.17.831-.011 1.726-.043 2.706-.075.085 1.993.032 7.258-.16 15.795zM133.983 55.188h-8.851v-5.105h8.851v-9.294h5.486v9.294h8.904v5.105h-8.904v9.241h-5.486v-9.24z"/>
    </g>
    <defs>
        <clipPath id="clip0">
            <path fill="#fff" d="M0 0H312V74H0z"/>
        </clipPath>
    </defs>
</svg>
