<svg xmlns="http://www.w3.org/2000/svg" width="447" height="447" fill="none" viewBox="0 0 447 447">
    <circle cx="223.5" cy="223.5" r="218.5" stroke="#fff" stroke-opacity=".6" stroke-width="10"/>
    <path stroke="#fff" stroke-linecap="round" stroke-linejoin="round" stroke-miterlimit="10" stroke-opacity=".6" stroke-width="10" d="M244.066 225.376l-25.404-25.404 45.336-45.337c7.157-7.156 7.183-18.841.058-25.967-7.125-7.125-18.81-7.099-25.967.058l-63.41 63.41 3.067-32.733c.945-10.099-6.575-18.346-16.719-18.323-10.138.022-19.212 8.303-20.157 18.402l-7.488 79.975c-.069.712-.087 1.415-.07 2.116-1.103 8.244 1.499 16.875 7.817 23.193l31.771 31.771c10.79 10.79 28.326 10.754 39.167-.087l31.912-31.912c10.838-10.838 10.877-28.371.087-39.162z"/>
    <path stroke="#fff" stroke-linecap="round" stroke-miterlimit="10" stroke-opacity=".6" stroke-width="10" d="M258.252 98.197l4.785-24.346M282.01 111.599l26.222-26.074M296.161 133.702l23.61-4.363"/>
    <path fill="#fff" d="M147.225 341.5h-25.15v-8.8h-6.6v14h31.75v-5.2zm4.8 13.1v-5.2h-41.7v5.2h17.45v3.5h-12.75v4.95h25.45v2.55h-25.4v12.35h33.35V373h-26.7v-2.8h25.4v-12.1h-12.8v-3.5h17.7zm12.396-1.2h14.15v-17.25h-20.75v5.25h14.2v6.85h-14.1v19.5h3.8c7.65 0 13.75-.25 20.6-1.35l-.6-5.35c-5.8.95-11.05 1.25-17.3 1.3v-8.95zm23.8-21.2v16.6h-7.2v5.35h7.2v24.25h6.65v-46.2h-6.65zm18.496 22.85c8.05-1.1 13.7-4.55 16.45-9.25 2.75 4.7 8.4 8.15 16.45 9.25l2.35-5.15c-9.35-1.15-14.2-5.65-14.85-10.05h13.05v-5.25h-34.15v5.25h13.25c-.65 4.4-5.55 8.9-14.95 10.05l2.4 5.15zm37.25 2.65h-41.6v5.25h17.35v15.45h6.6v-15.45h17.65v-5.25zm19.046-21.45h-6.35V344c0 7.85-2.45 16.1-9.2 20.2l3.95 4.95c4.15-2.5 6.85-6.9 8.45-12 1.45 4.65 3.9 8.55 7.8 10.95l3.6-5.1c-6.25-4.15-8.25-11.8-8.25-19.25v-7.5zm9.2 11.55h-5.8v5.35h5.8v23.1h6.15V333h-6.15v14.8zm9.35-15.55v46.05h6.25v-46.05h-6.25zm28.496 26.55c1.6.3 3.25.45 5.05.45 1.8 0 3.5-.15 5.1-.45v8.8h-10.15v-8.8zm5.05-19.1c6.4 0 10.7 2.6 10.7 7.2 0 4.55-4.3 7.2-10.7 7.2-6.4 0-10.65-2.65-10.65-7.2 0-4.6 4.25-7.2 10.65-7.2zm11.65 27.9v-11.25c3.45-2.15 5.55-5.45 5.55-9.45 0-7.55-7.25-12.4-17.2-12.4-9.9 0-17.15 4.85-17.15 12.4-.05 4 2.05 7.3 5.55 9.45v11.25h-9.2v5.35h41.7v-5.35h-9.25z" opacity=".8"/>
</svg>
