<svg xmlns="http://www.w3.org/2000/svg" width="574" height="120" fill="none" viewBox="0 0 574 120">
    <g filter="url(#filter0_d)">
        <rect width="534" height="80" x="15" y="15" fill="#3D3D3D" fill-opacity=".7" rx="10"/>
        <path fill="#EADA22" d="M160.306 61.98c-2.212 0-3.724-2.38-3.724-6.328 0-3.948 1.512-6.328 3.724-6.328 2.184 0 3.724 2.38 3.724 6.328 0 3.948-1.54 6.328-3.724 6.328zm0-15.26c-3.78 0-6.496 3.472-6.496 8.932 0 5.46 2.716 8.904 6.496 8.904 3.78 0 6.496-3.444 6.496-8.904s-2.716-8.932-6.496-8.932zm16.8 8.036h-3.948v-9.884h-2.884v25.312h2.884V57.136h3.948v-2.38zm20.13-9.912v25.368h2.912V44.844h-2.912zM186.68 46.72c-3.752 0-6.496 3.472-6.496 8.904 0 5.488 2.744 8.932 6.496 8.932 3.78 0 6.524-3.444 6.524-8.932 0-5.432-2.744-8.904-6.524-8.904zm0 2.604c2.212 0 3.752 2.38 3.752 6.3 0 3.976-1.54 6.356-3.752 6.356-2.184 0-3.724-2.38-3.724-6.356 0-3.92 1.54-6.3 3.724-6.3zm42.771 14.364h2.884V44.872h-2.884v5.684h-5.124v2.38h5.124v10.752zm-3.136-6.216c-3.78-1.372-5.908-4.648-5.908-8.064v-2.996h-2.94v2.94c0 3.752-2.184 7.308-6.132 8.708l1.54 2.24c2.912-1.12 5.012-3.36 6.132-6.188 1.064 2.548 3.052 4.592 5.768 5.6l1.54-2.24zm-7.532 9.856V61.7h-2.912v7.98h17.052v-2.352h-14.14zM248.741 56.1c-2.492.476-4.648.588-7.84.616v-2.828h6.776v-2.24h-6.776v-2.66h7.056v-2.324h-9.856v12.404h1.708c3.92 0 6.328-.084 9.24-.616l-.308-2.352zm-7.364 7.7h14.28v6.384h2.884v-8.708h-17.164V63.8zm14.42-18.928v6.412h-2.8v-5.936h-2.688v14.728h2.688v-6.44h2.8v6.608h2.744V44.872h-2.744zm18.506 2.24c4.116 0 6.468.952 6.468 2.632 0 1.68-2.352 2.632-6.468 2.632s-6.468-.952-6.468-2.632c0-1.68 2.352-2.632 6.468-2.632zm0 6.972c5.516 0 8.82-1.512 8.82-4.34s-3.304-4.368-8.82-4.368-8.82 1.54-8.82 4.368c0 2.828 3.304 4.34 8.82 4.34zm-6.3 11.368h14.756v-5.656h-17.08v1.736h14.812v2.24h-14.728v6.02h17.752V68h-15.512v-2.548zm-5.068-9.66v1.848h22.736v-1.848h-22.736zm38.263 6.552c-1.96 0-3.332-1.596-3.332-3.836 0-2.184 1.372-3.78 3.332-3.78 1.932 0 3.332 1.596 3.332 3.78 0 2.24-1.4 3.836-3.332 3.836zm0-9.548c-3.108 0-5.376 2.352-5.376 5.712 0 3.416 2.268 5.74 5.376 5.74 3.108 0 5.376-2.324 5.376-5.74 0-3.36-2.268-5.712-5.376-5.712zm1.12-7.112h-2.268v3.556h-5.096v1.876h12.46V49.24h-5.096v-3.556zm11.732-.756V55.54h-3.22V45.516h-2.156V68.84h2.156V57.416h3.22v12.628h2.212V44.928h-2.212zm15.192 12.236c3.892-.672 7.588-2.772 9.128-5.74 1.512 2.968 5.236 5.068 9.128 5.74l.896-1.82c-4.424-.644-8.764-3.528-8.764-6.832v-.14h7.868v-1.848h-18.34v1.848h7.924v.14c0 3.304-4.34 6.188-8.708 6.832l.868 1.82zm20.468 2.1h-22.68v1.876h10.136v8.932h2.296V61.14h10.276l-.028-1.876zm10.497-11.928h-2.212v4.788c0 4.312-2.072 8.82-5.516 10.836l1.428 1.708c2.492-1.54 4.312-4.368 5.208-7.7.896 3.052 2.576 5.712 4.956 7.168l1.316-1.792c-3.304-2.016-5.18-6.272-5.18-10.304v-4.704zm6.608 6.636h-4.144v1.904h4.144V68.84h2.156V45.516h-2.156v8.456zm5.096-9.016v25.116h2.184V44.956h-2.184zm14.474 14.084c1.036.252 2.24.392 3.472.392 1.26 0 2.464-.14 3.528-.392v5.908h-7V59.04zm3.472-10.696c4.032 0 6.944 1.848 6.944 4.648s-2.912 4.648-6.944 4.648-6.916-1.848-6.916-4.648 2.884-4.648 6.916-4.648zm5.824 16.604v-6.804c2.072-1.092 3.304-2.884 3.304-5.152 0-3.92-3.78-6.44-9.128-6.44-5.32 0-9.128 2.52-9.128 6.44 0 2.268 1.26 4.088 3.36 5.18v6.776h-5.6v1.904h22.82v-1.904h-5.628zm10.75-3.136h1.764l.336-11.872.084-2.912h-2.604l.084 2.912.336 11.872zm.868 6.552c1.036 0 1.848-.784 1.848-1.932 0-1.176-.812-1.988-1.848-1.988-1.008 0-1.848.812-1.848 1.988 0 1.148.84 1.932 1.848 1.932z"/>
        <rect width="532" height="78" x="16" y="16" stroke="#FF3030" stroke-width="2" rx="9"/>
    </g>
    <defs>
        <filter id="filter0_d" width="574" height="120" x="0" y="0" color-interpolation-filters="sRGB" filterUnits="userSpaceOnUse">
            <feFlood flood-opacity="0" result="BackgroundImageFix"/>
            <feColorMatrix in="SourceAlpha" values="0 0 0 0 0 0 0 0 0 0 0 0 0 0 0 0 0 0 127 0"/>
            <feOffset dx="5" dy="5"/>
            <feGaussianBlur stdDeviation="10"/>
            <feColorMatrix values="0 0 0 0 0 0 0 0 0 0 0 0 0 0 0 0 0 0 0.2 0"/>
            <feBlend in2="BackgroundImageFix" result="effect1_dropShadow"/>
            <feBlend in="SourceGraphic" in2="effect1_dropShadow" result="shape"/>
        </filter>
    </defs>
</svg>
