<svg xmlns="http://www.w3.org/2000/svg" width="574" height="120" fill="none" viewBox="0 0 574 120">
    <g filter="url(#filter0_d)">
        <rect width="534" height="80" x="15" y="15" fill="#3D3D3D" fill-opacity=".7" rx="10"/>
        <path fill="#EADA22" d="M124.922 44.956v25.172h2.296V44.956h-2.296zm-10.948 1.932c-3.724 0-6.384 3.416-6.384 8.764 0 5.348 2.66 8.764 6.384 8.764s6.384-3.416 6.384-8.764c0-5.348-2.66-8.764-6.384-8.764zm0 2.072c2.436 0 4.172 2.632 4.172 6.692 0 4.088-1.736 6.72-4.172 6.72-2.464 0-4.2-2.632-4.2-6.72 0-4.06 1.736-6.692 4.2-6.692zm19.905-1.54v16.324h11.536V47.42h-11.536zm9.296 1.848v12.656h-7.056V49.268h7.056zm7.504-4.312v25.172h2.296V44.956h-2.296zm33.84 7.7h-14.924v-4.844h14.756v-1.848h-17.052v8.54h17.22v-1.848zm-8.736 15.596c-3.948 0-6.272-.98-6.272-2.744 0-1.764 2.324-2.744 6.272-2.744 3.948 0 6.272.98 6.272 2.744 0 1.764-2.352 2.744-6.272 2.744zm0-7.28c-5.348 0-8.596 1.624-8.596 4.536 0 2.912 3.248 4.536 8.596 4.536s8.596-1.624 8.596-4.536c0-2.912-3.248-4.536-8.596-4.536zm-11.34-4.06v1.904h22.736v-1.904h-22.736zm28.278 7.532h15.176v5.404h2.296v-7.28h-17.472v1.876zm10.024-5.684v-2.632h7.84v-1.792h-15.204v-2.632h14.672V45.6h-16.996v1.792h14.728v2.604h-14.672v6.132h7.308v2.632h-10.248v1.876h22.792V58.76h-10.22zm33.766-13.804h-2.296v18.788h2.296V44.956zm-4.312 13.048c-2.156.252-4.424.392-6.748.504v-3.472h4.984v-1.848h-9.828v-4.732h9.66V46.58h-11.956v8.456h4.844v3.556c-2.464.084-4.9.112-7.084.112l.336 1.876c4.676 0 10.64-.168 15.96-.924l-.168-1.652zm-9.632 9.632v-5.124h-2.296v7h17.08v-1.876h-14.784zm32.103-5.264c-2.436 0-4.144-2.632-4.144-6.72 0-4.06 1.708-6.692 4.144-6.692 2.408 0 4.116 2.632 4.116 6.692 0 4.088-1.708 6.72-4.116 6.72zm0-15.484c-3.696 0-6.328 3.416-6.328 8.764 0 5.348 2.632 8.764 6.328 8.764s6.3-3.416 6.3-8.764c0-5.348-2.604-8.764-6.3-8.764zm16.772 8.092h-4.144v-9.996h-2.296v25.088h2.296v-13.16h4.144V54.98zm20.55-10.024v25.172h2.296V44.956h-2.296zm-10.948 1.932c-3.724 0-6.384 3.416-6.384 8.764 0 5.348 2.66 8.764 6.384 8.764s6.384-3.416 6.384-8.764c0-5.348-2.66-8.764-6.384-8.764zm0 2.072c2.436 0 4.172 2.632 4.172 6.692 0 4.088-1.736 6.72-4.172 6.72-2.464 0-4.2-2.632-4.2-6.72 0-4.06 1.736-6.692 4.2-6.692zm26.598-2.156c-3.892 0-6.72 2.38-6.72 5.908 0 3.5 2.828 5.908 6.72 5.908 3.92 0 6.72-2.408 6.72-5.908 0-3.528-2.8-5.908-6.72-5.908zm0 1.96c2.604 0 4.48 1.596 4.48 3.948 0 2.324-1.876 3.948-4.48 3.948-2.576 0-4.48-1.624-4.48-3.948 0-2.352 1.904-3.948 4.48-3.948zm10.024-3.808v25.172h2.296V44.956h-2.296zm-17.724 19.656c4.536 0 10.612-.056 16.268-1.092l-.196-1.708c-5.488.84-11.788.868-16.352.868l.28 1.932zm49.827-19.656v25.172h2.296V44.956h-2.296zm-10.948 1.932c-3.724 0-6.384 3.416-6.384 8.764 0 5.348 2.66 8.764 6.384 8.764s6.384-3.416 6.384-8.764c0-5.348-2.66-8.764-6.384-8.764zm0 2.072c2.436 0 4.172 2.632 4.172 6.692 0 4.088-1.736 6.72-4.172 6.72-2.464 0-4.2-2.632-4.2-6.72 0-4.06 1.736-6.692 4.2-6.692zm36.034.84h-14.672v5.964h17.472v-1.792h-15.204v-2.464h14.672V45.6h-16.996v1.764h14.728V49.8zm-12.292 14.112h12.32v3.976h-12.32v-3.976zm-2.24 5.824h16.828v-7.644h-16.828v7.644zm-3.052-11.816v1.848h22.764V57.92h-22.764zm44.014-12.964v25.172h2.296V44.956h-2.296zm-10.948 1.932c-3.724 0-6.384 3.416-6.384 8.764 0 5.348 2.66 8.764 6.384 8.764s6.384-3.416 6.384-8.764c0-5.348-2.66-8.764-6.384-8.764zm0 2.072c2.436 0 4.172 2.632 4.172 6.692 0 4.088-1.736 6.72-4.172 6.72-2.464 0-4.2-2.632-4.2-6.72 0-4.06 1.736-6.692 4.2-6.692zm24.134 13.468c-2.016 0-3.276-2.548-3.276-6.664 0-4.032 1.26-6.58 3.276-6.58 1.96 0 3.248 2.548 3.248 6.58 0 4.116-1.288 6.664-3.248 6.664zm8.484-7.7h-3.164c-.28-4.732-2.296-7.672-5.32-7.672-3.276 0-5.376 3.36-5.376 8.708 0 5.432 2.1 8.792 5.376 8.792 3.08 0 5.124-3.024 5.32-7.952h3.164V68.84h2.184V45.516h-2.184v9.212zm4.984-9.772v25.116h2.184V44.956h-2.184zm14.474 14.084c1.036.252 2.24.392 3.472.392 1.26 0 2.464-.14 3.528-.392v5.908h-7V59.04zm3.472-10.696c4.032 0 6.944 1.848 6.944 4.648s-2.912 4.648-6.944 4.648-6.916-1.848-6.916-4.648 2.884-4.648 6.916-4.648zm5.824 16.604v-6.804c2.072-1.092 3.304-2.884 3.304-5.152 0-3.92-3.78-6.44-9.128-6.44-5.32 0-9.128 2.52-9.128 6.44 0 2.268 1.26 4.088 3.36 5.18v6.776h-5.6v1.904h22.82v-1.904h-5.628z"/>
        <rect width="532" height="78" x="16" y="16" stroke="#FF3030" stroke-width="2" rx="9"/>
    </g>
    <defs>
        <filter id="filter0_d" width="574" height="120" x="0" y="0" color-interpolation-filters="sRGB" filterUnits="userSpaceOnUse">
            <feFlood flood-opacity="0" result="BackgroundImageFix"/>
            <feColorMatrix in="SourceAlpha" values="0 0 0 0 0 0 0 0 0 0 0 0 0 0 0 0 0 0 127 0"/>
            <feOffset dx="5" dy="5"/>
            <feGaussianBlur stdDeviation="10"/>
            <feColorMatrix values="0 0 0 0 0 0 0 0 0 0 0 0 0 0 0 0 0 0 0.2 0"/>
            <feBlend in2="BackgroundImageFix" result="effect1_dropShadow"/>
            <feBlend in="SourceGraphic" in2="effect1_dropShadow" result="shape"/>
        </filter>
    </defs>
</svg>
