<svg xmlns="http://www.w3.org/2000/svg" width="574" height="120" fill="none" viewBox="0 0 574 120">
    <g filter="url(#filter0_d)">
        <rect width="534" height="80" x="15" y="15" fill="#3D3D3D" fill-opacity=".7" rx="10"/>
        <path fill="#EADA22" d="M175.451 44.844v25.368h2.912V44.844h-2.912zm-10.556 1.876c-3.752 0-6.496 3.472-6.496 8.904 0 5.488 2.744 8.932 6.496 8.932 3.78 0 6.524-3.444 6.524-8.932 0-5.432-2.744-8.904-6.524-8.904zm0 2.604c2.212 0 3.752 2.38 3.752 6.3 0 3.976-1.54 6.356-3.752 6.356-2.184 0-3.724-2.38-3.724-6.356 0-3.92 1.54-6.3 3.724-6.3zm19.766-2.072v16.716h11.872V47.252h-11.872zm9.044 2.296v12.096h-6.216V49.548h6.216zm7.504-4.704v25.368h2.912V44.844h-2.912zm25.075 13.664c.14-.84.196-1.708.196-2.688 0-.98-.056-1.876-.196-2.716h2.912v5.404h-2.912zm-5.236 3.556c-1.736 0-2.828-2.24-2.828-6.244s1.092-6.272 2.828-6.272c1.736 0 2.828 2.268 2.828 6.272 0 4.004-1.092 6.244-2.828 6.244zm8.148-11.34h-3.5c-.868-2.492-2.548-3.892-4.648-3.892-3.276 0-5.432 3.416-5.432 8.988 0 5.544 2.156 8.96 5.432 8.96 2.128 0 3.78-1.456 4.676-3.92h3.472v8.092h2.688V45.348h-2.688v5.376zm5.012-5.852v25.256h2.744V44.872h-2.744zm10.049 7.532c0-2.212 1.652-3.64 3.892-3.64 2.268 0 3.92 1.428 3.92 3.64s-1.652 3.64-3.92 3.64c-2.24 0-3.892-1.428-3.892-3.64zm10.64 0c0-3.584-2.884-6.076-6.748-6.076-3.836 0-6.72 2.492-6.72 6.076 0 3.584 2.884 6.076 6.72 6.076 3.864 0 6.748-2.492 6.748-6.076zm-10.668 10.892h13.748v6.888h2.884v-9.212h-16.632v2.324zm20.132-12.432v-2.38h-3.5v-3.612h-2.884v14.98h2.884v-3.556h3.5v-2.38h-3.5v-3.052h3.5zm17.47-3.108h-6.02v-2.884h-2.884v2.884h-6.02v2.296h14.924v-2.296zm-10.836 8.26c0-1.596 1.372-2.548 3.36-2.548 2.016 0 3.388.952 3.388 2.548s-1.372 2.548-3.388 2.548c-1.988 0-3.36-.952-3.36-2.548zm9.492 0c0-2.856-2.492-4.788-6.132-4.788-3.612 0-6.132 1.932-6.132 4.788 0 2.884 2.52 4.788 6.132 4.788 3.64 0 6.132-1.904 6.132-4.788zm-6.972 6.356h-2.912v7.308h17.024v-2.352h-14.112v-4.956zm13.104-9.436v-8.064h-2.884v18.956h2.884v-8.512h3.584v-2.38h-3.584zm19.027 9.044c-2.212 0-3.724-2.38-3.724-6.328 0-3.948 1.512-6.328 3.724-6.328 2.184 0 3.724 2.38 3.724 6.328 0 3.948-1.54 6.328-3.724 6.328zm0-15.26c-3.78 0-6.496 3.472-6.496 8.932 0 5.46 2.716 8.904 6.496 8.904 3.78 0 6.496-3.444 6.496-8.904s-2.716-8.932-6.496-8.932zm16.8 8.036h-3.948v-9.884h-2.884v25.312h2.884V57.136h3.948v-2.38zm20.13-9.912v25.368h2.912V44.844h-2.912zM332.02 46.72c-3.752 0-6.496 3.472-6.496 8.904 0 5.488 2.744 8.932 6.496 8.932 3.78 0 6.524-3.444 6.524-8.932 0-5.432-2.744-8.904-6.524-8.904zm0 2.604c2.212 0 3.752 2.38 3.752 6.3 0 3.976-1.54 6.356-3.752 6.356-2.184 0-3.724-2.38-3.724-6.356 0-3.92 1.54-6.3 3.724-6.3zm24.106 12.74c-1.736 0-2.8-2.268-2.8-6.272 0-4.004 1.064-6.244 2.8-6.244 1.736 0 2.8 2.24 2.8 6.244s-1.064 6.272-2.8 6.272zm8.092-7.616h-2.716c-.308-4.732-2.352-7.616-5.376-7.616-3.276 0-5.432 3.416-5.432 8.96 0 5.544 2.156 8.988 5.432 8.988 3.08 0 5.152-3.024 5.404-7.952h2.688v12.124h2.688V45.348h-2.688v9.1zm5.068-9.576v25.256h2.744V44.872h-2.744zm15.145 14.336c.98.224 2.072.336 3.192.336s2.212-.112 3.192-.364v5.516h-6.384v-5.488zm3.192-10.612c3.808 0 6.468 1.68 6.468 4.34 0 2.688-2.66 4.368-6.468 4.368-3.836 0-6.496-1.68-6.496-4.368 0-2.66 2.66-4.34 6.496-4.34zm6.076 16.1v-6.58c2.016-1.148 3.22-2.94 3.22-5.18 0-4.032-3.92-6.608-9.296-6.608-5.404 0-9.296 2.576-9.296 6.608 0 2.24 1.204 4.06 3.22 5.18v6.58h-5.348v2.352h22.904v-2.352h-5.404zm11.002 3.668c1.204 0 2.156-.924 2.156-2.24 0-1.344-.952-2.296-2.156-2.296-1.204 0-2.156.952-2.156 2.296 0 1.316.952 2.24 2.156 2.24z"/>
        <rect width="532" height="78" x="16" y="16" stroke="#FF3030" stroke-width="2" rx="9"/>
    </g>
    <defs>
        <filter id="filter0_d" width="574" height="120" x="0" y="0" color-interpolation-filters="sRGB" filterUnits="userSpaceOnUse">
            <feFlood flood-opacity="0" result="BackgroundImageFix"/>
            <feColorMatrix in="SourceAlpha" result="hardAlpha" values="0 0 0 0 0 0 0 0 0 0 0 0 0 0 0 0 0 0 127 0"/>
            <feOffset dx="5" dy="5"/>
            <feGaussianBlur stdDeviation="10"/>
            <feColorMatrix values="0 0 0 0 0 0 0 0 0 0 0 0 0 0 0 0 0 0 0.2 0"/>
            <feBlend in2="BackgroundImageFix" result="effect1_dropShadow"/>
            <feBlend in="SourceGraphic" in2="effect1_dropShadow" result="shape"/>
        </filter>
    </defs>
</svg>
