<svg xmlns="http://www.w3.org/2000/svg" width="170" height="100" fill="none" viewBox="0 0 170 100">
    <rect width="169" height="99" x=".5" y=".5" fill="#fff" fill-opacity=".1" rx="49.5"/>
    <path fill="#F7E74D" d="M97.832 31.379H82.096l-1.4 8.176c.859-.15 1.68-.243 2.464-.28.822-.075 1.606-.112 2.352-.112 2.24 0 4.219.336 5.936 1.008 1.718.672 3.155 1.605 4.312 2.8 1.158 1.157 2.035 2.539 2.632 4.144.598 1.605.896 3.323.896 5.152 0 2.24-.41 4.293-1.232 6.16-.784 1.867-1.885 3.472-3.304 4.816-1.418 1.307-3.098 2.333-5.04 3.08-1.941.71-4.032 1.064-6.272 1.064-1.306 0-2.557-.15-3.752-.448-1.194-.261-2.333-.616-3.416-1.064-1.045-.485-2.034-1.027-2.968-1.624-.933-.597-1.754-1.232-2.464-1.904l3.92-5.712c.934.784 1.643 1.344 2.128 1.68.523.336 1.083.672 1.68 1.008.598.299 1.344.616 2.24.952.896.299 1.923.448 3.08.448 2.539 0 4.48-.747 5.824-2.24 1.382-1.493 2.072-3.453 2.072-5.88 0-2.24-.672-3.995-2.016-5.264-1.306-1.27-3.229-1.867-5.768-1.792-1.045.075-2.09.224-3.136.448-1.008.224-1.997.504-2.968.84l-4.704-1.4c1.755-10.416 2.912-17.397 3.472-20.944h21.168v6.888z"/>
    <rect width="169" height="99" x=".5" y=".5" stroke="#4D4D4D" rx="49.5"/>
    <rect width="169" height="99" x=".5" y=".5" stroke="url(#paint0_linear)" rx="49.5"/>
    <defs>
        <linearGradient id="paint0_linear" x1="85" x2="85" y1="0" y2="100" gradientUnits="userSpaceOnUse">
            <stop stop-color="#fff" stop-opacity=".5"/>
            <stop offset=".484" stop-color="#fff" stop-opacity="0"/>
        </linearGradient>
    </defs>
</svg>
