<svg xmlns="http://www.w3.org/2000/svg" width="170" height="100" fill="none" viewBox="0 0 170 100">
    <rect width="169" height="99" x=".5" y=".5" fill="#fff" fill-opacity=".1" rx="49.5"/>
    <path fill="#F7E74D" d="M87.472 40.339c1.606 0 3.174.261 4.704.784 1.531.523 2.875 1.325 4.032 2.408 1.158 1.045 2.091 2.37 2.8 3.976.71 1.605 1.064 3.472 1.064 5.6 0 1.979-.373 3.845-1.12 5.6-.709 1.717-1.717 3.23-3.024 4.536-1.306 1.307-2.893 2.333-4.76 3.08-1.866.747-3.92 1.12-6.16 1.12-2.277 0-4.33-.355-6.16-1.064-1.792-.747-3.322-1.773-4.592-3.08-1.269-1.307-2.258-2.893-2.968-4.76-.672-1.867-1.008-3.92-1.008-6.16 0-1.904.43-3.92 1.288-6.048.859-2.165 2.091-4.35 3.696-6.552l4.312-5.768 7.056-9.576h9.408c-2.09 2.613-4.162 5.208-6.216 7.784-2.016 2.539-4.05 5.115-6.104 7.728l-.56.504-.84.84.616-.28c.635-.224 1.344-.392 2.128-.504.784-.112 1.587-.168 2.408-.168zm-9.8 13.16c0 2.39.654 4.256 1.96 5.6 1.344 1.344 3.099 2.016 5.264 2.016 1.046 0 2.035-.168 2.968-.504.934-.373 1.755-.896 2.464-1.568.71-.672 1.251-1.475 1.624-2.408.411-.933.616-1.96.616-3.08 0-2.427-.709-4.256-2.128-5.488-1.381-1.27-3.21-1.904-5.488-1.904-2.24 0-4.013.672-5.32 2.016-1.306 1.344-1.96 3.117-1.96 5.32z"/>
    <rect width="169" height="99" x=".5" y=".5" stroke="#4D4D4D" rx="49.5"/>
    <rect width="169" height="99" x=".5" y=".5" stroke="url(#paint0_linear)" rx="49.5"/>
    <defs>
        <linearGradient id="paint0_linear" x1="85" x2="85" y1="0" y2="100" gradientUnits="userSpaceOnUse">
            <stop stop-color="#fff" stop-opacity=".5"/>
            <stop offset=".484" stop-color="#fff" stop-opacity="0"/>
        </linearGradient>
    </defs>
</svg>
