<svg xmlns="http://www.w3.org/2000/svg" width="170" height="100" fill="none" viewBox="0 0 170 100">
    <rect width="169" height="99" x=".5" y=".5" fill="#fff" fill-opacity=".1" rx="49.5"/>
    <path fill="#F7E74D" d="M82.88 49.111c-1.493 0-2.949-.242-4.368-.727-1.381-.523-2.632-1.288-3.752-2.297-1.082-1.045-1.96-2.314-2.632-3.808-.672-1.53-1.008-3.304-1.008-5.32 0-1.904.355-3.696 1.064-5.376.71-1.68 1.699-3.135 2.968-4.367 1.27-1.233 2.782-2.203 4.536-2.913 1.792-.746 3.752-1.12 5.88-1.12 2.166 0 4.107.355 5.824 1.064 1.755.672 3.23 1.625 4.424 2.857 1.232 1.232 2.166 2.706 2.8 4.424.672 1.717 1.008 3.602 1.008 5.656 0 1.306-.186 2.613-.56 3.92-.336 1.269-.802 2.538-1.4 3.807-.56 1.233-1.194 2.427-1.904 3.584-.672 1.158-1.344 2.26-2.016 3.305l-9.24 14.056h-8.96L87.64 49.224c1.083-1.12 1.718-1.774 1.904-1.96l-1.176.671c-.821.486-1.698.803-2.632.953-.896.149-1.848.224-2.856.224zm9.52-12.655c0-2.203-.653-3.92-1.96-5.153-1.269-1.232-2.93-1.848-4.984-1.848-2.09 0-3.752.654-4.984 1.96-1.194 1.27-1.792 2.931-1.792 4.985 0 2.277.579 3.976 1.736 5.096 1.158 1.082 2.819 1.623 4.984 1.623 2.278 0 4.014-.615 5.208-1.847 1.195-1.233 1.792-2.838 1.792-4.816z"/>
    <rect width="169" height="99" x=".5" y=".5" stroke="#4D4D4D" rx="49.5"/>
    <rect width="169" height="99" x=".5" y=".5" stroke="url(#paint0_linear)" rx="49.5"/>
    <defs>
        <linearGradient id="paint0_linear" x1="85" x2="85" y1="0" y2="100" gradientUnits="userSpaceOnUse">
            <stop stop-color="#fff" stop-opacity=".5"/>
            <stop offset=".484" stop-color="#fff" stop-opacity="0"/>
        </linearGradient>
    </defs>
</svg>
