<svg xmlns="http://www.w3.org/2000/svg" width="170" height="100" fill="none" viewBox="0 0 170 100">
    <rect width="169" height="99" x=".5" y=".5" fill="#fff" fill-opacity=".1" rx="49.5"/>
    <path fill="#F7E74D" d="M85.12 66.92c-2.202 0-4.218-.3-6.048-.897-1.792-.56-3.341-1.362-4.648-2.407-1.306-1.083-2.333-2.39-3.08-3.92-.709-1.569-1.064-3.323-1.064-5.264 0-2.39.56-4.48 1.68-6.273 1.158-1.791 2.95-3.173 5.376-4.143-1.754-.971-3.136-2.26-4.144-3.864-.97-1.606-1.456-3.398-1.456-5.377 0-1.717.336-3.285 1.008-4.703.672-1.42 1.587-2.633 2.744-3.64 1.195-1.008 2.614-1.792 4.256-2.352 1.643-.56 3.435-.84 5.376-.84 1.979 0 3.79.28 5.432.84 1.68.56 3.118 1.344 4.312 2.352 1.195 1.008 2.128 2.22 2.8 3.64.672 1.418 1.008 2.986 1.008 4.704 0 2.015-.504 3.826-1.512 5.431-.97 1.606-2.37 2.875-4.2 3.809 2.427.97 4.2 2.352 5.32 4.144 1.158 1.792 1.736 3.882 1.736 6.272 0 1.94-.373 3.695-1.12 5.264-.709 1.53-1.717 2.837-3.024 3.92-1.306 1.045-2.874 1.847-4.704 2.407-1.829.598-3.845.897-6.048.897zm0-6.16c2.24 0 3.995-.58 5.264-1.736 1.307-1.195 1.96-2.763 1.96-4.705 0-2.24-.672-3.957-2.016-5.152-1.306-1.232-3.042-1.848-5.208-1.848-2.165 0-3.882.616-5.152 1.848-1.269 1.195-1.904 2.913-1.904 5.152 0 1.942.616 3.51 1.848 4.704 1.232 1.158 2.968 1.736 5.208 1.736zm0-19.488c1.083 0 2.016-.187 2.8-.56.784-.411 1.419-.915 1.904-1.513.486-.634.84-1.325 1.064-2.072.224-.784.336-1.53.336-2.24 0-1.605-.522-2.949-1.568-4.032-1.008-1.12-2.52-1.68-4.536-1.68-2.016 0-3.528.56-4.536 1.68-.97 1.083-1.456 2.427-1.456 4.033 0 .709.112 1.456.336 2.24.224.746.56 1.437 1.008 2.072.486.597 1.102 1.1 1.848 1.511.784.374 1.718.56 2.8.56z"/>
    <rect width="169" height="99" x=".5" y=".5" stroke="#4D4D4D" rx="49.5"/>
    <rect width="169" height="99" x=".5" y=".5" stroke="url(#paint0_linear)" rx="49.5"/>
    <defs>
        <linearGradient id="paint0_linear" x1="85" x2="85" y1="0" y2="100" gradientUnits="userSpaceOnUse">
            <stop stop-color="#fff" stop-opacity=".5"/>
            <stop offset=".484" stop-color="#fff" stop-opacity="0"/>
        </linearGradient>
    </defs>
</svg>
