<svg width="90" height="90" viewBox="0 0 90 90" fill="none" xmlns="http://www.w3.org/2000/svg">
<rect x="0.5" y="0.5" width="89" height="89" rx="44.5" fill="white" fill-opacity="0.1"/>
<path d="M49.4262 43.368C49.4262 44.8987 49.6875 46.3733 50.2102 47.792C50.7329 49.1733 51.5542 50.4427 52.6742 51.6C53.7942 52.72 55.2315 53.7093 56.9862 54.568C58.7782 55.4267 60.9249 56.08 63.4262 56.528L60.1222 62.296C56.2769 61.512 53.1035 60.2427 50.6022 58.488C48.1009 56.696 46.2342 54.4933 45.0022 51.88C43.7702 54.4933 41.9035 56.696 39.4022 58.488C36.9009 60.2427 33.7275 61.512 29.8822 62.296L26.6342 56.528C29.1729 56.08 31.3195 55.4267 33.0742 54.568C34.8289 53.7093 36.2662 52.72 37.3862 51.6C38.5062 50.4427 39.3089 49.1733 39.7942 47.792C40.3169 46.3733 40.5782 44.8987 40.5782 43.368V42.864H28.4262V36.816H41.3622V29.144H48.7542V36.816H61.6902V42.864H49.4262V43.368Z" fill="#F7E74D"/>
<rect x="0.5" y="0.5" width="89" height="89" rx="44.5" stroke="#4D4D4D"/>
<rect x="0.5" y="0.5" width="89" height="89" rx="44.5" stroke="url(#paint0_linear)"/>
<defs>
<linearGradient id="paint0_linear" x1="45" y1="0" x2="45" y2="90" gradientUnits="userSpaceOnUse">
<stop stop-color="white" stop-opacity="0.5"/>
<stop offset="0.484375" stop-color="white" stop-opacity="0"/>
</linearGradient>
</defs>
</svg>
