<svg width="90" height="90" viewBox="0 0 90 90" fill="none" xmlns="http://www.w3.org/2000/svg">
<rect x="0.5" y="0.5" width="89" height="89" rx="44.5" fill="white" fill-opacity="0.1"/>
<path d="M45.0582 30.992C47.2982 30.992 49.4075 31.3653 51.3862 32.112C53.4022 32.8213 55.1569 33.8293 56.6502 35.136C58.1435 36.4427 59.3195 37.992 60.1782 39.784C61.0369 41.5387 61.4662 43.48 61.4662 45.608C61.4662 47.736 61.0369 49.696 60.1782 51.488C59.3195 53.28 58.1435 54.8293 56.6502 56.136C55.1569 57.4427 53.4022 58.4693 51.3862 59.216C49.4075 59.9253 47.2982 60.28 45.0582 60.28C42.8182 60.28 40.6902 59.9253 38.6742 59.216C36.6955 58.4693 34.9595 57.4427 33.4662 56.136C31.9729 54.8293 30.7969 53.28 29.9382 51.488C29.0795 49.696 28.6502 47.736 28.6502 45.608C28.6502 43.48 29.0795 41.5387 29.9382 39.784C30.7969 37.992 31.9729 36.4427 33.4662 35.136C34.9595 33.8293 36.6955 32.8213 38.6742 32.112C40.6902 31.3653 42.8182 30.992 45.0582 30.992ZM45.0582 37.264C43.7515 37.264 42.5195 37.4693 41.3622 37.88C40.2049 38.2533 39.1969 38.8133 38.3382 39.56C37.5169 40.2693 36.8635 41.1467 36.3782 42.192C35.8929 43.2 35.6502 44.3387 35.6502 45.608C35.6502 46.8773 35.8929 48.0347 36.3782 49.08C36.8635 50.1253 37.5169 51.0213 38.3382 51.768C39.1969 52.4773 40.2049 53.0373 41.3622 53.448C42.5195 53.8213 43.7515 54.008 45.0582 54.008C46.3649 54.008 47.5782 53.8213 48.6982 53.448C49.8555 53.0373 50.8449 52.4773 51.6662 51.768C52.5249 51.0213 53.1969 50.1253 53.6822 49.08C54.1675 48.0347 54.4102 46.8773 54.4102 45.608C54.4102 44.3387 54.1675 43.2 53.6822 42.192C53.1969 41.1467 52.5249 40.2693 51.6662 39.56C50.8449 38.8133 49.8555 38.2533 48.6982 37.88C47.5782 37.4693 46.3649 37.264 45.0582 37.264Z" fill="#F7E74D"/>
<rect x="0.5" y="0.5" width="89" height="89" rx="44.5" stroke="#4D4D4D"/>
<rect x="0.5" y="0.5" width="89" height="89" rx="44.5" stroke="url(#paint0_linear)"/>
<defs>
<linearGradient id="paint0_linear" x1="45" y1="0" x2="45" y2="90" gradientUnits="userSpaceOnUse">
<stop stop-color="white" stop-opacity="0.5"/>
<stop offset="0.484375" stop-color="white" stop-opacity="0"/>
</linearGradient>
</defs>
</svg>
