<svg width="90" height="90" viewBox="0 0 90 90" fill="none" xmlns="http://www.w3.org/2000/svg">
<rect x="0.5" y="0.5" width="89" height="89" rx="44.5" fill="white" fill-opacity="0.1"/>
<path d="M33.9702 53.28C35.7622 53.2427 37.4235 53.1493 38.9542 53C40.5222 52.8507 42.1462 52.5893 43.8262 52.216L44.4982 58.264C43.3035 58.5253 42.1275 58.7307 40.9702 58.88C39.8129 59.0293 38.6369 59.1413 37.4422 59.216C36.2849 59.2907 35.0715 59.3467 33.8022 59.384C32.5329 59.384 31.1702 59.384 29.7142 59.384H26.6902V32.112H43.6022V37.992H33.9702V53.28ZM63.5382 53.504V59.384H46.5142V32.112H63.2582V37.992H53.7942V53.504H63.5382Z" fill="#F7E74D"/>
<rect x="0.5" y="0.5" width="89" height="89" rx="44.5" stroke="#4D4D4D"/>
<rect x="0.5" y="0.5" width="89" height="89" rx="44.5" stroke="url(#paint0_linear)"/>
<defs>
<linearGradient id="paint0_linear" x1="45" y1="0" x2="45" y2="90" gradientUnits="userSpaceOnUse">
<stop stop-color="white" stop-opacity="0.5"/>
<stop offset="0.484375" stop-color="white" stop-opacity="0"/>
</linearGradient>
</defs>
</svg>
