<svg width="90" height="90" viewBox="0 0 90 90" fill="none" xmlns="http://www.w3.org/2000/svg">
<rect x="0.5" y="0.5" width="89" height="89" rx="44.5" fill="white" fill-opacity="0.1"/>
<path d="M62.1382 34.52V40.512H28.1462V34.52H41.5302V28.136H48.9222V34.52H62.1382ZM45.2262 43.144C47.1675 43.144 48.9595 43.4053 50.6022 43.928C52.2449 44.4133 53.6635 45.104 54.8582 46C56.0902 46.896 57.0422 47.96 57.7142 49.192C58.3862 50.424 58.7222 51.768 58.7222 53.224C58.7222 54.68 58.3862 56.024 57.7142 57.256C57.0422 58.488 56.0902 59.552 54.8582 60.448C53.6635 61.344 52.2449 62.0533 50.6022 62.576C48.9595 63.0613 47.1675 63.304 45.2262 63.304C43.2849 63.304 41.4742 63.0613 39.7942 62.576C38.1515 62.0533 36.7329 61.344 35.5382 60.448C34.3435 59.552 33.3915 58.488 32.6822 57.256C32.0102 56.024 31.6742 54.68 31.6742 53.224C31.6742 51.768 32.0102 50.424 32.6822 49.192C33.3915 47.96 34.3435 46.896 35.5382 46C36.7329 45.104 38.1515 44.4133 39.7942 43.928C41.4742 43.4053 43.2849 43.144 45.2262 43.144ZM45.2262 57.088C46.9062 57.088 48.3249 56.7707 49.4822 56.136C50.6395 55.5013 51.2182 54.5307 51.2182 53.224C51.2182 51.9173 50.6395 50.9467 49.4822 50.312C48.3249 49.6773 46.9062 49.36 45.2262 49.36C43.5089 49.36 42.0715 49.6773 40.9142 50.312C39.7942 50.9467 39.2342 51.9173 39.2342 53.224C39.2342 54.5307 39.7942 55.5013 40.9142 56.136C42.0715 56.7707 43.5089 57.088 45.2262 57.088Z" fill="#F7E74D"/>
<rect x="0.5" y="0.5" width="89" height="89" rx="44.5" stroke="#4D4D4D"/>
<rect x="0.5" y="0.5" width="89" height="89" rx="44.5" stroke="url(#paint0_linear)"/>
<defs>
<linearGradient id="paint0_linear" x1="45" y1="0" x2="45" y2="90" gradientUnits="userSpaceOnUse">
<stop stop-color="white" stop-opacity="0.5"/>
<stop offset="0.484375" stop-color="white" stop-opacity="0"/>
</linearGradient>
</defs>
</svg>
