<svg width="190" height="90" viewBox="0 0 190 90" fill="none" xmlns="http://www.w3.org/2000/svg">
<rect x="0.5" y="0.5" width="189" height="89" rx="44.5" fill="white" fill-opacity="0.1"/>
<path d="M95.6077 62.1476C93.2278 62.1476 90.8479 62.1476 88.4665 62.1476C87.2812 62.1476 86.5447 61.4702 86.54 60.3374C86.5322 57.9888 86.5416 55.6388 86.5447 53.2888C86.5447 53.1779 86.5338 53.0655 86.5494 52.9575C86.6041 52.5892 86.4228 52.502 86.0584 52.5049C83.7176 52.5212 81.3769 52.5227 79.0345 52.5183C78.0056 52.5168 77.4364 52.1323 77.0987 51.27C76.8813 50.7154 77.044 50.2274 77.3817 49.7778C78.5701 48.1953 79.771 46.6218 80.964 45.0408C83.4925 41.691 86.0162 38.3368 88.5431 34.987C90.3538 32.5867 92.1786 30.1952 93.9752 27.7861C94.7602 26.7331 95.9876 26.8514 96.6178 27.477C96.8304 27.6885 96.9993 27.9428 97.1807 28.1824C99.0696 30.6803 100.957 33.1797 102.844 35.6791C106.394 40.3777 109.942 45.0763 113.491 49.7748C113.857 50.2599 114.137 50.7657 113.929 51.3839C113.673 52.147 113.089 52.5138 112.092 52.5197C110.179 52.5301 108.269 52.5257 106.356 52.5271C105.965 52.5271 105.576 52.5242 105.185 52.5242C104.657 52.5257 104.655 52.5271 104.653 53.0093C104.65 55.4451 104.644 57.8794 104.649 60.3152C104.65 60.9896 104.45 61.5752 103.787 61.8917C103.465 62.0455 103.073 62.1328 102.71 62.1358C100.342 62.1579 97.975 62.1476 95.6077 62.1476Z" fill="white"/>
<rect x="0.5" y="0.5" width="189" height="89" rx="44.5" stroke="#4D4D4D"/>
<rect x="0.5" y="0.5" width="189" height="89" rx="44.5" stroke="url(#paint0_linear)"/>
<defs>
<linearGradient id="paint0_linear" x1="95" y1="0" x2="95" y2="90" gradientUnits="userSpaceOnUse">
<stop stop-color="white" stop-opacity="0.5"/>
<stop offset="0.484375" stop-color="white" stop-opacity="0"/>
</linearGradient>
</defs>
</svg>
