<svg width="90" height="90" viewBox="0 0 90 90" fill="none" xmlns="http://www.w3.org/2000/svg">
<rect x="0.5" y="0.5" width="89" height="89" rx="44.5" fill="white" fill-opacity="0.1"/>
<path d="M48.8102 38.608C48.8102 40.4747 49.0902 42.2667 49.6502 43.984C50.2475 45.664 51.1622 47.2133 52.3942 48.632C53.6262 50.0133 55.1942 51.2267 57.0982 52.272C59.0022 53.3173 61.2609 54.12 63.8742 54.68L60.4022 60.504C56.6689 59.6453 53.5329 58.3013 50.9942 56.472C48.4555 54.6053 46.4955 52.3653 45.1142 49.752C43.6955 52.3653 41.7169 54.6053 39.1782 56.472C36.6769 58.3013 33.5595 59.6453 29.8262 60.504L26.3542 54.68C29.0049 54.12 31.2635 53.3173 33.1302 52.272C35.0342 51.2267 36.6022 50.0133 37.8342 48.632C39.0662 47.2133 39.9622 45.664 40.5222 43.984C41.1195 42.2667 41.4182 40.4747 41.4182 38.608V30.936H48.8102V38.608Z" fill="#F7E74D"/>
<rect x="0.5" y="0.5" width="89" height="89" rx="44.5" stroke="#4D4D4D"/>
<rect x="0.5" y="0.5" width="89" height="89" rx="44.5" stroke="url(#paint0_linear)"/>
<defs>
<linearGradient id="paint0_linear" x1="45" y1="0" x2="45" y2="90" gradientUnits="userSpaceOnUse">
<stop stop-color="white" stop-opacity="0.5"/>
<stop offset="0.484375" stop-color="white" stop-opacity="0"/>
</linearGradient>
</defs>
</svg>
