<svg width="90" height="90" viewBox="0 0 90 90" fill="none" xmlns="http://www.w3.org/2000/svg">
<rect x="0.5" y="0.5" width="89" height="89" rx="44.5" fill="white" fill-opacity="0.1"/>
<path d="M58.7782 36.2C58.7782 37.88 58.9275 39.56 59.2262 41.24C59.5622 42.92 60.0849 44.5067 60.7942 46C61.5409 47.456 62.5115 48.8 63.7062 50.032C64.9382 51.2267 66.4689 52.216 68.2982 53L64.2662 58.376C61.9142 57.2933 59.9729 55.8373 58.4422 54.008C56.9489 52.1787 55.7729 50.088 54.9142 47.736C54.0929 50.2 52.9355 52.4027 51.4422 54.344C49.9489 56.2853 48.0075 57.8533 45.6182 59.048C43.2289 57.8533 41.2875 56.2853 39.7942 54.344C38.3382 52.3653 37.2182 50.144 36.4342 47.68C35.5755 50.032 34.3995 52.1413 32.9062 54.008C31.4129 55.8373 29.4902 57.2933 27.1382 58.376L23.0502 53.056C24.8795 52.2347 26.3915 51.208 27.5862 49.976C28.8182 48.744 29.8075 47.3813 30.5542 45.888C31.3009 44.3947 31.8235 42.8267 32.1222 41.184C32.4582 39.504 32.6262 37.8427 32.6262 36.2V32.56H40.0182V36.256C40.0182 39.056 40.4475 41.7627 41.3062 44.376C42.1649 46.952 43.6209 49.2107 45.6742 51.152C47.8022 49.136 49.2769 46.8213 50.0982 44.208C50.9195 41.5947 51.3302 38.944 51.3302 36.256V32.56H58.7782V36.2Z" fill="#F7E74D"/>
<rect x="0.5" y="0.5" width="89" height="89" rx="44.5" stroke="#4D4D4D"/>
<rect x="0.5" y="0.5" width="89" height="89" rx="44.5" stroke="url(#paint0_linear)"/>
<defs>
<linearGradient id="paint0_linear" x1="45" y1="0" x2="45" y2="90" gradientUnits="userSpaceOnUse">
<stop stop-color="white" stop-opacity="0.5"/>
<stop offset="0.484375" stop-color="white" stop-opacity="0"/>
</linearGradient>
</defs>
</svg>
