<svg width="90" height="90" viewBox="0 0 90 90" fill="none" xmlns="http://www.w3.org/2000/svg">
<rect x="0.5" y="0.5" width="89" height="89" rx="44.5" fill="white" fill-opacity="0.1"/>
<path d="M48.8662 38.44C48.8662 40.3067 49.1462 42.0987 49.7062 43.816C50.2662 45.5333 51.1249 47.1013 52.2822 48.52C53.4769 49.9387 54.9702 51.1893 56.7622 52.272C58.5542 53.3173 60.7009 54.12 63.2022 54.68L59.7862 60.28C56.1649 59.3467 53.1409 57.9093 50.7142 55.968C48.3249 54.0267 46.4769 51.6933 45.1702 48.968C43.8635 51.6933 41.9969 54.0267 39.5702 55.968C37.1809 57.9093 34.1755 59.3467 30.5542 60.28L27.1382 54.68C29.6395 54.12 31.7862 53.3173 33.5782 52.272C35.3702 51.1893 36.8449 49.9387 38.0022 48.52C39.1969 47.1013 40.0742 45.5333 40.6342 43.816C41.1942 42.0987 41.4742 40.3067 41.4742 38.44V37.096H28.8742V31.216H61.7462V37.096H48.8662V38.44Z" fill="#F7E74D"/>
<rect x="0.5" y="0.5" width="89" height="89" rx="44.5" stroke="#4D4D4D"/>
<rect x="0.5" y="0.5" width="89" height="89" rx="44.5" stroke="url(#paint0_linear)"/>
<defs>
<linearGradient id="paint0_linear" x1="45" y1="0" x2="45" y2="90" gradientUnits="userSpaceOnUse">
<stop stop-color="white" stop-opacity="0.5"/>
<stop offset="0.484375" stop-color="white" stop-opacity="0"/>
</linearGradient>
</defs>
</svg>
