<svg width="90" height="90" viewBox="0 0 90 90" fill="none" xmlns="http://www.w3.org/2000/svg">
<rect x="0.5" y="0.5" width="89" height="89" rx="44.5" fill="white" fill-opacity="0.1"/>
<path d="M59.2822 36.928C59.3195 38.72 59.5062 40.4747 59.8422 42.192C60.2155 43.872 60.7755 45.4773 61.5222 47.008C62.3062 48.5013 63.2955 49.864 64.4902 51.096C65.7222 52.328 67.1969 53.3547 68.9142 54.176L64.6022 59.888C62.5489 58.9173 60.8129 57.6853 59.3942 56.192C58.0129 54.6613 56.8929 52.888 56.0342 50.872C55.1009 53.1493 53.8129 55.1093 52.1702 56.752C50.5275 58.3947 48.3622 59.7013 45.6742 60.672C42.9862 59.7013 40.8022 58.4133 39.1222 56.808C37.4795 55.1653 36.1915 53.168 35.2582 50.816C34.3995 52.832 33.2795 54.6053 31.8982 56.136C30.5169 57.6667 28.7622 58.9173 26.6342 59.888L22.3222 54.176C24.1142 53.3547 25.6075 52.328 26.8022 51.096C28.0342 49.864 29.0235 48.5013 29.7702 47.008C30.5169 45.5147 31.0582 43.9093 31.3942 42.192C31.7302 40.4747 31.9355 38.72 32.0102 36.928H25.2342V31.048H44.5542V36.928H39.2902C39.3649 40.512 39.8502 43.6667 40.7462 46.392C41.6422 49.08 43.2849 51.1707 45.6742 52.664C48.0262 51.1707 49.6502 49.08 50.5462 46.392C51.4795 43.704 51.9835 40.5493 52.0582 36.928H46.6822V31.048H66.0582V36.928H59.2822Z" fill="#F7E74D"/>
<rect x="0.5" y="0.5" width="89" height="89" rx="44.5" stroke="#4D4D4D"/>
<rect x="0.5" y="0.5" width="89" height="89" rx="44.5" stroke="url(#paint0_linear)"/>
<defs>
<linearGradient id="paint0_linear" x1="45" y1="0" x2="45" y2="90" gradientUnits="userSpaceOnUse">
<stop stop-color="white" stop-opacity="0.5"/>
<stop offset="0.484375" stop-color="white" stop-opacity="0"/>
</linearGradient>
</defs>
</svg>
