<svg xmlns="http://www.w3.org/2000/svg" width="179" height="129" fill="none" viewBox="0 0 179 129">
    <path stroke="#fff" stroke-linecap="round" stroke-miterlimit="10" stroke-width="5" d="M173.72 74.181c3.825-13.632 3.382-27.11-1.898-40.2-3.196-7.929-8.246-14.856-14.522-20.724-2.358-2.207-4.668-4.493-7.4-6.299M158.89 65.56c1.375-4.025 1.919-8.142 1.864-12.38-.129-10.05-3.746-18.733-10.981-25.64-2.707-2.584-5.5-5.345-9.227-6.773M47.52 123.442c-11.431-8.355-19.41-19.225-23.349-32.78-2.386-8.209-2.696-16.776-1.388-25.267.49-3.193.894-6.418 1.926-9.525M54.404 108.004c-3.568-2.315-6.54-5.216-9.115-8.582-6.11-7.981-8.63-17.043-7.21-26.945.532-3.704 1.022-7.6 3.07-11.027"/>
    <path fill="#fff" d="M131.298 44.08c-3.021-.784-6.099 1.024-6.878 4.038l-4.235 16.384c-.161.62-1.058.58-1.163-.053l-1.657-10.003-.626-3.78-5.174-31.248c-.506-3.072-3.412-5.156-6.49-4.655-3.077.502-5.158 3.4-4.65 6.474l4.51 27.24.886 5.352c.146.892-.398 1.779-1.278 1.984-.965.222-1.905-.418-2.064-1.379l-.925-5.574-.09-.55-4.582-27.675-1.218-7.352c-.508-3.073-3.415-5.156-6.493-4.654-3.077.502-5.158 3.4-4.65 6.474l.765 4.614 5.034 30.406.001.007.552 3.33c.147.892-.397 1.779-1.278 1.984-.965.221-1.904-.418-2.064-1.379l-.589-3.561-4.482-27.077c-.508-3.073-3.415-5.155-6.492-4.654-3.078.502-5.159 3.4-4.65 6.474l4.388 26.517 1.125 6.8c.146.891-.398 1.779-1.278 1.983-.965.222-1.905-.417-2.064-1.378l-1.163-7.023-3.074-18.57c-.508-3.073-3.415-5.155-6.493-4.654-3.077.502-5.158 3.4-4.65 6.474l3.285 19.847 2.512 15.181 1.825 11.026c2.805 16.936 18.826 28.42 35.786 25.652 11.545-1.886 20.547-9.891 24.234-20.152.318-.493.565-1.043.719-1.64l8.879-34.354c.784-3.018-1.033-6.094-4.051-6.877z"/>
</svg>
