<svg xmlns="http://www.w3.org/2000/svg" width="115" height="115" fill="none" viewBox="0 0 115 115">
    <path fill="#D3D3D3" fill-rule="evenodd" d="M79.458 46.457c-.891-.804-2.256-.725-3.057.159-.803.887-.735 2.258.148 3.064.036.032 3.529 3.274 3.66 7.694.083 2.773-1.182 5.525-3.76 8.18-.835.862-.816 2.236.045 3.072.421.41.967.612 1.512.612.568 0 1.132-.22 1.558-.658 3.443-3.546 5.12-7.377 4.985-11.39-.215-6.281-4.891-10.555-5.09-10.733zM65.944 78.669c.006 1.277-.282 1.76-.385 1.83-.17.114-.766.058-1.094-.075-3.827-1.816-14.155-6.767-15.98-7.863-1.208-.723-1.182-1.337-1.132-2.557.01-.23.017-.447.017-.653-.004-1.347 0-23.39 0-23.39v-.008c-.003-.851.627-1.343.782-1.45 1.778-.844 11.236-6.029 15.569-8.766.816-.51 1.444-.513 1.761-.34.403.219.47.776.477 1.122.024 1.005-.002 30.76-.015 42.15zM43.026 68.244h-8.35V47.8h8.352c-.002 4.618-.003 16.635-.002 20.444zm24.527-36.662c-1.803-.98-4.1-.802-6.145.48-4.607 2.911-14.24 8.13-15.128 8.523-.07.029-.14.062-.207.101-.751.417-1.834 1.365-2.485 2.772H32.504c-1.2 0-2.171.972-2.171 2.17v24.787c0 1.198.971 2.171 2.171 2.171h10.757c.354 1.248 1.165 2.607 2.992 3.7 2.376 1.427 15.78 7.79 16.41 8.089.184.08 1.256.522 2.578.522.854 0 1.813-.185 2.703-.771 1.565-1.028 2.354-2.87 2.342-5.463.004-4.221.044-41.271.013-42.244-.033-2.113-1.06-3.92-2.746-4.837z" clip-rule="evenodd"/>
    <rect width="111" height="111" x="2" y="2" stroke="#D3D3D3" stroke-width="4" rx="55.5"/>
</svg>
