<svg xmlns="http://www.w3.org/2000/svg" width="205" height="100" fill="none" viewBox="0 0 205 100">
    <path fill="#fff" d="M27.326 0v19.172L14.197 0H0v38h14.147V18.828L27.276 38h14.197V0H27.326zM193.271 23.79c5.025-1.4 8.269-5.025 8.269-10.852C201.54 3.155 193.767 0 183.539 0h-17.671v38h14.147V26.13L188.462 38h16.259l-11.45-14.21zm-6.946-7.748c-.827.662-2.417 1.005-3.728 1.005h-3.04v-7.48h2.977c1.425 0 3.053.343 3.842 1.018.788.686 1.157 1.615 1.157 2.786 0 1.12-.381 2.01-1.208 2.671zM131.377 0h28.688v9.898h-14.669v4.478h13.511v9.337h-13.511v4.39h15.114V38h-29.133V0zM75.518 0H59.386L44.502 38h15.737l1.374-4.962H73.29L74.665 38h15.737L75.518 0zm-11.59 24.26l3.333-12.53h.382l3.333 12.53h-7.048zM112.931 0l-6.984 22.912h-.382L98.594 0H83.162l15.915 38h13.358L128.35 0h-15.419zM3.812 86.322c6.324 0 10.675-.32 12.604-.64 1.3-.229 1.749-1.418 1.614-2.79-.134-1.373-.942-2.334-2.287-2.15-2.87.411-6.638.594-8.926.594-.762 0-1.031-.274-1.031-1.052v-17.84c0-1.693-1.39-2.47-2.915-2.47-1.48 0-2.871.777-2.871 2.47v20.081c0 2.882.942 3.797 3.812 3.797zm25.476 8.372c0 1.555 1.3 2.287 2.646 2.287 1.346 0 2.647-.732 2.647-2.287V59.287c0-1.555-1.301-2.287-2.647-2.287-1.345 0-2.646.732-2.646 2.287v35.407zm-8.432-1.922c0 1.556 1.3 2.288 2.646 2.288 1.301 0 2.602-.732 2.602-2.288V59.745c0-1.556-1.301-2.288-2.602-2.288-1.345 0-2.646.732-2.646 2.288v9.515h-6.234c-1.39 0-2.019 1.143-2.019 2.515 0 1.327.628 2.47 2.019 2.47h6.234v18.527zM39.746 73.24c0 9.011 3.633 13.906 10.809 13.906 7.176 0 10.809-4.895 10.809-13.907 0-9.011-3.633-13.906-10.81-13.906-7.175 0-10.808 4.895-10.808 13.906zm16.101 0c0 5.763-1.39 8.828-5.292 8.828s-5.293-3.065-5.293-8.829c0-5.764 1.39-8.828 5.293-8.828 3.902 0 5.292 3.064 5.292 8.828zm16.91-13.77c0-1.692-1.391-2.47-2.916-2.47-1.48 0-2.87.778-2.87 2.47v35.04c0 1.693 1.39 2.47 2.87 2.47 1.525 0 2.915-.777 2.915-2.47V59.47zM106.806 94.51c0 1.693 1.39 2.47 2.87 2.47 1.436 0 2.826-.777 2.826-2.47V59.47c0-1.692-1.39-2.47-2.826-2.47-1.48 0-2.87.778-2.87 2.47v11.3H99.54v-8.647c0-1.646-1.39-2.424-2.826-2.424-1.435 0-2.826.778-2.826 2.424v7.09h-8.432v-7.09c0-1.646-1.39-2.424-2.825-2.424-1.436 0-2.826.778-2.826 2.424V82.71c0 2.881.942 3.796 3.813 3.796h12.11c2.87 0 3.812-.915 3.812-3.796v-7h7.266v18.802zm-20.318-12.9c-.763 0-1.032-.274-1.032-1.052v-6.45h8.432v6.45c0 .778-.269 1.053-1.031 1.053h-6.369zM136.505 86.78c4.216 0 6.952-2.105 8.252-6.176h4.844v12.168c0 1.556 1.301 2.288 2.646 2.288 1.301 0 2.602-.732 2.602-2.288V59.745c0-1.556-1.301-2.288-2.602-2.288-1.345 0-2.646.732-2.646 2.288v6.13h-4.844c-1.3-4.072-4.036-6.176-8.252-6.176-6.325 0-9.195 4.666-9.195 13.54 0 8.875 2.87 13.54 9.195 13.54zm21.08 7.914c0 1.555 1.3 2.287 2.646 2.287 1.346 0 2.646-.732 2.646-2.287V59.287c0-1.555-1.3-2.287-2.646-2.287-1.346 0-2.646.732-2.646 2.287v35.407zm-21.08-29.917c2.915 0 4.036 2.836 4.036 8.462 0 5.627-1.121 8.463-4.036 8.463-2.916 0-4.037-2.836-4.037-8.463 0-5.626 1.121-8.462 4.037-8.462zm9.194 8.462c0-.869-.045-1.692-.09-2.47h3.992v4.94h-3.992c.045-.777.09-1.6.09-2.47zM167.145 69.122c0 6.039 3.633 10.43 10.72 10.43 7.086 0 10.719-4.391 10.719-10.43 0-6.038-3.633-10.43-10.719-10.43-7.087 0-10.72 4.392-10.72 10.43zm15.967 0c0 3.111-1.435 5.581-5.247 5.581-3.813 0-5.248-2.47-5.248-5.58 0-3.111 1.435-5.582 5.248-5.582 3.812 0 5.247 2.47 5.247 5.581zm16.012-9.652c0-1.692-1.39-2.47-2.87-2.47-1.48 0-2.871.778-2.871 2.47v20.082c0 1.693 1.391 2.47 2.871 2.47s2.87-.777 2.87-2.47v-4.117h3.858c1.39 0 2.018-1.144 2.018-2.47 0-1.372-.628-2.516-2.018-2.516h-3.858v-2.79h3.858c1.39 0 2.018-1.144 2.018-2.47 0-1.373-.628-2.517-2.018-2.517h-3.858V59.47zm-5.741 38.06c0 1.692 1.391 2.47 2.871 2.47s2.87-.778 2.87-2.47V87.512c0-2.882-.941-3.797-3.812-3.797h-21.439c-1.39 0-2.018 1.144-2.018 2.47 0 1.327.628 2.47 2.018 2.47h18.479c.762 0 1.031.275 1.031 1.052v7.823z"/>
</svg>
