<svg xmlns="http://www.w3.org/2000/svg" width="189" height="132" fill="none" viewBox="0 0 189 132">
    <path fill="#fff" d="M36.975 69.237c.702.08.951.358 1.086 1.115l1.488 12.89 3.884-12.654c.325-.925.457-1.03 1.136-.743l3.147 1.227c.618.29.805.592.56 1.336l-6.212 18.72c-.386 1.2-.87 1.395-1.819 1.288l-2.453-.277c-.89-.101-1.343-.433-1.485-1.66l-1.3-11.006-3.695 10.44c-.412 1.166-.928 1.388-1.818 1.288l-2.453-.277c-.95-.108-1.376-.406-1.485-1.66l-1.878-19.636c-.062-.778.177-1.032.844-1.177l3.342-.494c.726-.138.84.005.94.978l.963 13.201 4.328-12.233c.3-.707.605-.923 1.307-.844l1.573.178zM55.492 84.922l-.413 4.451 6.805.77c.86.097 1.221.448 1.127 1.279l-.266 2.354c-.097.86-.527 1.122-1.388 1.025l-10.573-1.195c-1.068-.12-1.3-.548-1.191-1.777L51.496 72.5c.106-1.2.517-1.554 1.585-1.433l11.8 1.333c.86.097 1.225.419 1.127 1.28l-.27 2.393c-.094.83-.524 1.093-1.385.996l-7.992-.904-.402 4.092 6.864.776c.86.097 1.225.419 1.128 1.28l-.27 2.393c-.098.86-.525 1.092-1.385.995l-6.805-.769v-.01zM80.233 92.216c.86.098 1.225.42 1.127 1.28l-.266 2.354c-.097.86-.527 1.122-1.388 1.025l-11.424-1.291c-1.068-.12-1.33-.551-1.22-1.781l1.844-19.335c.105-1.2.516-1.554 1.594-1.433l2.453.278c1.068.12 1.3.547 1.195 1.748l-1.473 16.311 7.557.854v-.01zM98.243 97.919c-.036.587-.15.794-.901.8-4.758.083-8.485-1.24-10.861-3.522-2.377-2.282-3.46-5.64-3.014-9.587.467-4.134 2.54-6.784 5.434-8.29 2.859-1.45 6.47-1.754 10.071-1.006.574.155.806.311.742.885l-.387 3.152c-.059.524-.293.648-.873.552-2.47-.399-4.743-.315-6.456.573-1.713.888-2.864 2.561-3.17 5.261-.258 2.295.408 4.113 1.88 5.362 1.466 1.287 3.743 1.975 6.824 1.923.712-.01.84.285.818.743l-.106 3.154zM116.595 98.218c-2.064 1.78-4.702 2.604-7.392 2.3-2.7-.305-5.087-1.697-6.692-3.891-1.605-2.195-2.453-5.246-2.048-8.826.401-3.551 1.898-6.337 3.962-8.117 2.065-1.78 4.702-2.604 7.393-2.3 2.7.305 5.083 1.726 6.689 3.921 1.615 2.196 2.452 5.246 2.051 8.796-.403 3.561-1.898 6.337-3.963 8.117zm-2.185-13.9c-.736-1.205-1.831-1.88-3.157-2.03-1.325-.15-2.545.274-3.5 1.278-.989 1.04-1.693 2.663-1.942 4.869-.25 2.206.084 3.946.81 5.15.706 1.202 1.801 1.877 3.127 2.026 1.325.15 2.545-.273 3.529-1.274.956-1.014 1.661-2.637 1.91-4.843.249-2.205-.075-3.945-.777-5.176zM138.798 81.896c.387-.948.682-1.075 1.572-.974l2.819.318c.95.108 1.416.41 1.396 1.65l-.09 20.035c.01.712-.081.982-.704 1.002l-3.137.016c-.713.01-.854-.157-.884-.691l-.013-12.473-4.946 11.322c-.296.677-.605.923-1.307.844l-1.533-.174c-.702-.079-.948-.387-1.086-1.114l-2.324-12.143-2.767 12.159c-.148.514-.323.644-1.015.476l-3.055-.716c-.603-.158-.631-.442-.462-1.134l4.383-19.549c.257-1.213.779-1.404 1.729-1.297l2.819.319c.89.1 1.149.29 1.315 1.3l2.206 13.191 5.084-12.367zM153.677 96.019l-.412 4.451 6.804.769c.861.097 1.222.448 1.128 1.279l-.266 2.354c-.097.861-.528 1.123-1.388 1.025l-10.573-1.195c-1.068-.12-1.301-.547-1.192-1.777l1.904-19.328c.106-1.2.516-1.555 1.594-1.433l11.8 1.334c.861.097 1.225.419 1.128 1.28l-.271 2.393c-.094.83-.524 1.092-1.384.995l-7.992-.903-.405 4.111 6.864.776c.861.097 1.225.419 1.128 1.28l-.27 2.393c-.098.86-.525 1.093-1.385.996l-6.815-.77.003-.03z"/>
    <path stroke="#fff" stroke-miterlimit="10" stroke-width="5" d="M172.769 128.53L5.615 109.639c-1.642-.185-2.818-1.66-2.632-3.302l6.595-58.356c.185-1.642 1.66-2.817 3.302-2.632l167.155 18.89c1.642.186 2.817 1.661 2.632 3.303l-6.595 58.356c-.186 1.641-1.661 2.817-3.303 2.632zM94.606 18.884L24.996 46.72M106.275 20.203l61.642 42.667"/>
    <path fill="#fff" stroke="#fff" stroke-miterlimit="10" stroke-width="5" d="M100.044 23.034c3.66.413 6.962-2.218 7.376-5.878.413-3.66-2.218-6.962-5.878-7.376-3.66-.413-6.962 2.218-7.376 5.878-.413 3.66 2.218 6.962 5.878 7.376z"/>
</svg>
